<?xml version="1.0" encoding="us-ascii" standalone="no"?><svg xmlns="http://www.w3.org/2000/svg" xmlns:xlink="http://www.w3.org/1999/xlink" contentStyleType="text/css" height="985px" preserveAspectRatio="none" style="width:1722px;height:985px;background:#FFFFFF;" version="1.1" viewBox="0 0 1722 985" width="1722px" zoomAndPan="magnify"><defs/><g><text fill="#888888" font-family="sans-serif" font-size="10" lengthAdjust="spacing" textLength="70" x="1638" y="9.2822">Components</text><text fill="#000000" font-family="sans-serif" font-size="14" font-weight="bold" lengthAdjust="spacing" textLength="145" x="781.5" y="35.6357">Open Webconcept</text><!--cluster Layer 5 (interaction)--><g id="cluster_Layer 5 (interaction)"><path d="M249.5,55.9375 L418.5,55.9375 A3.75,3.75 0 0 1 421,58.4375 L428,78.2344 L1327.5,78.2344 A2.5,2.5 0 0 1 1330,80.7344 L1330,217.4375 A2.5,2.5 0 0 1 1327.5,219.9375 L249.5,219.9375 A2.5,2.5 0 0 1 247,217.4375 L247,58.4375 A2.5,2.5 0 0 1 249.5,55.9375 " fill="none" style="stroke:#000000;stroke-width:1.5;"/><line style="stroke:#000000;stroke-width:1.5;" x1="247" x2="428" y1="78.2344" y2="78.2344"/><text fill="#000000" font-family="sans-serif" font-size="14" font-weight="bold" lengthAdjust="spacing" textLength="168" x="251" y="70.9326">Layer 5 (interaction)</text></g><!--cluster Wordpress / NL Design--><g id="cluster_Wordpress / NL Design"><path d="M273.5,98.9375 L454.5,98.9375 A3.75,3.75 0 0 1 457,101.4375 L464,121.2344 L1303.5,121.2344 A2.5,2.5 0 0 1 1306,123.7344 L1306,193.4375 A2.5,2.5 0 0 1 1303.5,195.9375 L273.5,195.9375 A2.5,2.5 0 0 1 271,193.4375 L271,101.4375 A2.5,2.5 0 0 1 273.5,98.9375 " fill="none" style="stroke:#000000;stroke-width:1.5;"/><line style="stroke:#000000;stroke-width:1.5;" x1="271" x2="464" y1="121.2344" y2="121.2344"/><text fill="#000000" font-family="sans-serif" font-size="14" font-weight="bold" lengthAdjust="spacing" textLength="180" x="275" y="113.9326">Wordpress / NL Design</text></g><!--cluster Layer 4 (Bussnes Logic)--><g id="cluster_Layer 4 (Bussnes Logic)"><path d="M249.5,252.9375 L442.5,252.9375 A3.75,3.75 0 0 1 445,255.4375 L452,275.2344 L1571.5,275.2344 A2.5,2.5 0 0 1 1574,277.7344 L1574,414.4375 A2.5,2.5 0 0 1 1571.5,416.9375 L249.5,416.9375 A2.5,2.5 0 0 1 247,414.4375 L247,255.4375 A2.5,2.5 0 0 1 249.5,252.9375 " fill="none" style="stroke:#000000;stroke-width:1.5;"/><line style="stroke:#000000;stroke-width:1.5;" x1="247" x2="452" y1="275.2344" y2="275.2344"/><text fill="#000000" font-family="sans-serif" font-size="14" font-weight="bold" lengthAdjust="spacing" textLength="192" x="251" y="267.9326">Layer 4 (Bussnes Logic)</text></g><!--cluster Wordpress / Plugins--><g id="cluster_Wordpress / Plugins"><path d="M273.5,295.9375 L434.5,295.9375 A3.75,3.75 0 0 1 437,298.4375 L444,318.2344 L1225.5,318.2344 A2.5,2.5 0 0 1 1228,320.7344 L1228,390.4375 A2.5,2.5 0 0 1 1225.5,392.9375 L273.5,392.9375 A2.5,2.5 0 0 1 271,390.4375 L271,298.4375 A2.5,2.5 0 0 1 273.5,295.9375 " fill="none" style="stroke:#000000;stroke-width:1.5;"/><line style="stroke:#000000;stroke-width:1.5;" x1="271" x2="444" y1="318.2344" y2="318.2344"/><text fill="#000000" font-family="sans-serif" font-size="14" font-weight="bold" lengthAdjust="spacing" textLength="160" x="275" y="310.9326">Wordpress / Plugins</text></g><!--cluster Micro services--><g id="cluster_Micro services"><path d="M1254.5,295.9375 L1371.5,295.9375 A3.75,3.75 0 0 1 1374,298.4375 L1381,318.2344 L1547.5,318.2344 A2.5,2.5 0 0 1 1550,320.7344 L1550,390.4375 A2.5,2.5 0 0 1 1547.5,392.9375 L1254.5,392.9375 A2.5,2.5 0 0 1 1252,390.4375 L1252,298.4375 A2.5,2.5 0 0 1 1254.5,295.9375 " fill="none" style="stroke:#000000;stroke-width:1.5;"/><line style="stroke:#000000;stroke-width:1.5;" x1="1252" x2="1381" y1="318.2344" y2="318.2344"/><text fill="#000000" font-family="sans-serif" font-size="14" font-weight="bold" lengthAdjust="spacing" textLength="116" x="1256" y="310.9326">Micro services</text></g><!--cluster Layer 3 (Intregation)--><g id="cluster_Layer 3 (Intregation)"><path d="M712.5,465.9375 L882.5,465.9375 A3.75,3.75 0 0 1 885,468.4375 L892,488.2344 L911.5,488.2344 A2.5,2.5 0 0 1 914,490.7344 L914,560.4375 A2.5,2.5 0 0 1 911.5,562.9375 L712.5,562.9375 A2.5,2.5 0 0 1 710,560.4375 L710,468.4375 A2.5,2.5 0 0 1 712.5,465.9375 " fill="none" style="stroke:#000000;stroke-width:1.5;"/><line style="stroke:#000000;stroke-width:1.5;" x1="710" x2="892" y1="488.2344" y2="488.2344"/><text fill="#000000" font-family="sans-serif" font-size="14" font-weight="bold" lengthAdjust="spacing" textLength="169" x="714" y="480.9326">Layer 3 (Intregation)</text></g><!--cluster Layer 2 (API)--><g id="cluster_Layer 2 (API)"><path d="M8.5,599.9375 L112.5,599.9375 A3.75,3.75 0 0 1 115,602.4375 L122,622.2344 L1673.5,622.2344 A2.5,2.5 0 0 1 1676,624.7344 L1676,761.4375 A2.5,2.5 0 0 1 1673.5,763.9375 L8.5,763.9375 A2.5,2.5 0 0 1 6,761.4375 L6,602.4375 A2.5,2.5 0 0 1 8.5,599.9375 " fill="none" style="stroke:#000000;stroke-width:1.5;"/><line style="stroke:#000000;stroke-width:1.5;" x1="6" x2="122" y1="622.2344" y2="622.2344"/><text fill="#000000" font-family="sans-serif" font-size="14" font-weight="bold" lengthAdjust="spacing" textLength="103" x="10" y="614.9326">Layer 2 (API)</text></g><!--cluster ZGW--><g id="cluster_ZGW"><path d="M32.5,642.9375 L71.5,642.9375 A3.75,3.75 0 0 1 74,645.4375 L81,665.2344 L1649.5,665.2344 A2.5,2.5 0 0 1 1652,667.7344 L1652,737.4375 A2.5,2.5 0 0 1 1649.5,739.9375 L32.5,739.9375 A2.5,2.5 0 0 1 30,737.4375 L30,645.4375 A2.5,2.5 0 0 1 32.5,642.9375 " fill="none" style="stroke:#000000;stroke-width:1.5;"/><line style="stroke:#000000;stroke-width:1.5;" x1="30" x2="81" y1="665.2344" y2="665.2344"/><text fill="#000000" font-family="sans-serif" font-size="14" font-weight="bold" lengthAdjust="spacing" textLength="38" x="34" y="657.9326">ZGW</text></g><!--cluster Layer 1 (Database)--><g id="cluster_Layer 1 (Database)"><path d="M47.5,796.9375 L202.5,796.9375 A3.75,3.75 0 0 1 205,799.4375 L212,819.2344 L1642.5,819.2344 A2.5,2.5 0 0 1 1645,821.7344 L1645,957.4375 A2.5,2.5 0 0 1 1642.5,959.9375 L47.5,959.9375 A2.5,2.5 0 0 1 45,957.4375 L45,799.4375 A2.5,2.5 0 0 1 47.5,796.9375 " fill="none" style="stroke:#000000;stroke-width:1.5;"/><line style="stroke:#000000;stroke-width:1.5;" x1="45" x2="212" y1="819.2344" y2="819.2344"/><text fill="#000000" font-family="sans-serif" font-size="14" font-weight="bold" lengthAdjust="spacing" textLength="154" x="49" y="811.9326">Layer 1 (Database)</text></g><!--cluster zgwdb--><g id="cluster_zgwdb"><path d="M71.5,839.9375 L110.5,839.9375 A3.75,3.75 0 0 1 113,842.4375 L120,862.2344 L1618.5,862.2344 A2.5,2.5 0 0 1 1621,864.7344 L1621,933.4375 A2.5,2.5 0 0 1 1618.5,935.9375 L71.5,935.9375 A2.5,2.5 0 0 1 69,933.4375 L69,842.4375 A2.5,2.5 0 0 1 71.5,839.9375 " fill="none" style="stroke:#000000;stroke-width:1.5;"/><line style="stroke:#000000;stroke-width:1.5;" x1="69" x2="120" y1="862.2344" y2="862.2344"/><text fill="#000000" font-family="sans-serif" font-size="14" font-weight="bold" lengthAdjust="spacing" textLength="38" x="73" y="854.9326">ZGW</text></g><!--entity mijnZakenUI--><g id="elem_mijnZakenUI"><rect fill="#F1F1F1" height="46.2969" rx="2.5" ry="2.5" style="stroke:#181818;stroke-width:0.5;" width="118" x="287" y="133.9375"/><rect fill="#F1F1F1" height="10" style="stroke:#181818;stroke-width:0.5;" width="15" x="385" y="138.9375"/><rect fill="#F1F1F1" height="2" style="stroke:#181818;stroke-width:0.5;" width="4" x="383" y="140.9375"/><rect fill="#F1F1F1" height="2" style="stroke:#181818;stroke-width:0.5;" width="4" x="383" y="144.9375"/><text fill="#000000" font-family="sans-serif" font-size="14" lengthAdjust="spacing" textLength="78" x="302" y="166.9326">Mijn Zaken</text></g><!--entity mijnBerichtenUI--><g id="elem_mijnBerichtenUI"><rect fill="#F1F1F1" height="46.2969" rx="2.5" ry="2.5" style="stroke:#181818;stroke-width:0.5;" width="144" x="440" y="133.9375"/><rect fill="#F1F1F1" height="10" style="stroke:#181818;stroke-width:0.5;" width="15" x="564" y="138.9375"/><rect fill="#F1F1F1" height="2" style="stroke:#181818;stroke-width:0.5;" width="4" x="562" y="140.9375"/><rect fill="#F1F1F1" height="2" style="stroke:#181818;stroke-width:0.5;" width="4" x="562" y="144.9375"/><text fill="#000000" font-family="sans-serif" font-size="14" lengthAdjust="spacing" textLength="104" x="455" y="166.9326">Mijn Berichten</text></g><!--entity mijnTakenUI--><g id="elem_mijnTakenUI"><rect fill="#F1F1F1" height="46.2969" rx="2.5" ry="2.5" style="stroke:#181818;stroke-width:0.5;" width="117" x="619.5" y="133.9375"/><rect fill="#F1F1F1" height="10" style="stroke:#181818;stroke-width:0.5;" width="15" x="716.5" y="138.9375"/><rect fill="#F1F1F1" height="2" style="stroke:#181818;stroke-width:0.5;" width="4" x="714.5" y="140.9375"/><rect fill="#F1F1F1" height="2" style="stroke:#181818;stroke-width:0.5;" width="4" x="714.5" y="144.9375"/><text fill="#000000" font-family="sans-serif" font-size="14" lengthAdjust="spacing" textLength="77" x="634.5" y="166.9326">Mijn Taken</text></g><!--entity mijnProfielUI--><g id="elem_mijnProfielUI"><rect fill="#F1F1F1" height="46.2969" rx="2.5" ry="2.5" style="stroke:#181818;stroke-width:0.5;" width="120" x="772" y="133.9375"/><rect fill="#F1F1F1" height="10" style="stroke:#181818;stroke-width:0.5;" width="15" x="872" y="138.9375"/><rect fill="#F1F1F1" height="2" style="stroke:#181818;stroke-width:0.5;" width="4" x="870" y="140.9375"/><rect fill="#F1F1F1" height="2" style="stroke:#181818;stroke-width:0.5;" width="4" x="870" y="144.9375"/><text fill="#000000" font-family="sans-serif" font-size="14" lengthAdjust="spacing" textLength="80" x="787" y="166.9326">Mijn Profiel</text></g><!--entity mijnNieuwsUI--><g id="elem_mijnNieuwsUI"><rect fill="#F1F1F1" height="46.2969" rx="2.5" ry="2.5" style="stroke:#181818;stroke-width:0.5;" width="122" x="927" y="133.9375"/><rect fill="#F1F1F1" height="10" style="stroke:#181818;stroke-width:0.5;" width="15" x="1029" y="138.9375"/><rect fill="#F1F1F1" height="2" style="stroke:#181818;stroke-width:0.5;" width="4" x="1027" y="140.9375"/><rect fill="#F1F1F1" height="2" style="stroke:#181818;stroke-width:0.5;" width="4" x="1027" y="144.9375"/><text fill="#000000" font-family="sans-serif" font-size="14" lengthAdjust="spacing" textLength="82" x="942" y="166.9326">Mijn Nieuws</text></g><!--entity mijnDienstenUI--><g id="elem_mijnDienstenUI"><rect fill="#F1F1F1" height="46.2969" rx="2.5" ry="2.5" style="stroke:#181818;stroke-width:0.5;" width="205" x="1084.5" y="133.9375"/><rect fill="#F1F1F1" height="10" style="stroke:#181818;stroke-width:0.5;" width="15" x="1269.5" y="138.9375"/><rect fill="#F1F1F1" height="2" style="stroke:#181818;stroke-width:0.5;" width="4" x="1267.5" y="140.9375"/><rect fill="#F1F1F1" height="2" style="stroke:#181818;stroke-width:0.5;" width="4" x="1267.5" y="144.9375"/><text fill="#000000" font-family="sans-serif" font-size="14" lengthAdjust="spacing" textLength="165" x="1099.5" y="166.9326">Producten en Diensten</text></g><!--entity mijnZakenPlugin--><g id="elem_mijnZakenPlugin"><rect fill="#F1F1F1" height="46.2969" rx="2.5" ry="2.5" style="stroke:#181818;stroke-width:0.5;" width="118" x="287" y="330.9375"/><rect fill="#F1F1F1" height="10" style="stroke:#181818;stroke-width:0.5;" width="15" x="385" y="335.9375"/><rect fill="#F1F1F1" height="2" style="stroke:#181818;stroke-width:0.5;" width="4" x="383" y="337.9375"/><rect fill="#F1F1F1" height="2" style="stroke:#181818;stroke-width:0.5;" width="4" x="383" y="341.9375"/><text fill="#000000" font-family="sans-serif" font-size="14" lengthAdjust="spacing" textLength="78" x="302" y="363.9326">Mijn Zaken</text></g><!--entity mijnBerichtenPlugin--><g id="elem_mijnBerichtenPlugin"><rect fill="#F1F1F1" height="46.2969" rx="2.5" ry="2.5" style="stroke:#181818;stroke-width:0.5;" width="144" x="440" y="330.9375"/><rect fill="#F1F1F1" height="10" style="stroke:#181818;stroke-width:0.5;" width="15" x="564" y="335.9375"/><rect fill="#F1F1F1" height="2" style="stroke:#181818;stroke-width:0.5;" width="4" x="562" y="337.9375"/><rect fill="#F1F1F1" height="2" style="stroke:#181818;stroke-width:0.5;" width="4" x="562" y="341.9375"/><text fill="#000000" font-family="sans-serif" font-size="14" lengthAdjust="spacing" textLength="104" x="455" y="363.9326">Mijn Berichten</text></g><!--entity mijnTakenPlugin--><g id="elem_mijnTakenPlugin"><rect fill="#F1F1F1" height="46.2969" rx="2.5" ry="2.5" style="stroke:#181818;stroke-width:0.5;" width="117" x="619.5" y="330.9375"/><rect fill="#F1F1F1" height="10" style="stroke:#181818;stroke-width:0.5;" width="15" x="716.5" y="335.9375"/><rect fill="#F1F1F1" height="2" style="stroke:#181818;stroke-width:0.5;" width="4" x="714.5" y="337.9375"/><rect fill="#F1F1F1" height="2" style="stroke:#181818;stroke-width:0.5;" width="4" x="714.5" y="341.9375"/><text fill="#000000" font-family="sans-serif" font-size="14" lengthAdjust="spacing" textLength="77" x="634.5" y="363.9326">Mijn Taken</text></g><!--entity mijnZProfielPlugin--><g id="elem_mijnZProfielPlugin"><rect fill="#F1F1F1" height="46.2969" rx="2.5" ry="2.5" style="stroke:#181818;stroke-width:0.5;" width="120" x="772" y="330.9375"/><rect fill="#F1F1F1" height="10" style="stroke:#181818;stroke-width:0.5;" width="15" x="872" y="335.9375"/><rect fill="#F1F1F1" height="2" style="stroke:#181818;stroke-width:0.5;" width="4" x="870" y="337.9375"/><rect fill="#F1F1F1" height="2" style="stroke:#181818;stroke-width:0.5;" width="4" x="870" y="341.9375"/><text fill="#000000" font-family="sans-serif" font-size="14" lengthAdjust="spacing" textLength="80" x="787" y="363.9326">Mijn Profiel</text></g><!--entity mijnNieuwslugin--><g id="elem_mijnNieuwslugin"><rect fill="#F1F1F1" height="46.2969" rx="2.5" ry="2.5" style="stroke:#181818;stroke-width:0.5;" width="111" x="927.5" y="330.9375"/><rect fill="#F1F1F1" height="10" style="stroke:#181818;stroke-width:0.5;" width="15" x="1018.5" y="335.9375"/><rect fill="#F1F1F1" height="2" style="stroke:#181818;stroke-width:0.5;" width="4" x="1016.5" y="337.9375"/><rect fill="#F1F1F1" height="2" style="stroke:#181818;stroke-width:0.5;" width="4" x="1016.5" y="341.9375"/><text fill="#000000" font-family="sans-serif" font-size="14" lengthAdjust="spacing" textLength="71" x="942.5" y="363.9326">Open PUB</text></g><!--entity GrafityFormsPlugin--><g id="elem_GrafityFormsPlugin"><rect fill="#F1F1F1" height="46.2969" rx="2.5" ry="2.5" style="stroke:#181818;stroke-width:0.5;" width="138" x="1074" y="330.9375"/><rect fill="#F1F1F1" height="10" style="stroke:#181818;stroke-width:0.5;" width="15" x="1192" y="335.9375"/><rect fill="#F1F1F1" height="2" style="stroke:#181818;stroke-width:0.5;" width="4" x="1190" y="337.9375"/><rect fill="#F1F1F1" height="2" style="stroke:#181818;stroke-width:0.5;" width="4" x="1190" y="341.9375"/><text fill="#000000" font-family="sans-serif" font-size="14" lengthAdjust="spacing" textLength="98" x="1089" y="363.9326">Grafity Forms</text></g><!--entity WaardepapierenService--><g id="elem_WaardepapierenService"><rect fill="#F1F1F1" height="46.2969" rx="2.5" ry="2.5" style="stroke:#181818;stroke-width:0.5;" width="159" x="1374.5" y="330.9375"/><rect fill="#F1F1F1" height="10" style="stroke:#181818;stroke-width:0.5;" width="15" x="1513.5" y="335.9375"/><rect fill="#F1F1F1" height="2" style="stroke:#181818;stroke-width:0.5;" width="4" x="1511.5" y="337.9375"/><rect fill="#F1F1F1" height="2" style="stroke:#181818;stroke-width:0.5;" width="4" x="1511.5" y="341.9375"/><text fill="#000000" font-family="sans-serif" font-size="14" lengthAdjust="spacing" textLength="119" x="1389.5" y="363.9326">Waardepapieren</text></g><!--entity omc--><g id="elem_omc"><rect fill="#F1F1F1" height="46.2969" rx="2.5" ry="2.5" style="stroke:#181818;stroke-width:0.5;" width="71" x="1268.5" y="330.9375"/><rect fill="#F1F1F1" height="10" style="stroke:#181818;stroke-width:0.5;" width="15" x="1319.5" y="335.9375"/><rect fill="#F1F1F1" height="2" style="stroke:#181818;stroke-width:0.5;" width="4" x="1317.5" y="337.9375"/><rect fill="#F1F1F1" height="2" style="stroke:#181818;stroke-width:0.5;" width="4" x="1317.5" y="341.9375"/><text fill="#000000" font-family="sans-serif" font-size="14" lengthAdjust="spacing" textLength="31" x="1283.5" y="363.9326">omc</text></g><!--entity gateway--><g id="elem_gateway"><rect fill="#F1F1F1" height="46.2969" rx="2.5" ry="2.5" style="stroke:#181818;stroke-width:0.5;" width="171" x="726.5" y="500.9375"/><rect fill="#F1F1F1" height="10" style="stroke:#181818;stroke-width:0.5;" width="15" x="877.5" y="505.9375"/><rect fill="#F1F1F1" height="2" style="stroke:#181818;stroke-width:0.5;" width="4" x="875.5" y="507.9375"/><rect fill="#F1F1F1" height="2" style="stroke:#181818;stroke-width:0.5;" width="4" x="875.5" y="511.9375"/><text fill="#000000" font-family="sans-serif" font-size="14" lengthAdjust="spacing" textLength="131" x="741.5" y="533.9326">Common Gateway</text></g><!--entity zrc--><g id="elem_zrc"><rect fill="#F1F1F1" height="46.2969" rx="2.5" ry="2.5" style="stroke:#181818;stroke-width:0.5;" width="249" x="922.5" y="677.9375"/><rect fill="#F1F1F1" height="10" style="stroke:#181818;stroke-width:0.5;" width="15" x="1151.5" y="682.9375"/><rect fill="#F1F1F1" height="2" style="stroke:#181818;stroke-width:0.5;" width="4" x="1149.5" y="684.9375"/><rect fill="#F1F1F1" height="2" style="stroke:#181818;stroke-width:0.5;" width="4" x="1149.5" y="688.9375"/><text fill="#000000" font-family="sans-serif" font-size="14" lengthAdjust="spacing" textLength="209" x="937.5" y="710.9326">Zaak Registratie Component</text></g><!--entity ztc--><g id="elem_ztc"><rect fill="#F1F1F1" height="46.2969" rx="2.5" ry="2.5" style="stroke:#181818;stroke-width:0.5;" width="188" x="1207" y="677.9375"/><rect fill="#F1F1F1" height="10" style="stroke:#181818;stroke-width:0.5;" width="15" x="1375" y="682.9375"/><rect fill="#F1F1F1" height="2" style="stroke:#181818;stroke-width:0.5;" width="4" x="1373" y="684.9375"/><rect fill="#F1F1F1" height="2" style="stroke:#181818;stroke-width:0.5;" width="4" x="1373" y="688.9375"/><text fill="#000000" font-family="sans-serif" font-size="14" lengthAdjust="spacing" textLength="148" x="1222" y="710.9326">Zaakttype catalogus</text></g><!--entity drc--><g id="elem_drc"><rect fill="#F1F1F1" height="46.2969" rx="2.5" ry="2.5" style="stroke:#181818;stroke-width:0.5;" width="289" x="46.5" y="677.9375"/><rect fill="#F1F1F1" height="10" style="stroke:#181818;stroke-width:0.5;" width="15" x="315.5" y="682.9375"/><rect fill="#F1F1F1" height="2" style="stroke:#181818;stroke-width:0.5;" width="4" x="313.5" y="684.9375"/><rect fill="#F1F1F1" height="2" style="stroke:#181818;stroke-width:0.5;" width="4" x="313.5" y="688.9375"/><text fill="#000000" font-family="sans-serif" font-size="14" lengthAdjust="spacing" textLength="249" x="61.5" y="710.9326">Document Registratie Component</text></g><!--entity orc--><g id="elem_orc"><rect fill="#F1F1F1" height="46.2969" rx="2.5" ry="2.5" style="stroke:#181818;stroke-width:0.5;" width="263" x="370.5" y="677.9375"/><rect fill="#F1F1F1" height="10" style="stroke:#181818;stroke-width:0.5;" width="15" x="613.5" y="682.9375"/><rect fill="#F1F1F1" height="2" style="stroke:#181818;stroke-width:0.5;" width="4" x="611.5" y="684.9375"/><rect fill="#F1F1F1" height="2" style="stroke:#181818;stroke-width:0.5;" width="4" x="611.5" y="688.9375"/><text fill="#000000" font-family="sans-serif" font-size="14" lengthAdjust="spacing" textLength="223" x="385.5" y="710.9326">Object Registratie Component</text></g><!--entity nc--><g id="elem_nc"><rect fill="#F1F1F1" height="46.2969" rx="2.5" ry="2.5" style="stroke:#181818;stroke-width:0.5;" width="206" x="1430" y="677.9375"/><rect fill="#F1F1F1" height="10" style="stroke:#181818;stroke-width:0.5;" width="15" x="1616" y="682.9375"/><rect fill="#F1F1F1" height="2" style="stroke:#181818;stroke-width:0.5;" width="4" x="1614" y="684.9375"/><rect fill="#F1F1F1" height="2" style="stroke:#181818;stroke-width:0.5;" width="4" x="1614" y="688.9375"/><text fill="#000000" font-family="sans-serif" font-size="14" lengthAdjust="spacing" textLength="166" x="1445" y="710.9326">Notificatie Component</text></g><!--entity ac--><g id="elem_ac"><rect fill="#F1F1F1" height="46.2969" rx="2.5" ry="2.5" style="stroke:#181818;stroke-width:0.5;" width="218" x="669" y="677.9375"/><rect fill="#F1F1F1" height="10" style="stroke:#181818;stroke-width:0.5;" width="15" x="867" y="682.9375"/><rect fill="#F1F1F1" height="2" style="stroke:#181818;stroke-width:0.5;" width="4" x="865" y="684.9375"/><rect fill="#F1F1F1" height="2" style="stroke:#181818;stroke-width:0.5;" width="4" x="865" y="688.9375"/><text fill="#000000" font-family="sans-serif" font-size="14" lengthAdjust="spacing" textLength="178" x="684" y="710.9326">Authorisatie Component</text></g><!--entity zrcDB--><g id="elem_zrcDB"><path d="M921.5,884.9375 C921.5,874.9375 1041,874.9375 1041,874.9375 C1041,874.9375 1160.5,874.9375 1160.5,884.9375 L1160.5,910.2344 C1160.5,920.2344 1041,920.2344 1041,920.2344 C1041,920.2344 921.5,920.2344 921.5,910.2344 L921.5,884.9375 " fill="#F1F1F1" style="stroke:#181818;stroke-width:0.5;"/><path d="M921.5,884.9375 C921.5,894.9375 1041,894.9375 1041,894.9375 C1041,894.9375 1160.5,894.9375 1160.5,884.9375 " fill="none" style="stroke:#181818;stroke-width:0.5;"/><text fill="#000000" font-family="sans-serif" font-size="14" lengthAdjust="spacing" textLength="219" x="931.5" y="911.9326">AZaak Registratie Component</text></g><!--entity ztcDB--><g id="elem_ztcDB"><path d="M1196,884.9375 C1196,874.9375 1285,874.9375 1285,874.9375 C1285,874.9375 1374,874.9375 1374,884.9375 L1374,910.2344 C1374,920.2344 1285,920.2344 1285,920.2344 C1285,920.2344 1196,920.2344 1196,910.2344 L1196,884.9375 " fill="#F1F1F1" style="stroke:#181818;stroke-width:0.5;"/><path d="M1196,884.9375 C1196,894.9375 1285,894.9375 1285,894.9375 C1285,894.9375 1374,894.9375 1374,884.9375 " fill="none" style="stroke:#181818;stroke-width:0.5;"/><text fill="#000000" font-family="sans-serif" font-size="14" lengthAdjust="spacing" textLength="158" x="1206" y="911.9326">AZaakttype catalogus</text></g><!--entity drcDB--><g id="elem_drcDB"><path d="M85.5,884.9375 C85.5,874.9375 225,874.9375 225,874.9375 C225,874.9375 364.5,874.9375 364.5,884.9375 L364.5,910.2344 C364.5,920.2344 225,920.2344 225,920.2344 C225,920.2344 85.5,920.2344 85.5,910.2344 L85.5,884.9375 " fill="#F1F1F1" style="stroke:#181818;stroke-width:0.5;"/><path d="M85.5,884.9375 C85.5,894.9375 225,894.9375 225,894.9375 C225,894.9375 364.5,894.9375 364.5,884.9375 " fill="none" style="stroke:#181818;stroke-width:0.5;"/><text fill="#000000" font-family="sans-serif" font-size="14" lengthAdjust="spacing" textLength="259" x="95.5" y="911.9326">ADocument Registratie Component</text></g><!--entity orcDB--><g id="elem_orcDB"><path d="M399.5,884.9375 C399.5,874.9375 526,874.9375 526,874.9375 C526,874.9375 652.5,874.9375 652.5,884.9375 L652.5,910.2344 C652.5,920.2344 526,920.2344 526,920.2344 C526,920.2344 399.5,920.2344 399.5,910.2344 L399.5,884.9375 " fill="#F1F1F1" style="stroke:#181818;stroke-width:0.5;"/><path d="M399.5,884.9375 C399.5,894.9375 526,894.9375 526,894.9375 C526,894.9375 652.5,894.9375 652.5,884.9375 " fill="none" style="stroke:#181818;stroke-width:0.5;"/><text fill="#000000" font-family="sans-serif" font-size="14" lengthAdjust="spacing" textLength="233" x="409.5" y="911.9326">AObject Registratie Component</text></g><!--entity ncDB--><g id="elem_ncDB"><path d="M1409,884.9375 C1409,874.9375 1507,874.9375 1507,874.9375 C1507,874.9375 1605,874.9375 1605,884.9375 L1605,910.2344 C1605,920.2344 1507,920.2344 1507,920.2344 C1507,920.2344 1409,920.2344 1409,910.2344 L1409,884.9375 " fill="#F1F1F1" style="stroke:#181818;stroke-width:0.5;"/><path d="M1409,884.9375 C1409,894.9375 1507,894.9375 1507,894.9375 C1507,894.9375 1605,894.9375 1605,884.9375 " fill="none" style="stroke:#181818;stroke-width:0.5;"/><text fill="#000000" font-family="sans-serif" font-size="14" lengthAdjust="spacing" textLength="176" x="1419" y="911.9326">ANotificatie Component</text></g><!--entity acDB--><g id="elem_acDB"><path d="M688,884.9375 C688,874.9375 787,874.9375 787,874.9375 C787,874.9375 886,874.9375 886,884.9375 L886,910.2344 C886,920.2344 787,920.2344 787,920.2344 C787,920.2344 688,920.2344 688,910.2344 L688,884.9375 " fill="#F1F1F1" style="stroke:#181818;stroke-width:0.5;"/><path d="M688,884.9375 C688,894.9375 787,894.9375 787,894.9375 C787,894.9375 886,894.9375 886,884.9375 " fill="none" style="stroke:#181818;stroke-width:0.5;"/><text fill="#000000" font-family="sans-serif" font-size="14" lengthAdjust="spacing" textLength="178" x="698" y="911.9326">Authorisatie Component</text></g><!--entity notify.nl--><g id="elem_notify.nl"><ellipse cx="1090" cy="523.9375" fill="#F1F1F1" rx="8" ry="8" style="stroke:#181818;stroke-width:0.5;"/><text fill="#000000" font-family="sans-serif" font-size="14" lengthAdjust="spacing" textLength="61" x="1059.5" y="553.9326">notify.nl</text></g><!--link mijnZakenUI to mijnZakenPlugin--><g id="link_mijnZakenUI_mijnZakenPlugin"><path d="M346,180.3065 C346,217.9215 346,287.3905 346,324.8295 " fill="none" id="mijnZakenUI-to-mijnZakenPlugin" style="stroke:#181818;stroke-width:1.0;"/><polygon fill="#181818" points="346,330.8295,350,321.8295,346,325.8295,342,321.8295,346,330.8295" style="stroke:#181818;stroke-width:1.0;"/></g><!--link mijnBerichtenUI to mijnBerichtenPlugin--><g id="link_mijnBerichtenUI_mijnBerichtenPlugin"><path d="M512,180.3065 C512,217.9215 512,287.3905 512,324.8295 " fill="none" id="mijnBerichtenUI-to-mijnBerichtenPlugin" style="stroke:#181818;stroke-width:1.0;"/><polygon fill="#181818" points="512,330.8295,516,321.8295,512,325.8295,508,321.8295,512,330.8295" style="stroke:#181818;stroke-width:1.0;"/></g><!--link mijnTakenUI to mijnTakenPlugin--><g id="link_mijnTakenUI_mijnTakenPlugin"><path d="M678,180.3065 C678,217.9215 678,287.3905 678,324.8295 " fill="none" id="mijnTakenUI-to-mijnTakenPlugin" style="stroke:#181818;stroke-width:1.0;"/><polygon fill="#181818" points="678,330.8295,682,321.8295,678,325.8295,674,321.8295,678,330.8295" style="stroke:#181818;stroke-width:1.0;"/></g><!--link mijnProfielUI to mijnZProfielPlugin--><g id="link_mijnProfielUI_mijnZProfielPlugin"><path d="M832,180.3065 C832,217.9215 832,287.3905 832,324.8295 " fill="none" id="mijnProfielUI-to-mijnZProfielPlugin" style="stroke:#181818;stroke-width:1.0;"/><polygon fill="#181818" points="832,330.8295,836,321.8295,832,325.8295,828,321.8295,832,330.8295" style="stroke:#181818;stroke-width:1.0;"/></g><!--link mijnNieuwsUI to mijnNieuwslugin--><g id="link_mijnNieuwsUI_mijnNieuwslugin"><path d="M987.426,180.3065 C986.462,217.9215 984.6808,287.3925 983.7208,324.8315 " fill="none" id="mijnNieuwsUI-to-mijnNieuwslugin" style="stroke:#181818;stroke-width:1.0;"/><polygon fill="#181818" points="983.567,330.8295,987.7964,321.935,983.6952,325.8311,979.799,321.7299,983.567,330.8295" style="stroke:#181818;stroke-width:1.0;"/></g><!--link mijnDienstenUI to GrafityFormsPlugin--><g id="link_mijnDienstenUI_GrafityFormsPlugin"><path d="M1181.95,180.3065 C1173.47,217.9215 1157.761,287.5377 1149.311,324.9767 " fill="none" id="mijnDienstenUI-to-GrafityFormsPlugin" style="stroke:#181818;stroke-width:1.0;"/><polygon fill="#181818" points="1147.99,330.8295,1153.8733,322.931,1149.0908,325.9522,1146.0696,321.1697,1147.99,330.8295" style="stroke:#181818;stroke-width:1.0;"/></g><!--link mijnZakenPlugin to gateway--><g id="link_mijnZakenPlugin_gateway"><path d="M364.457,377.0165 C378.656,392.6185 399.588,412.8315 422,424.9375 C518.744,477.1945 638.1264,501.4105 720.2444,512.9515 " fill="none" id="mijnZakenPlugin-to-gateway" style="stroke:#181818;stroke-width:1.0;"/><polygon fill="#181818" points="726.186,513.7865,717.8303,508.5729,721.2347,513.0906,716.7169,516.495,726.186,513.7865" style="stroke:#181818;stroke-width:1.0;"/></g><!--link mijnBerichtenPlugin to gateway--><g id="link_mijnBerichtenPlugin_gateway"><path d="M537.264,377.0815 C554.716,391.7375 578.864,410.7895 602,424.9375 C651.77,455.3715 706.9917,480.4638 750.3267,498.5018 " fill="none" id="mijnBerichtenPlugin-to-gateway" style="stroke:#181818;stroke-width:1.0;"/><polygon fill="#181818" points="755.866,500.8075,749.0942,493.6561,751.2499,498.8861,746.0199,501.0418,755.866,500.8075" style="stroke:#181818;stroke-width:1.0;"/></g><!--link mijnTakenPlugin to gateway--><g id="link_mijnTakenPlugin_gateway"><path d="M695.794,377.2465 C721.495,409.4685 764.9815,463.9899 790.6045,496.1129 " fill="none" id="mijnTakenPlugin-to-gateway" style="stroke:#181818;stroke-width:1.0;"/><polygon fill="#181818" points="794.346,500.8035,791.8609,491.2733,791.2281,496.8947,785.6068,496.2619,794.346,500.8035" style="stroke:#181818;stroke-width:1.0;"/></g><!--link mijnZProfielPlugin to gateway--><g id="link_mijnZProfielPlugin_gateway"><path d="M829.344,377.2465 C825.508,409.4685 819.1682,462.7226 815.3442,494.8456 " fill="none" id="mijnZProfielPlugin-to-gateway" style="stroke:#181818;stroke-width:1.0;"/><polygon fill="#181818" points="814.635,500.8035,819.6708,492.3394,815.226,495.8386,811.7269,491.3938,814.635,500.8035" style="stroke:#181818;stroke-width:1.0;"/></g><!--link mijnNieuwslugin to gateway--><g id="link_mijnNieuwslugin_gateway"><path d="M960.293,377.2465 C927.496,409.4685 871.506,464.4756 838.809,496.5986 " fill="none" id="mijnNieuwslugin-to-gateway" style="stroke:#181818;stroke-width:1.0;"/><polygon fill="#181818" points="834.529,500.8035,843.7523,497.3495,838.0957,497.2994,838.1458,491.6428,834.529,500.8035" style="stroke:#181818;stroke-width:1.0;"/></g><!--link GrafityFormsPlugin to gateway--><g id="link_GrafityFormsPlugin_gateway"><path d="M1119.3,377.2275 C1102.56,392.1345 1079.09,411.4195 1056,424.9375 C1000.65,457.3465 938.2374,481.7565 888.0634,498.9395 " fill="none" id="GrafityFormsPlugin-to-gateway" style="stroke:#181818;stroke-width:1.0;"/><polygon fill="#181818" points="882.387,500.8835,892.1975,501.7518,887.1173,499.2635,889.6055,494.1833,882.387,500.8835" style="stroke:#181818;stroke-width:1.0;"/></g><!--link gateway to ztc--><g id="link_gateway_ztc"><path d="M897.518,543.9955 C938.915,552.8575 989.412,563.1365 1035,570.9375 C1103.09,582.5885 1126.84,561.8055 1189,591.9375 C1230.08,611.8505 1262.0734,647.7825 1281.5634,673.1375 " fill="none" id="gateway-to-ztc" style="stroke:#181818;stroke-width:1.0;"/><polygon fill="#181818" points="1285.22,677.8945,1282.9064,668.3212,1282.1728,673.9303,1276.5637,673.1968,1285.22,677.8945" style="stroke:#181818;stroke-width:1.0;"/></g><!--link gateway to zrc--><g id="link_gateway_zrc"><path d="M843.146,547.0705 C861.278,560.0325 884.528,576.7825 905,591.9375 C944.581,621.2395 985.0183,652.1449 1013.5853,674.1319 " fill="none" id="gateway-to-zrc" style="stroke:#181818;stroke-width:1.0;"/><polygon fill="#181818" points="1018.34,677.7915,1013.6476,669.1323,1014.3777,674.7419,1008.7682,675.472,1018.34,677.7915" style="stroke:#181818;stroke-width:1.0;"/></g><!--link gateway to drc--><g id="link_gateway_drc"><path d="M726.264,526.2675 C631.873,530.2545 477.054,544.3235 353,591.9375 C299.826,612.3465 251.0789,648.8395 220.8149,674.0255 " fill="none" id="gateway-to-drc" style="stroke:#181818;stroke-width:1.0;"/><polygon fill="#181818" points="216.203,677.8635,225.6795,675.181,220.0462,674.6651,220.5621,669.0318,216.203,677.8635" style="stroke:#181818;stroke-width:1.0;"/></g><!--link gateway to orc--><g id="link_gateway_orc"><path d="M750.06,547.0745 C719.734,558.8575 683.14,574.5075 652,591.9375 C606.218,617.5635 562.4071,650.7512 533.3441,674.1052 " fill="none" id="gateway-to-orc" style="stroke:#181818;stroke-width:1.0;"/><polygon fill="#181818" points="528.667,677.8635,538.1882,675.3441,532.5646,674.7316,533.1771,669.108,528.667,677.8635" style="stroke:#181818;stroke-width:1.0;"/></g><!--link gateway to nc--><g id="link_gateway_nc"><path d="M897.539,545.6735 C938.831,554.8885 989.235,564.9795 1035,570.9375 C1037.61,571.2765 1410.57,590.9275 1413,591.9375 C1456.99,610.2355 1491.7131,647.1873 1512.6031,673.0863 " fill="none" id="gateway-to-nc" style="stroke:#181818;stroke-width:1.0;"/><polygon fill="#181818" points="1516.37,677.7565,1513.8331,668.24,1513.2309,673.8647,1507.6062,673.2626,1516.37,677.7565" style="stroke:#181818;stroke-width:1.0;"/></g><!--link gateway to ac--><g id="link_gateway_ac"><path d="M807.694,547.1015 C801.172,580.6715 790.0023,638.1616 783.4693,671.7876 " fill="none" id="gateway-to-ac" style="stroke:#181818;stroke-width:1.0;"/><polygon fill="#181818" points="782.325,677.6775,787.968,669.6056,783.2786,672.7693,780.1149,668.0798,782.325,677.6775" style="stroke:#181818;stroke-width:1.0;"/></g><!--link nc to WaardepapierenService--><g id="link_nc_WaardepapierenService"><path d="M1532.61,677.7705 C1531.34,634.5985 1525.93,536.5825 1503,457.9375 C1494.46,428.6605 1481.4061,402.567 1470.0061,382.251 " fill="none" id="nc-to-WaardepapierenService" style="stroke:#181818;stroke-width:1.0;"/><polygon fill="#181818" points="1467.07,377.0185,1467.9859,386.8247,1469.5168,381.3789,1474.9625,382.9098,1467.07,377.0185" style="stroke:#181818;stroke-width:1.0;"/><text fill="#000000" font-family="sans-serif" font-size="13" lengthAdjust="spacing" textLength="189" x="1525" y="528.5044">Notificeerd bij status wijziging</text></g><!--link nc to omc--><g id="link_nc_omc"><path d="M1515.15,677.8605 C1493.66,652.8665 1455.16,612.9085 1413,591.9375 C1368.83,569.9655 1335.41,608.9795 1304,570.9375 C1280.12,542.0215 1292.7021,432.3903 1299.7221,383.2123 " fill="none" id="nc-to-omc" style="stroke:#181818;stroke-width:1.0;"/><polygon fill="#181818" points="1300.57,377.2725,1295.3383,385.6169,1299.8634,382.2223,1303.258,386.7474,1300.57,377.2725" style="stroke:#181818;stroke-width:1.0;"/><text fill="#000000" font-family="sans-serif" font-size="13" lengthAdjust="spacing" textLength="189" x="1305" y="528.5044">Notificeerd bij status wijziging</text></g><!--link omc to notify.nl--><g id="link_omc_notify.nl"><path d="M1287.32,376.9475 C1273.45,393.3945 1252.12,414.7265 1228,424.9375 C1213.55,431.0555 1097.78,421.5315 1087,432.9375 C1065.63,455.5505 1077.0346,491.8356 1084.1746,509.3466 " fill="none" id="omc-to-notify.nl" style="stroke:#181818;stroke-width:1.0;"/><polygon fill="#181818" points="1086.44,514.9025,1086.7459,505.0584,1084.5522,510.2726,1079.338,508.0789,1086.44,514.9025" style="stroke:#181818;stroke-width:1.0;"/><text fill="#000000" font-family="sans-serif" font-size="13" lengthAdjust="spacing" textLength="189" x="1088" y="446.0044">Notificeerd bij status wijziging</text></g><!--link ztc to ztcDB--><g id="link_ztc_ztcDB"><path d="M1299.16,724.2495 C1296.07,761.8675 1290.3414,831.4637 1287.2814,868.7037 " fill="none" id="ztc-to-ztcDB" style="stroke:#181818;stroke-width:1.0;"/><polygon fill="#181818" points="1286.79,874.6835,1291.5136,866.0413,1287.1995,869.7003,1283.5405,865.3862,1286.79,874.6835" style="stroke:#181818;stroke-width:1.0;"/></g><!--link zrc to zrcDB--><g id="link_zrc_zrcDB"><path d="M1046.31,724.2495 C1045.15,761.8675 1043.0052,831.4464 1041.8552,868.6864 " fill="none" id="zrc-to-zrcDB" style="stroke:#181818;stroke-width:1.0;"/><polygon fill="#181818" points="1041.67,874.6835,1045.9459,865.8113,1041.8243,869.6859,1037.9497,865.5643,1041.67,874.6835" style="stroke:#181818;stroke-width:1.0;"/></g><!--link drc to drcDB--><g id="link_drc_drcDB"><path d="M194.9,724.2495 C201.476,761.8675 213.6538,831.5331 220.1638,868.7731 " fill="none" id="drc-to-drcDB" style="stroke:#181818;stroke-width:1.0;"/><polygon fill="#181818" points="221.197,874.6835,223.5874,865.1291,220.336,869.7582,215.7069,866.5067,221.197,874.6835" style="stroke:#181818;stroke-width:1.0;"/></g><!--link orc to orcDB--><g id="link_orc_orcDB"><path d="M504.753,724.2495 C509.395,761.8675 517.9862,831.4887 522.5812,868.7287 " fill="none" id="orc-to-orcDB" style="stroke:#181818;stroke-width:1.0;"/><polygon fill="#181818" points="523.316,874.6835,526.1838,865.2614,522.7037,869.7211,518.244,866.2411,523.316,874.6835" style="stroke:#181818;stroke-width:1.0;"/></g><!--link nc to ncDB--><g id="link_nc_ncDB"><path d="M1530.02,724.2495 C1524.99,761.8675 1515.6853,831.4964 1510.7053,868.7364 " fill="none" id="nc-to-ncDB" style="stroke:#181818;stroke-width:1.0;"/><polygon fill="#181818" points="1509.91,874.6835,1515.0676,866.2931,1510.5727,869.7276,1507.1382,865.2327,1509.91,874.6835" style="stroke:#181818;stroke-width:1.0;"/></g><!--link ac to acDB--><g id="link_ac_acDB"><path d="M779.032,724.2495 C780.773,761.8675 783.9927,831.4499 785.7157,868.6899 " fill="none" id="ac-to-acDB" style="stroke:#181818;stroke-width:1.0;"/><polygon fill="#181818" points="785.993,874.6835,789.5728,865.5082,785.7619,869.6888,781.5813,865.878,785.993,874.6835" style="stroke:#181818;stroke-width:1.0;"/></g><text fill="#888888" font-family="sans-serif" font-size="10" lengthAdjust="spacing" textLength="180" x="764" y="975.2197">Open Webconcept | Components</text><!--SRC=[ZPHDZzem48Rl-HMZdEXXM_NhieTAK5I4nBAePON4QW_66OBvi2FRAO9s_tkTn2QnawM8738pZoSpBvxHJE_n7XupvB305HMSOgQZjH0QPSiFV-6xE6I28zSgsY192gZXYgACq1r94U89EQ64hz1ZtAGYL3F1tyNmfoOMGYQPHANW0qmdC4J5KbuGyFp0jXoMP8Vy1O0eE1YxD9_6BZf0oUX6DucBgwRcVewvdsCcnPhXlevRHqrC6UP7LGELNSODc-JKV0tCCsJ8bLUCynZsrVn2ORv0Rv0hnL71HAIClYtDR9-dZAl_25DHjuZZarq2-KHBfANrNB3obioU1g5CBZwIPCtq2Nu8UR1QMbVfiNbUw_OV69K25ChVZABjV468J30Z6KFfAlPzlohUiE90Ay2yTAh_6NfZhYMcv78juTdSuuFWC28QZ-HK9KWheoF59-ZrPsF_RrkE5bMg9I4x-8afKrgQJs0z8rNQiwIMqlgK8L2YoLwakLNdh8lmKD3yO8vSIvIKYHvNMwHNEL5oKw7Pcj4kW1VnVgutGZBL1P1k9Jz2RsYANn657LeKlQJ7P5M8abWCulxRyiHEdk6WTIAGAdPI1UXrsM8dMt3gceInap0uqobdREKCs4vbOwkiOKjj6siExkw-jQOxM78E2KUxiUakQUP1cikcgp_aZtLpsrsOvbpxIwv4EgOw2deeEJTL7SMtulChP_sIM-56jLwiNQONZknBwIn6qREbRoU1BGAR-wQP8axBjyxTTG_sJY7A15Pi2qeJdIiuiksPcK9JTznijXjWGrLL5E3fFT_VS2OoBRlMpSKq3Rl6ZPLOgneWOQrgD6nbvTKdrBOx7Fm3]--></g></svg>