<?xml version="1.0" encoding="us-ascii" standalone="no"?><svg xmlns="http://www.w3.org/2000/svg" xmlns:xlink="http://www.w3.org/1999/xlink" contentStyleType="text/css" height="823px" preserveAspectRatio="none" style="width:1683px;height:823px;background:#FFFFFF;" version="1.1" viewBox="0 0 1683 823" width="1683px" zoomAndPan="magnify"><defs/><g><text fill="#888888" font-family="sans-serif" font-size="10" lengthAdjust="spacing" textLength="70" x="1599" y="9.2822">Components</text><text fill="#000000" font-family="sans-serif" font-size="14" font-weight="bold" lengthAdjust="spacing" textLength="145" x="762" y="35.6357">Open Webconcept</text><!--cluster Layer 5 (interaction)--><g id="cluster_Layer 5 (interaction)"><path d="M143.5,55.9375 L312.5,55.9375 A3.75,3.75 0 0 1 315,58.4375 L322,78.2344 L1221.5,78.2344 A2.5,2.5 0 0 1 1224,80.7344 L1224,217.4375 A2.5,2.5 0 0 1 1221.5,219.9375 L143.5,219.9375 A2.5,2.5 0 0 1 141,217.4375 L141,58.4375 A2.5,2.5 0 0 1 143.5,55.9375 " fill="none" style="stroke:#000000;stroke-width:1.5;"/><line style="stroke:#000000;stroke-width:1.5;" x1="141" x2="322" y1="78.2344" y2="78.2344"/><text fill="#000000" font-family="sans-serif" font-size="14" font-weight="bold" lengthAdjust="spacing" textLength="168" x="145" y="70.9326">Layer 5 (interaction)</text></g><!--cluster Wordpress / NL Design--><g id="cluster_Wordpress / NL Design"><path d="M167.5,98.9375 L348.5,98.9375 A3.75,3.75 0 0 1 351,101.4375 L358,121.2344 L1197.5,121.2344 A2.5,2.5 0 0 1 1200,123.7344 L1200,193.4375 A2.5,2.5 0 0 1 1197.5,195.9375 L167.5,195.9375 A2.5,2.5 0 0 1 165,193.4375 L165,101.4375 A2.5,2.5 0 0 1 167.5,98.9375 " fill="none" style="stroke:#000000;stroke-width:1.5;"/><line style="stroke:#000000;stroke-width:1.5;" x1="165" x2="358" y1="121.2344" y2="121.2344"/><text fill="#000000" font-family="sans-serif" font-size="14" font-weight="bold" lengthAdjust="spacing" textLength="180" x="169" y="113.9326">Wordpress / NL Design</text></g><!--cluster Layer 4 (Bussnes Logic)--><g id="cluster_Layer 4 (Bussnes Logic)"><path d="M221.5,243.9375 L414.5,243.9375 A3.75,3.75 0 0 1 417,246.4375 L424,266.2344 L1221.5,266.2344 A2.5,2.5 0 0 1 1224,268.7344 L1224,405.4375 A2.5,2.5 0 0 1 1221.5,407.9375 L221.5,407.9375 A2.5,2.5 0 0 1 219,405.4375 L219,246.4375 A2.5,2.5 0 0 1 221.5,243.9375 " fill="none" style="stroke:#000000;stroke-width:1.5;"/><line style="stroke:#000000;stroke-width:1.5;" x1="219" x2="424" y1="266.2344" y2="266.2344"/><text fill="#000000" font-family="sans-serif" font-size="14" font-weight="bold" lengthAdjust="spacing" textLength="192" x="223" y="258.9326">Layer 4 (Bussnes Logic)</text></g><!--cluster Wordpress / Plugins--><g id="cluster_Wordpress / Plugins"><path d="M245.5,286.9375 L406.5,286.9375 A3.75,3.75 0 0 1 409,289.4375 L416,309.2344 L1197.5,309.2344 A2.5,2.5 0 0 1 1200,311.7344 L1200,381.4375 A2.5,2.5 0 0 1 1197.5,383.9375 L245.5,383.9375 A2.5,2.5 0 0 1 243,381.4375 L243,289.4375 A2.5,2.5 0 0 1 245.5,286.9375 " fill="none" style="stroke:#000000;stroke-width:1.5;"/><line style="stroke:#000000;stroke-width:1.5;" x1="243" x2="416" y1="309.2344" y2="309.2344"/><text fill="#000000" font-family="sans-serif" font-size="14" font-weight="bold" lengthAdjust="spacing" textLength="160" x="247" y="301.9326">Wordpress / Plugins</text></g><!--cluster Layer 3 (Intregation)--><g id="cluster_Layer 3 (Intregation)"><path d="M616.5,431.9375 L786.5,431.9375 A3.75,3.75 0 0 1 789,434.4375 L796,454.2344 L815.5,454.2344 A2.5,2.5 0 0 1 818,456.7344 L818,526.4375 A2.5,2.5 0 0 1 815.5,528.9375 L616.5,528.9375 A2.5,2.5 0 0 1 614,526.4375 L614,434.4375 A2.5,2.5 0 0 1 616.5,431.9375 " fill="none" style="stroke:#000000;stroke-width:1.5;"/><line style="stroke:#000000;stroke-width:1.5;" x1="614" x2="796" y1="454.2344" y2="454.2344"/><text fill="#000000" font-family="sans-serif" font-size="14" font-weight="bold" lengthAdjust="spacing" textLength="169" x="618" y="446.9326">Layer 3 (Intregation)</text></g><!--cluster Layer 2 (API)--><g id="cluster_Layer 2 (API)"><path d="M8.5,552.9375 L112.5,552.9375 A3.75,3.75 0 0 1 115,555.4375 L122,575.2344 L1673.5,575.2344 A2.5,2.5 0 0 1 1676,577.7344 L1676,714.4375 A2.5,2.5 0 0 1 1673.5,716.9375 L8.5,716.9375 A2.5,2.5 0 0 1 6,714.4375 L6,555.4375 A2.5,2.5 0 0 1 8.5,552.9375 " fill="none" style="stroke:#000000;stroke-width:1.5;"/><line style="stroke:#000000;stroke-width:1.5;" x1="6" x2="122" y1="575.2344" y2="575.2344"/><text fill="#000000" font-family="sans-serif" font-size="14" font-weight="bold" lengthAdjust="spacing" textLength="103" x="10" y="567.9326">Layer 2 (API)</text></g><!--cluster ZGW--><g id="cluster_ZGW"><path d="M32.5,595.9375 L71.5,595.9375 A3.75,3.75 0 0 1 74,598.4375 L81,618.2344 L1649.5,618.2344 A2.5,2.5 0 0 1 1652,620.7344 L1652,690.4375 A2.5,2.5 0 0 1 1649.5,692.9375 L32.5,692.9375 A2.5,2.5 0 0 1 30,690.4375 L30,598.4375 A2.5,2.5 0 0 1 32.5,595.9375 " fill="none" style="stroke:#000000;stroke-width:1.5;"/><line style="stroke:#000000;stroke-width:1.5;" x1="30" x2="81" y1="618.2344" y2="618.2344"/><text fill="#000000" font-family="sans-serif" font-size="14" font-weight="bold" lengthAdjust="spacing" textLength="38" x="34" y="610.9326">ZGW</text></g><!--cluster Layer 1 (Database)--><g id="cluster_Layer 1 (Database)"><path d="M1285.5,55.9375 L1440.5,55.9375 A3.75,3.75 0 0 1 1443,58.4375 L1450,78.2344 L1578.5,78.2344 A2.5,2.5 0 0 1 1581,80.7344 L1581,217.4375 A2.5,2.5 0 0 1 1578.5,219.9375 L1285.5,219.9375 A2.5,2.5 0 0 1 1283,217.4375 L1283,58.4375 A2.5,2.5 0 0 1 1285.5,55.9375 " fill="none" style="stroke:#000000;stroke-width:1.5;"/><line style="stroke:#000000;stroke-width:1.5;" x1="1283" x2="1450" y1="78.2344" y2="78.2344"/><text fill="#000000" font-family="sans-serif" font-size="14" font-weight="bold" lengthAdjust="spacing" textLength="154" x="1287" y="70.9326">Layer 1 (Database)</text></g><!--cluster zgwdb--><g id="cluster_zgwdb"><path d="M1309.5,98.9375 L1348.5,98.9375 A3.75,3.75 0 0 1 1351,101.4375 L1358,121.2344 L1554.5,121.2344 A2.5,2.5 0 0 1 1557,123.7344 L1557,193.4375 A2.5,2.5 0 0 1 1554.5,195.9375 L1309.5,195.9375 A2.5,2.5 0 0 1 1307,193.4375 L1307,101.4375 A2.5,2.5 0 0 1 1309.5,98.9375 " fill="none" style="stroke:#000000;stroke-width:1.5;"/><line style="stroke:#000000;stroke-width:1.5;" x1="1307" x2="1358" y1="121.2344" y2="121.2344"/><text fill="#000000" font-family="sans-serif" font-size="14" font-weight="bold" lengthAdjust="spacing" textLength="38" x="1311" y="113.9326">ZGW</text></g><!--entity mijnZakenUI--><g id="elem_mijnZakenUI"><rect fill="#F1F1F1" height="46.2969" rx="2.5" ry="2.5" style="stroke:#181818;stroke-width:0.5;" width="118" x="1066" y="133.9375"/><rect fill="#F1F1F1" height="10" style="stroke:#181818;stroke-width:0.5;" width="15" x="1164" y="138.9375"/><rect fill="#F1F1F1" height="2" style="stroke:#181818;stroke-width:0.5;" width="4" x="1162" y="140.9375"/><rect fill="#F1F1F1" height="2" style="stroke:#181818;stroke-width:0.5;" width="4" x="1162" y="144.9375"/><text fill="#000000" font-family="sans-serif" font-size="14" lengthAdjust="spacing" textLength="78" x="1081" y="166.9326">Mijn Zaken</text></g><!--entity mijnBerichtenUI--><g id="elem_mijnBerichtenUI"><rect fill="#F1F1F1" height="46.2969" rx="2.5" ry="2.5" style="stroke:#181818;stroke-width:0.5;" width="144" x="887" y="133.9375"/><rect fill="#F1F1F1" height="10" style="stroke:#181818;stroke-width:0.5;" width="15" x="1011" y="138.9375"/><rect fill="#F1F1F1" height="2" style="stroke:#181818;stroke-width:0.5;" width="4" x="1009" y="140.9375"/><rect fill="#F1F1F1" height="2" style="stroke:#181818;stroke-width:0.5;" width="4" x="1009" y="144.9375"/><text fill="#000000" font-family="sans-serif" font-size="14" lengthAdjust="spacing" textLength="104" x="902" y="166.9326">Mijn Berichten</text></g><!--entity mijnTakenUI--><g id="elem_mijnTakenUI"><rect fill="#F1F1F1" height="46.2969" rx="2.5" ry="2.5" style="stroke:#181818;stroke-width:0.5;" width="117" x="734.5" y="133.9375"/><rect fill="#F1F1F1" height="10" style="stroke:#181818;stroke-width:0.5;" width="15" x="831.5" y="138.9375"/><rect fill="#F1F1F1" height="2" style="stroke:#181818;stroke-width:0.5;" width="4" x="829.5" y="140.9375"/><rect fill="#F1F1F1" height="2" style="stroke:#181818;stroke-width:0.5;" width="4" x="829.5" y="144.9375"/><text fill="#000000" font-family="sans-serif" font-size="14" lengthAdjust="spacing" textLength="77" x="749.5" y="166.9326">Mijn Taken</text></g><!--entity mijnProfielUI--><g id="elem_mijnProfielUI"><rect fill="#F1F1F1" height="46.2969" rx="2.5" ry="2.5" style="stroke:#181818;stroke-width:0.5;" width="120" x="579" y="133.9375"/><rect fill="#F1F1F1" height="10" style="stroke:#181818;stroke-width:0.5;" width="15" x="679" y="138.9375"/><rect fill="#F1F1F1" height="2" style="stroke:#181818;stroke-width:0.5;" width="4" x="677" y="140.9375"/><rect fill="#F1F1F1" height="2" style="stroke:#181818;stroke-width:0.5;" width="4" x="677" y="144.9375"/><text fill="#000000" font-family="sans-serif" font-size="14" lengthAdjust="spacing" textLength="80" x="594" y="166.9326">Mijn Profiel</text></g><!--entity mijnNieuwsUI--><g id="elem_mijnNieuwsUI"><rect fill="#F1F1F1" height="46.2969" rx="2.5" ry="2.5" style="stroke:#181818;stroke-width:0.5;" width="122" x="422" y="133.9375"/><rect fill="#F1F1F1" height="10" style="stroke:#181818;stroke-width:0.5;" width="15" x="524" y="138.9375"/><rect fill="#F1F1F1" height="2" style="stroke:#181818;stroke-width:0.5;" width="4" x="522" y="140.9375"/><rect fill="#F1F1F1" height="2" style="stroke:#181818;stroke-width:0.5;" width="4" x="522" y="144.9375"/><text fill="#000000" font-family="sans-serif" font-size="14" lengthAdjust="spacing" textLength="82" x="437" y="166.9326">Mijn Nieuws</text></g><!--entity mijnDienstenUI--><g id="elem_mijnDienstenUI"><rect fill="#F1F1F1" height="46.2969" rx="2.5" ry="2.5" style="stroke:#181818;stroke-width:0.5;" width="205" x="181.5" y="133.9375"/><rect fill="#F1F1F1" height="10" style="stroke:#181818;stroke-width:0.5;" width="15" x="366.5" y="138.9375"/><rect fill="#F1F1F1" height="2" style="stroke:#181818;stroke-width:0.5;" width="4" x="364.5" y="140.9375"/><rect fill="#F1F1F1" height="2" style="stroke:#181818;stroke-width:0.5;" width="4" x="364.5" y="144.9375"/><text fill="#000000" font-family="sans-serif" font-size="14" lengthAdjust="spacing" textLength="165" x="196.5" y="166.9326">Producten en Diensten</text></g><!--entity mijnZakenPlugin--><g id="elem_mijnZakenPlugin"><rect fill="#F1F1F1" height="46.2969" rx="2.5" ry="2.5" style="stroke:#181818;stroke-width:0.5;" width="118" x="1066" y="321.9375"/><rect fill="#F1F1F1" height="10" style="stroke:#181818;stroke-width:0.5;" width="15" x="1164" y="326.9375"/><rect fill="#F1F1F1" height="2" style="stroke:#181818;stroke-width:0.5;" width="4" x="1162" y="328.9375"/><rect fill="#F1F1F1" height="2" style="stroke:#181818;stroke-width:0.5;" width="4" x="1162" y="332.9375"/><text fill="#000000" font-family="sans-serif" font-size="14" lengthAdjust="spacing" textLength="78" x="1081" y="354.9326">Mijn Zaken</text></g><!--entity mijnBerichtenPlugin--><g id="elem_mijnBerichtenPlugin"><rect fill="#F1F1F1" height="46.2969" rx="2.5" ry="2.5" style="stroke:#181818;stroke-width:0.5;" width="144" x="887" y="321.9375"/><rect fill="#F1F1F1" height="10" style="stroke:#181818;stroke-width:0.5;" width="15" x="1011" y="326.9375"/><rect fill="#F1F1F1" height="2" style="stroke:#181818;stroke-width:0.5;" width="4" x="1009" y="328.9375"/><rect fill="#F1F1F1" height="2" style="stroke:#181818;stroke-width:0.5;" width="4" x="1009" y="332.9375"/><text fill="#000000" font-family="sans-serif" font-size="14" lengthAdjust="spacing" textLength="104" x="902" y="354.9326">Mijn Berichten</text></g><!--entity mijnTakenPlugin--><g id="elem_mijnTakenPlugin"><rect fill="#F1F1F1" height="46.2969" rx="2.5" ry="2.5" style="stroke:#181818;stroke-width:0.5;" width="117" x="734.5" y="321.9375"/><rect fill="#F1F1F1" height="10" style="stroke:#181818;stroke-width:0.5;" width="15" x="831.5" y="326.9375"/><rect fill="#F1F1F1" height="2" style="stroke:#181818;stroke-width:0.5;" width="4" x="829.5" y="328.9375"/><rect fill="#F1F1F1" height="2" style="stroke:#181818;stroke-width:0.5;" width="4" x="829.5" y="332.9375"/><text fill="#000000" font-family="sans-serif" font-size="14" lengthAdjust="spacing" textLength="77" x="749.5" y="354.9326">Mijn Taken</text></g><!--entity mijnZProfielPlugin--><g id="elem_mijnZProfielPlugin"><rect fill="#F1F1F1" height="46.2969" rx="2.5" ry="2.5" style="stroke:#181818;stroke-width:0.5;" width="120" x="579" y="321.9375"/><rect fill="#F1F1F1" height="10" style="stroke:#181818;stroke-width:0.5;" width="15" x="679" y="326.9375"/><rect fill="#F1F1F1" height="2" style="stroke:#181818;stroke-width:0.5;" width="4" x="677" y="328.9375"/><rect fill="#F1F1F1" height="2" style="stroke:#181818;stroke-width:0.5;" width="4" x="677" y="332.9375"/><text fill="#000000" font-family="sans-serif" font-size="14" lengthAdjust="spacing" textLength="80" x="594" y="354.9326">Mijn Profiel</text></g><!--entity mijnNieuwslugin--><g id="elem_mijnNieuwslugin"><rect fill="#F1F1F1" height="46.2969" rx="2.5" ry="2.5" style="stroke:#181818;stroke-width:0.5;" width="111" x="432.5" y="321.9375"/><rect fill="#F1F1F1" height="10" style="stroke:#181818;stroke-width:0.5;" width="15" x="523.5" y="326.9375"/><rect fill="#F1F1F1" height="2" style="stroke:#181818;stroke-width:0.5;" width="4" x="521.5" y="328.9375"/><rect fill="#F1F1F1" height="2" style="stroke:#181818;stroke-width:0.5;" width="4" x="521.5" y="332.9375"/><text fill="#000000" font-family="sans-serif" font-size="14" lengthAdjust="spacing" textLength="71" x="447.5" y="354.9326">Open PUB</text></g><!--entity GrafityFormsPlugin--><g id="elem_GrafityFormsPlugin"><rect fill="#F1F1F1" height="46.2969" rx="2.5" ry="2.5" style="stroke:#181818;stroke-width:0.5;" width="138" x="259" y="321.9375"/><rect fill="#F1F1F1" height="10" style="stroke:#181818;stroke-width:0.5;" width="15" x="377" y="326.9375"/><rect fill="#F1F1F1" height="2" style="stroke:#181818;stroke-width:0.5;" width="4" x="375" y="328.9375"/><rect fill="#F1F1F1" height="2" style="stroke:#181818;stroke-width:0.5;" width="4" x="375" y="332.9375"/><text fill="#000000" font-family="sans-serif" font-size="14" lengthAdjust="spacing" textLength="98" x="274" y="354.9326">Grafity Forms</text></g><!--entity gateway--><g id="elem_gateway"><rect fill="#F1F1F1" height="46.2969" rx="2.5" ry="2.5" style="stroke:#181818;stroke-width:0.5;" width="171" x="630.5" y="466.9375"/><rect fill="#F1F1F1" height="10" style="stroke:#181818;stroke-width:0.5;" width="15" x="781.5" y="471.9375"/><rect fill="#F1F1F1" height="2" style="stroke:#181818;stroke-width:0.5;" width="4" x="779.5" y="473.9375"/><rect fill="#F1F1F1" height="2" style="stroke:#181818;stroke-width:0.5;" width="4" x="779.5" y="477.9375"/><text fill="#000000" font-family="sans-serif" font-size="14" lengthAdjust="spacing" textLength="131" x="645.5" y="499.9326">Common Gateway</text></g><!--entity zrc--><g id="elem_zrc"><rect fill="#F1F1F1" height="46.2969" rx="2.5" ry="2.5" style="stroke:#181818;stroke-width:0.5;" width="249" x="46.5" y="630.9375"/><rect fill="#F1F1F1" height="10" style="stroke:#181818;stroke-width:0.5;" width="15" x="275.5" y="635.9375"/><rect fill="#F1F1F1" height="2" style="stroke:#181818;stroke-width:0.5;" width="4" x="273.5" y="637.9375"/><rect fill="#F1F1F1" height="2" style="stroke:#181818;stroke-width:0.5;" width="4" x="273.5" y="641.9375"/><text fill="#000000" font-family="sans-serif" font-size="14" lengthAdjust="spacing" textLength="209" x="61.5" y="663.9326">Zaak Registratie Component</text></g><!--entity ztc--><g id="elem_ztc"><rect fill="#F1F1F1" height="46.2969" rx="2.5" ry="2.5" style="stroke:#181818;stroke-width:0.5;" width="188" x="331" y="630.9375"/><rect fill="#F1F1F1" height="10" style="stroke:#181818;stroke-width:0.5;" width="15" x="499" y="635.9375"/><rect fill="#F1F1F1" height="2" style="stroke:#181818;stroke-width:0.5;" width="4" x="497" y="637.9375"/><rect fill="#F1F1F1" height="2" style="stroke:#181818;stroke-width:0.5;" width="4" x="497" y="641.9375"/><text fill="#000000" font-family="sans-serif" font-size="14" lengthAdjust="spacing" textLength="148" x="346" y="663.9326">Zaakttype catalogus</text></g><!--entity drc--><g id="elem_drc"><rect fill="#F1F1F1" height="46.2969" rx="2.5" ry="2.5" style="stroke:#181818;stroke-width:0.5;" width="289" x="554.5" y="630.9375"/><rect fill="#F1F1F1" height="10" style="stroke:#181818;stroke-width:0.5;" width="15" x="823.5" y="635.9375"/><rect fill="#F1F1F1" height="2" style="stroke:#181818;stroke-width:0.5;" width="4" x="821.5" y="637.9375"/><rect fill="#F1F1F1" height="2" style="stroke:#181818;stroke-width:0.5;" width="4" x="821.5" y="641.9375"/><text fill="#000000" font-family="sans-serif" font-size="14" lengthAdjust="spacing" textLength="249" x="569.5" y="663.9326">Document Registratie Component</text></g><!--entity orc--><g id="elem_orc"><rect fill="#F1F1F1" height="46.2969" rx="2.5" ry="2.5" style="stroke:#181818;stroke-width:0.5;" width="263" x="878.5" y="630.9375"/><rect fill="#F1F1F1" height="10" style="stroke:#181818;stroke-width:0.5;" width="15" x="1121.5" y="635.9375"/><rect fill="#F1F1F1" height="2" style="stroke:#181818;stroke-width:0.5;" width="4" x="1119.5" y="637.9375"/><rect fill="#F1F1F1" height="2" style="stroke:#181818;stroke-width:0.5;" width="4" x="1119.5" y="641.9375"/><text fill="#000000" font-family="sans-serif" font-size="14" lengthAdjust="spacing" textLength="223" x="893.5" y="663.9326">Object Registratie Component</text></g><!--entity nc--><g id="elem_nc"><rect fill="#F1F1F1" height="46.2969" rx="2.5" ry="2.5" style="stroke:#181818;stroke-width:0.5;" width="206" x="1177" y="630.9375"/><rect fill="#F1F1F1" height="10" style="stroke:#181818;stroke-width:0.5;" width="15" x="1363" y="635.9375"/><rect fill="#F1F1F1" height="2" style="stroke:#181818;stroke-width:0.5;" width="4" x="1361" y="637.9375"/><rect fill="#F1F1F1" height="2" style="stroke:#181818;stroke-width:0.5;" width="4" x="1361" y="641.9375"/><text fill="#000000" font-family="sans-serif" font-size="14" lengthAdjust="spacing" textLength="166" x="1192" y="663.9326">Notificatie Component</text></g><!--entity ac--><g id="elem_ac"><rect fill="#F1F1F1" height="46.2969" rx="2.5" ry="2.5" style="stroke:#181818;stroke-width:0.5;" width="218" x="1418" y="630.9375"/><rect fill="#F1F1F1" height="10" style="stroke:#181818;stroke-width:0.5;" width="15" x="1616" y="635.9375"/><rect fill="#F1F1F1" height="2" style="stroke:#181818;stroke-width:0.5;" width="4" x="1614" y="637.9375"/><rect fill="#F1F1F1" height="2" style="stroke:#181818;stroke-width:0.5;" width="4" x="1614" y="641.9375"/><text fill="#000000" font-family="sans-serif" font-size="14" lengthAdjust="spacing" textLength="178" x="1433" y="663.9326">Authorisatie Component</text></g><!--entity zrcDB--><g id="elem_zrcDB"><rect fill="#F1F1F1" height="46.2969" rx="2.5" ry="2.5" style="stroke:#181818;stroke-width:0.5;" width="218" x="1323" y="133.9375"/><rect fill="#F1F1F1" height="10" style="stroke:#181818;stroke-width:0.5;" width="15" x="1521" y="138.9375"/><rect fill="#F1F1F1" height="2" style="stroke:#181818;stroke-width:0.5;" width="4" x="1519" y="140.9375"/><rect fill="#F1F1F1" height="2" style="stroke:#181818;stroke-width:0.5;" width="4" x="1519" y="144.9375"/><text fill="#000000" font-family="sans-serif" font-size="14" lengthAdjust="spacing" textLength="178" x="1338" y="166.9326">Authorisatie Component</text></g><!--entity ztcDb--><g id="elem_ztcDb"><ellipse cx="425" cy="765.9375" fill="#F1F1F1" rx="8" ry="8" style="stroke:#181818;stroke-width:0.5;"/><text fill="#000000" font-family="sans-serif" font-size="14" lengthAdjust="spacing" textLength="44" x="403" y="795.9326">ztcDb</text></g><!--entity zrcDb--><g id="elem_zrcDb"><ellipse cx="171" cy="765.9375" fill="#F1F1F1" rx="8" ry="8" style="stroke:#181818;stroke-width:0.5;"/><text fill="#000000" font-family="sans-serif" font-size="14" lengthAdjust="spacing" textLength="43" x="149.5" y="795.9326">zrcDb</text></g><!--entity drcDb--><g id="elem_drcDb"><ellipse cx="699" cy="765.9375" fill="#F1F1F1" rx="8" ry="8" style="stroke:#181818;stroke-width:0.5;"/><text fill="#000000" font-family="sans-serif" font-size="14" lengthAdjust="spacing" textLength="44" x="677" y="795.9326">drcDb</text></g><!--entity orcDb--><g id="elem_orcDb"><ellipse cx="1010" cy="765.9375" fill="#F1F1F1" rx="8" ry="8" style="stroke:#181818;stroke-width:0.5;"/><text fill="#000000" font-family="sans-serif" font-size="14" lengthAdjust="spacing" textLength="44" x="988" y="795.9326">orcDb</text></g><!--entity ncDb--><g id="elem_ncDb"><ellipse cx="1280" cy="765.9375" fill="#F1F1F1" rx="8" ry="8" style="stroke:#181818;stroke-width:0.5;"/><text fill="#000000" font-family="sans-serif" font-size="14" lengthAdjust="spacing" textLength="38" x="1261" y="795.9326">ncDb</text></g><!--entity acDb--><g id="elem_acDb"><ellipse cx="1527" cy="765.9375" fill="#F1F1F1" rx="8" ry="8" style="stroke:#181818;stroke-width:0.5;"/><text fill="#000000" font-family="sans-serif" font-size="14" lengthAdjust="spacing" textLength="37" x="1508.5" y="795.9326">acDb</text></g><!--link mijnZakenUI to mijnZakenPlugin--><g id="link_mijnZakenUI_mijnZakenPlugin"><path d="M1125,180.0045 C1125,215.8015 1125,280.1205 1125,315.8995 " fill="none" id="mijnZakenUI-to-mijnZakenPlugin" style="stroke:#181818;stroke-width:1.0;"/><polygon fill="#181818" points="1125,321.8995,1129,312.8995,1125,316.8995,1121,312.8995,1125,321.8995" style="stroke:#181818;stroke-width:1.0;"/></g><!--link mijnBerichtenUI to mijnBerichtenPlugin--><g id="link_mijnBerichtenUI_mijnBerichtenPlugin"><path d="M959,180.0045 C959,215.8015 959,280.1205 959,315.8995 " fill="none" id="mijnBerichtenUI-to-mijnBerichtenPlugin" style="stroke:#181818;stroke-width:1.0;"/><polygon fill="#181818" points="959,321.8995,963,312.8995,959,316.8995,955,312.8995,959,321.8995" style="stroke:#181818;stroke-width:1.0;"/></g><!--link mijnTakenUI to mijnTakenPlugin--><g id="link_mijnTakenUI_mijnTakenPlugin"><path d="M793,180.0045 C793,215.8015 793,280.1205 793,315.8995 " fill="none" id="mijnTakenUI-to-mijnTakenPlugin" style="stroke:#181818;stroke-width:1.0;"/><polygon fill="#181818" points="793,321.8995,797,312.8995,793,316.8995,789,312.8995,793,321.8995" style="stroke:#181818;stroke-width:1.0;"/></g><!--link mijnProfielUI to mijnZProfielPlugin--><g id="link_mijnProfielUI_mijnZProfielPlugin"><path d="M639,180.0045 C639,215.8015 639,280.1205 639,315.8995 " fill="none" id="mijnProfielUI-to-mijnZProfielPlugin" style="stroke:#181818;stroke-width:1.0;"/><polygon fill="#181818" points="639,321.8995,643,312.8995,639,316.8995,635,312.8995,639,321.8995" style="stroke:#181818;stroke-width:1.0;"/></g><!--link mijnNieuwsUI to mijnNieuwslugin--><g id="link_mijnNieuwsUI_mijnNieuwslugin"><path d="M483.593,180.0045 C484.555,215.8015 486.2847,280.1227 487.2467,315.9017 " fill="none" id="mijnNieuwsUI-to-mijnNieuwslugin" style="stroke:#181818;stroke-width:1.0;"/><polygon fill="#181818" points="487.408,321.8995,491.1647,312.7952,487.2736,316.9013,483.1675,313.0103,487.408,321.8995" style="stroke:#181818;stroke-width:1.0;"/></g><!--link mijnDienstenUI to GrafityFormsPlugin--><g id="link_mijnDienstenUI_GrafityFormsPlugin"><path d="M289.22,180.0045 C297.688,215.8015 312.9417,280.2817 321.4057,316.0607 " fill="none" id="mijnDienstenUI-to-GrafityFormsPlugin" style="stroke:#181818;stroke-width:1.0;"/><polygon fill="#181818" points="322.787,321.8995,324.6077,312.2204,321.636,317.0338,316.8226,314.0621,322.787,321.8995" style="stroke:#181818;stroke-width:1.0;"/></g><!--link mijnZakenPlugin to gateway--><g id="link_mijnZakenPlugin_gateway"><path d="M1106.65,368.2195 C1092.51,383.9225 1071.59,404.1735 1049,415.9375 C971.044,456.5285 877.4389,473.908 807.5649,481.92 " fill="none" id="mijnZakenPlugin-to-gateway" style="stroke:#181818;stroke-width:1.0;"/><polygon fill="#181818" points="801.604,482.6035,811.0011,485.5522,806.5715,482.0339,810.0897,477.6043,801.604,482.6035" style="stroke:#181818;stroke-width:1.0;"/></g><!--link mijnBerichtenPlugin to gateway--><g id="link_mijnBerichtenPlugin_gateway"><path d="M933.697,368.0175 C916.228,382.6455 892.075,401.6915 869,415.9375 C837.321,435.4955 805.0807,451.1282 775.0147,464.3892 " fill="none" id="mijnBerichtenPlugin-to-gateway" style="stroke:#181818;stroke-width:1.0;"/><polygon fill="#181818" points="769.525,466.8105,779.3738,466.8383,774.0998,464.7927,776.1454,459.5187,769.525,466.8105" style="stroke:#181818;stroke-width:1.0;"/></g><!--link mijnTakenPlugin to gateway--><g id="link_mijnTakenPlugin_gateway"><path d="M781.137,367.9675 C766.71,394.7615 745.3387,434.4527 730.8477,461.3637 " fill="none" id="mijnTakenPlugin-to-gateway" style="stroke:#181818;stroke-width:1.0;"/><polygon fill="#181818" points="728.003,466.6465,735.7919,460.6188,730.3736,462.2442,728.7481,456.8259,728.003,466.6465" style="stroke:#181818;stroke-width:1.0;"/></g><!--link mijnZProfielPlugin to gateway--><g id="link_mijnZProfielPlugin_gateway"><path d="M650.863,367.9675 C665.29,394.7615 686.6613,434.4527 701.1523,461.3637 " fill="none" id="mijnZProfielPlugin-to-gateway" style="stroke:#181818;stroke-width:1.0;"/><polygon fill="#181818" points="703.997,466.6465,703.2519,456.8259,701.6264,462.2442,696.2081,460.6188,703.997,466.6465" style="stroke:#181818;stroke-width:1.0;"/></g><!--link mijnNieuwslugin to gateway--><g id="link_mijnNieuwslugin_gateway"><path d="M507.504,368.0945 C521.38,382.9415 541.033,402.2095 561,415.9375 C591.026,436.5805 622.2802,451.8494 652.4762,464.5944 " fill="none" id="mijnNieuwslugin-to-gateway" style="stroke:#181818;stroke-width:1.0;"/><polygon fill="#181818" points="658.004,466.9275,651.2677,459.7426,653.3975,464.9832,648.1569,467.113,658.004,466.9275" style="stroke:#181818;stroke-width:1.0;"/></g><!--link GrafityFormsPlugin to gateway--><g id="link_GrafityFormsPlugin_gateway"><path d="M349.701,367.9805 C366.238,383.5655 390.305,403.7725 415,415.9375 C483.254,449.5615 562.0929,467.3609 624.2599,477.4119 " fill="none" id="GrafityFormsPlugin-to-gateway" style="stroke:#181818;stroke-width:1.0;"/><polygon fill="#181818" points="630.183,478.3695,621.9368,472.9843,625.2471,477.5715,620.66,480.8818,630.183,478.3695" style="stroke:#181818;stroke-width:1.0;"/></g><!--link gateway to ztc--><g id="link_gateway_ztc"><path d="M630.163,507.9995 C599.448,516.3415 565.425,528.2785 537,544.9375 C498.314,567.6095 466.5388,601.6733 446.2838,626.0683 " fill="none" id="gateway-to-ztc" style="stroke:#181818;stroke-width:1.0;"/><polygon fill="#181818" points="442.451,630.6845,451.2777,626.3154,445.645,626.8376,445.1227,621.205,442.451,630.6845" style="stroke:#181818;stroke-width:1.0;"/></g><!--link gateway to zrc--><g id="link_gateway_zrc"><path d="M630.224,497.2595 C529.384,505.5905 368.702,521.9295 313,544.9375 C264.621,564.9215 222.5258,601.3956 196.5838,626.7276 " fill="none" id="gateway-to-zrc" style="stroke:#181818;stroke-width:1.0;"/><polygon fill="#181818" points="192.291,630.9195,201.5248,627.4936,195.8683,627.4263,195.9356,621.7698,192.291,630.9195" style="stroke:#181818;stroke-width:1.0;"/></g><!--link gateway to drc--><g id="link_gateway_drc"><path d="M713.672,513.1235 C710.425,544.0595 705.1992,593.8613 701.9532,624.7933 " fill="none" id="gateway-to-drc" style="stroke:#181818;stroke-width:1.0;"/><polygon fill="#181818" points="701.327,630.7605,706.2445,622.2271,701.8488,625.7878,698.2881,621.3922,701.327,630.7605" style="stroke:#181818;stroke-width:1.0;"/></g><!--link gateway to orc--><g id="link_gateway_orc"><path d="M787.004,513.0485 C811.107,521.6775 837.795,532.5055 861,544.9375 C907.326,569.7575 951.0138,603.4515 979.6318,627.0995 " fill="none" id="gateway-to-orc" style="stroke:#181818;stroke-width:1.0;"/><polygon fill="#181818" points="984.257,630.9215,979.8672,622.1051,980.4027,627.7365,974.7712,628.272,984.257,630.9215" style="stroke:#181818;stroke-width:1.0;"/></g><!--link gateway to nc--><g id="link_gateway_nc"><path d="M801.962,495.3105 C912.374,501.9715 1097.15,516.9455 1159,544.9375 C1202.35,564.5585 1237.3388,600.748 1258.7388,626.201 " fill="none" id="gateway-to-nc" style="stroke:#181818;stroke-width:1.0;"/><polygon fill="#181818" points="1262.6,630.7935,1259.8698,621.3306,1259.3823,626.9664,1253.7465,626.4789,1262.6,630.7935" style="stroke:#181818;stroke-width:1.0;"/></g><!--link gateway to ac--><g id="link_gateway_ac"><path d="M801.648,491.1245 C960.64,492.5455 1294.89,500.8685 1401,544.9375 C1446.23,563.7235 1483.025,600.6474 1505.285,626.3844 " fill="none" id="gateway-to-ac" style="stroke:#181818;stroke-width:1.0;"/><polygon fill="#181818" points="1509.21,630.9225,1506.3479,621.4987,1505.9392,627.1408,1500.2971,626.732,1509.21,630.9225" style="stroke:#181818;stroke-width:1.0;"/></g><!--link ztc to ztcDb--><g id="link_ztc_ztcDb"><path d="M425,677.1975 C425,701.8066 425,734.1646 425,750.7931 " fill="none" id="ztc-to-ztcDb" style="stroke:#181818;stroke-width:1.0;"/><polygon fill="#181818" points="425,756.7931,429,747.7931,425,751.7931,421,747.7931,425,756.7931" style="stroke:#181818;stroke-width:1.0;"/></g><!--link zrc to zrcDb--><g id="link_zrc_zrcDb"><path d="M171,677.1975 C171,701.8066 171,734.1646 171,750.7931 " fill="none" id="zrc-to-zrcDb" style="stroke:#181818;stroke-width:1.0;"/><polygon fill="#181818" points="171,756.7931,175,747.7931,171,751.7931,167,747.7931,171,756.7931" style="stroke:#181818;stroke-width:1.0;"/></g><!--link drc to drcDb--><g id="link_drc_drcDb"><path d="M699,677.1975 C699,701.8066 699,734.1646 699,750.7931 " fill="none" id="drc-to-drcDb" style="stroke:#181818;stroke-width:1.0;"/><polygon fill="#181818" points="699,756.7931,703,747.7931,699,751.7931,695,747.7931,699,756.7931" style="stroke:#181818;stroke-width:1.0;"/></g><!--link orc to orcDb--><g id="link_orc_orcDb"><path d="M1010,677.1975 C1010,701.8066 1010,734.1646 1010,750.7931 " fill="none" id="orc-to-orcDb" style="stroke:#181818;stroke-width:1.0;"/><polygon fill="#181818" points="1010,756.7931,1014,747.7931,1010,751.7931,1006,747.7931,1010,756.7931" style="stroke:#181818;stroke-width:1.0;"/></g><!--link nc to ncDb--><g id="link_nc_ncDb"><path d="M1280,677.1975 C1280,701.8066 1280,734.1646 1280,750.7931 " fill="none" id="nc-to-ncDb" style="stroke:#181818;stroke-width:1.0;"/><polygon fill="#181818" points="1280,756.7931,1284,747.7931,1280,751.7931,1276,747.7931,1280,756.7931" style="stroke:#181818;stroke-width:1.0;"/></g><!--link ac to acDb--><g id="link_ac_acDb"><path d="M1527,677.1975 C1527,701.8066 1527,734.1646 1527,750.7931 " fill="none" id="ac-to-acDb" style="stroke:#181818;stroke-width:1.0;"/><polygon fill="#181818" points="1527,756.7931,1531,747.7931,1527,751.7931,1523,747.7931,1527,756.7931" style="stroke:#181818;stroke-width:1.0;"/></g><text fill="#888888" font-family="sans-serif" font-size="10" lengthAdjust="spacing" textLength="180" x="744.5" y="812.7148">Open Webconcept | Components</text><!--SRC=[hPHFZvim4CNlV8hHdjB3gkg_Im-LDaMD8gNPgCegKbOz63CXtWGRsKPHjkrthp4sOA3i7gham9lvyMoUFDPCd_4pt1V8OOS95PnYeQE341hbe0w_uQl82y6HQnKTaQGLr2b5KK7eYMG8DojoHGcVOCQuiI9KCy7VtC2lbjW9cHOIbOAti5v1Z8fbl2BWyJjxuh0d9-G_0OY2t6Wh7vQ-EqV9w55tYQRKKjlGOnjwRAGuC3otVLTeYJN3yg9QeDQsRzYqf6OrCF-O8LV1Pdp5i7_Chn_CHvZDIwKuAbY9ZD5_HxCvbndZweLWQkeruOJaM40XCGXfxoeDPa_9vc7UZydt5v8ScBx2Do5pbwKhsOhp6Klf0yoMN4lCI7DyuD6SjrnmM12D5tAj_R9QZ5YyXzdTPXd6kr_iQgiz8IVuWHbJMfebi3tBjUspf8xI-beWKAB9MMIb-ufdNRLZGSlSl39bb5gZ- -G9wIGdBBSMcXqO7GDurRyhzL58fiO0GaUJV0Ups6m-8Gf7igY-9RkaoMj3YUV_9nPlzN8mdfo8nYDJwTIC3QXpfy3jxPV1AFLk58_qvwXphJGssvvDSwsq2uKprBrQ6gOxHE6DOf6H4Ofwts0vFneZcn_qjnFlXbiUj3kx3Nh3RGRjo3tOOdLm0Yr3dVQqw6aUIZCAaR7qrd4I6KDlR5JgL6gLS4fOnQbpDC-4Ehiu-Gi0]--></g></svg>