<?xml version="1.0" encoding="us-ascii" standalone="no"?><svg xmlns="http://www.w3.org/2000/svg" xmlns:xlink="http://www.w3.org/1999/xlink" contentStyleType="text/css" height="997px" preserveAspectRatio="none" style="width:2271px;height:997px;background:#FFFFFF;" version="1.1" viewBox="0 0 2271 997" width="2271px" zoomAndPan="magnify"><defs/><g><text fill="#888888" font-family="sans-serif" font-size="10" lengthAdjust="spacing" textLength="70" x="2187" y="9.2822">Components</text><text fill="#000000" font-family="sans-serif" font-size="14" font-weight="bold" lengthAdjust="spacing" textLength="145" x="1056" y="35.6357">Open Webconcept</text><!--cluster Layer 5 (interaction)--><g id="cluster_Layer 5 (interaction)"><path d="M523.5,55.9375 L692.5,55.9375 A3.75,3.75 0 0 1 695,58.4375 L702,78.2344 L1601.5,78.2344 A2.5,2.5 0 0 1 1604,80.7344 L1604,217.4375 A2.5,2.5 0 0 1 1601.5,219.9375 L523.5,219.9375 A2.5,2.5 0 0 1 521,217.4375 L521,58.4375 A2.5,2.5 0 0 1 523.5,55.9375 " fill="none" style="stroke:#000000;stroke-width:1.5;"/><line style="stroke:#000000;stroke-width:1.5;" x1="521" x2="702" y1="78.2344" y2="78.2344"/><text fill="#000000" font-family="sans-serif" font-size="14" font-weight="bold" lengthAdjust="spacing" textLength="168" x="525" y="70.9326">Layer 5 (interaction)</text></g><!--cluster Wordpress / NL Design--><g id="cluster_Wordpress / NL Design"><path d="M547.5,98.9375 L728.5,98.9375 A3.75,3.75 0 0 1 731,101.4375 L738,121.2344 L1577.5,121.2344 A2.5,2.5 0 0 1 1580,123.7344 L1580,193.4375 A2.5,2.5 0 0 1 1577.5,195.9375 L547.5,195.9375 A2.5,2.5 0 0 1 545,193.4375 L545,101.4375 A2.5,2.5 0 0 1 547.5,98.9375 " fill="none" style="stroke:#000000;stroke-width:1.5;"/><line style="stroke:#000000;stroke-width:1.5;" x1="545" x2="738" y1="121.2344" y2="121.2344"/><text fill="#000000" font-family="sans-serif" font-size="14" font-weight="bold" lengthAdjust="spacing" textLength="180" x="549" y="113.9326">Wordpress / NL Design</text></g><!--cluster Layer 4 (Bussnes Logic)--><g id="cluster_Layer 4 (Bussnes Logic)"><path d="M8.5,252.9375 L201.5,252.9375 A3.75,3.75 0 0 1 204,255.4375 L211,275.2344 L1523.5,275.2344 A2.5,2.5 0 0 1 1526,277.7344 L1526,560.4375 A2.5,2.5 0 0 1 1523.5,562.9375 L8.5,562.9375 A2.5,2.5 0 0 1 6,560.4375 L6,255.4375 A2.5,2.5 0 0 1 8.5,252.9375 " fill="none" style="stroke:#000000;stroke-width:1.5;"/><line style="stroke:#000000;stroke-width:1.5;" x1="6" x2="211" y1="275.2344" y2="275.2344"/><text fill="#000000" font-family="sans-serif" font-size="14" font-weight="bold" lengthAdjust="spacing" textLength="192" x="10" y="267.9326">Layer 4 (Bussnes Logic)</text></g><!--cluster Wordpress / Plugins--><g id="cluster_Wordpress / Plugins"><path d="M547.5,295.9375 L708.5,295.9375 A3.75,3.75 0 0 1 711,298.4375 L718,318.2344 L1499.5,318.2344 A2.5,2.5 0 0 1 1502,320.7344 L1502,390.4375 A2.5,2.5 0 0 1 1499.5,392.9375 L547.5,392.9375 A2.5,2.5 0 0 1 545,390.4375 L545,298.4375 A2.5,2.5 0 0 1 547.5,295.9375 " fill="none" style="stroke:#000000;stroke-width:1.5;"/><line style="stroke:#000000;stroke-width:1.5;" x1="545" x2="718" y1="318.2344" y2="318.2344"/><text fill="#000000" font-family="sans-serif" font-size="14" font-weight="bold" lengthAdjust="spacing" textLength="160" x="549" y="310.9326">Wordpress / Plugins</text></g><!--cluster (Micro) services--><g id="cluster_(Micro) services"><path d="M61.5,441.9375 L191.5,441.9375 A3.75,3.75 0 0 1 194,444.4375 L201,464.2344 L354.5,464.2344 A2.5,2.5 0 0 1 357,466.7344 L357,536.4375 A2.5,2.5 0 0 1 354.5,538.9375 L61.5,538.9375 A2.5,2.5 0 0 1 59,536.4375 L59,444.4375 A2.5,2.5 0 0 1 61.5,441.9375 " fill="none" style="stroke:#000000;stroke-width:1.5;"/><line style="stroke:#000000;stroke-width:1.5;" x1="59" x2="201" y1="464.2344" y2="464.2344"/><text fill="#000000" font-family="sans-serif" font-size="14" font-weight="bold" lengthAdjust="spacing" textLength="129" x="63" y="456.9326">(Micro) services</text></g><!--cluster (ZGW) services--><g id="cluster_(ZGW) services"><path d="M32.5,295.9375 L155.5,295.9375 A3.75,3.75 0 0 1 158,298.4375 L165,318.2344 L518.5,318.2344 A2.5,2.5 0 0 1 521,320.7344 L521,390.4375 A2.5,2.5 0 0 1 518.5,392.9375 L32.5,392.9375 A2.5,2.5 0 0 1 30,390.4375 L30,298.4375 A2.5,2.5 0 0 1 32.5,295.9375 " fill="none" style="stroke:#000000;stroke-width:1.5;"/><line style="stroke:#000000;stroke-width:1.5;" x1="30" x2="165" y1="318.2344" y2="318.2344"/><text fill="#000000" font-family="sans-serif" font-size="14" font-weight="bold" lengthAdjust="spacing" textLength="122" x="34" y="310.9326">(ZGW) services</text></g><!--cluster Layer 3 (Intregation)--><g id="cluster_Layer 3 (Intregation)"><path d="M1552.5,441.9375 L1722.5,441.9375 A3.75,3.75 0 0 1 1725,444.4375 L1732,464.2344 L1751.5,464.2344 A2.5,2.5 0 0 1 1754,466.7344 L1754,536.4375 A2.5,2.5 0 0 1 1751.5,538.9375 L1552.5,538.9375 A2.5,2.5 0 0 1 1550,536.4375 L1550,444.4375 A2.5,2.5 0 0 1 1552.5,441.9375 " fill="none" style="stroke:#000000;stroke-width:1.5;"/><line style="stroke:#000000;stroke-width:1.5;" x1="1550" x2="1732" y1="464.2344" y2="464.2344"/><text fill="#000000" font-family="sans-serif" font-size="14" font-weight="bold" lengthAdjust="spacing" textLength="169" x="1554" y="456.9326">Layer 3 (Intregation)</text></g><!--cluster Layer 2 (API)--><g id="cluster_Layer 2 (API)"><path d="M1091.5,611.9375 L1195.5,611.9375 A3.75,3.75 0 0 1 1198,614.4375 L1205,634.2344 L2261.5,634.2344 A2.5,2.5 0 0 1 2264,636.7344 L2264,773.4375 A2.5,2.5 0 0 1 2261.5,775.9375 L1091.5,775.9375 A2.5,2.5 0 0 1 1089,773.4375 L1089,614.4375 A2.5,2.5 0 0 1 1091.5,611.9375 " fill="none" style="stroke:#000000;stroke-width:1.5;"/><line style="stroke:#000000;stroke-width:1.5;" x1="1089" x2="1205" y1="634.2344" y2="634.2344"/><text fill="#000000" font-family="sans-serif" font-size="14" font-weight="bold" lengthAdjust="spacing" textLength="103" x="1093" y="626.9326">Layer 2 (API)</text></g><!--cluster ZGW--><g id="cluster_ZGW"><path d="M1115.5,654.9375 L1154.5,654.9375 A3.75,3.75 0 0 1 1157,657.4375 L1164,677.2344 L2237.5,677.2344 A2.5,2.5 0 0 1 2240,679.7344 L2240,749.4375 A2.5,2.5 0 0 1 2237.5,751.9375 L1115.5,751.9375 A2.5,2.5 0 0 1 1113,749.4375 L1113,657.4375 A2.5,2.5 0 0 1 1115.5,654.9375 " fill="none" style="stroke:#000000;stroke-width:1.5;"/><line style="stroke:#000000;stroke-width:1.5;" x1="1113" x2="1164" y1="677.2344" y2="677.2344"/><text fill="#000000" font-family="sans-serif" font-size="14" font-weight="bold" lengthAdjust="spacing" textLength="38" x="1117" y="669.9326">ZGW</text></g><!--cluster Layer 1 (Database)--><g id="cluster_Layer 1 (Database)"><path d="M1133.5,808.9375 L1288.5,808.9375 A3.75,3.75 0 0 1 1291,811.4375 L1298,831.2344 L2223.5,831.2344 A2.5,2.5 0 0 1 2226,833.7344 L2226,969.4375 A2.5,2.5 0 0 1 2223.5,971.9375 L1133.5,971.9375 A2.5,2.5 0 0 1 1131,969.4375 L1131,811.4375 A2.5,2.5 0 0 1 1133.5,808.9375 " fill="none" style="stroke:#000000;stroke-width:1.5;"/><line style="stroke:#000000;stroke-width:1.5;" x1="1131" x2="1298" y1="831.2344" y2="831.2344"/><text fill="#000000" font-family="sans-serif" font-size="14" font-weight="bold" lengthAdjust="spacing" textLength="154" x="1135" y="823.9326">Layer 1 (Database)</text></g><!--cluster zgwdb--><g id="cluster_zgwdb"><path d="M1157.5,851.9375 L1196.5,851.9375 A3.75,3.75 0 0 1 1199,854.4375 L1206,874.2344 L2199.5,874.2344 A2.5,2.5 0 0 1 2202,876.7344 L2202,945.4375 A2.5,2.5 0 0 1 2199.5,947.9375 L1157.5,947.9375 A2.5,2.5 0 0 1 1155,945.4375 L1155,854.4375 A2.5,2.5 0 0 1 1157.5,851.9375 " fill="none" style="stroke:#000000;stroke-width:1.5;"/><line style="stroke:#000000;stroke-width:1.5;" x1="1155" x2="1206" y1="874.2344" y2="874.2344"/><text fill="#000000" font-family="sans-serif" font-size="14" font-weight="bold" lengthAdjust="spacing" textLength="38" x="1159" y="866.9326">ZGW</text></g><!--entity mijnZakenUI--><g id="elem_mijnZakenUI"><rect fill="#F1F1F1" height="46.2969" rx="2.5" ry="2.5" style="stroke:#181818;stroke-width:0.5;" width="118" x="561" y="133.9375"/><rect fill="#F1F1F1" height="10" style="stroke:#181818;stroke-width:0.5;" width="15" x="659" y="138.9375"/><rect fill="#F1F1F1" height="2" style="stroke:#181818;stroke-width:0.5;" width="4" x="657" y="140.9375"/><rect fill="#F1F1F1" height="2" style="stroke:#181818;stroke-width:0.5;" width="4" x="657" y="144.9375"/><text fill="#000000" font-family="sans-serif" font-size="14" lengthAdjust="spacing" textLength="78" x="576" y="166.9326">Mijn Zaken</text></g><!--entity mijnBerichtenUI--><g id="elem_mijnBerichtenUI"><rect fill="#F1F1F1" height="46.2969" rx="2.5" ry="2.5" style="stroke:#181818;stroke-width:0.5;" width="144" x="714" y="133.9375"/><rect fill="#F1F1F1" height="10" style="stroke:#181818;stroke-width:0.5;" width="15" x="838" y="138.9375"/><rect fill="#F1F1F1" height="2" style="stroke:#181818;stroke-width:0.5;" width="4" x="836" y="140.9375"/><rect fill="#F1F1F1" height="2" style="stroke:#181818;stroke-width:0.5;" width="4" x="836" y="144.9375"/><text fill="#000000" font-family="sans-serif" font-size="14" lengthAdjust="spacing" textLength="104" x="729" y="166.9326">Mijn Berichten</text></g><!--entity mijnTakenUI--><g id="elem_mijnTakenUI"><rect fill="#F1F1F1" height="46.2969" rx="2.5" ry="2.5" style="stroke:#181818;stroke-width:0.5;" width="117" x="893.5" y="133.9375"/><rect fill="#F1F1F1" height="10" style="stroke:#181818;stroke-width:0.5;" width="15" x="990.5" y="138.9375"/><rect fill="#F1F1F1" height="2" style="stroke:#181818;stroke-width:0.5;" width="4" x="988.5" y="140.9375"/><rect fill="#F1F1F1" height="2" style="stroke:#181818;stroke-width:0.5;" width="4" x="988.5" y="144.9375"/><text fill="#000000" font-family="sans-serif" font-size="14" lengthAdjust="spacing" textLength="77" x="908.5" y="166.9326">Mijn Taken</text></g><!--entity mijnProfielUI--><g id="elem_mijnProfielUI"><rect fill="#F1F1F1" height="46.2969" rx="2.5" ry="2.5" style="stroke:#181818;stroke-width:0.5;" width="120" x="1046" y="133.9375"/><rect fill="#F1F1F1" height="10" style="stroke:#181818;stroke-width:0.5;" width="15" x="1146" y="138.9375"/><rect fill="#F1F1F1" height="2" style="stroke:#181818;stroke-width:0.5;" width="4" x="1144" y="140.9375"/><rect fill="#F1F1F1" height="2" style="stroke:#181818;stroke-width:0.5;" width="4" x="1144" y="144.9375"/><text fill="#000000" font-family="sans-serif" font-size="14" lengthAdjust="spacing" textLength="80" x="1061" y="166.9326">Mijn Profiel</text></g><!--entity mijnNieuwsUI--><g id="elem_mijnNieuwsUI"><rect fill="#F1F1F1" height="46.2969" rx="2.5" ry="2.5" style="stroke:#181818;stroke-width:0.5;" width="122" x="1201" y="133.9375"/><rect fill="#F1F1F1" height="10" style="stroke:#181818;stroke-width:0.5;" width="15" x="1303" y="138.9375"/><rect fill="#F1F1F1" height="2" style="stroke:#181818;stroke-width:0.5;" width="4" x="1301" y="140.9375"/><rect fill="#F1F1F1" height="2" style="stroke:#181818;stroke-width:0.5;" width="4" x="1301" y="144.9375"/><text fill="#000000" font-family="sans-serif" font-size="14" lengthAdjust="spacing" textLength="82" x="1216" y="166.9326">Mijn Nieuws</text></g><!--entity mijnDienstenUI--><g id="elem_mijnDienstenUI"><rect fill="#F1F1F1" height="46.2969" rx="2.5" ry="2.5" style="stroke:#181818;stroke-width:0.5;" width="205" x="1358.5" y="133.9375"/><rect fill="#F1F1F1" height="10" style="stroke:#181818;stroke-width:0.5;" width="15" x="1543.5" y="138.9375"/><rect fill="#F1F1F1" height="2" style="stroke:#181818;stroke-width:0.5;" width="4" x="1541.5" y="140.9375"/><rect fill="#F1F1F1" height="2" style="stroke:#181818;stroke-width:0.5;" width="4" x="1541.5" y="144.9375"/><text fill="#000000" font-family="sans-serif" font-size="14" lengthAdjust="spacing" textLength="165" x="1373.5" y="166.9326">Producten en Diensten</text></g><!--entity mijnZakenPlugin--><g id="elem_mijnZakenPlugin"><rect fill="#F1F1F1" height="46.2969" rx="2.5" ry="2.5" style="stroke:#181818;stroke-width:0.5;" width="118" x="561" y="330.9375"/><rect fill="#F1F1F1" height="10" style="stroke:#181818;stroke-width:0.5;" width="15" x="659" y="335.9375"/><rect fill="#F1F1F1" height="2" style="stroke:#181818;stroke-width:0.5;" width="4" x="657" y="337.9375"/><rect fill="#F1F1F1" height="2" style="stroke:#181818;stroke-width:0.5;" width="4" x="657" y="341.9375"/><text fill="#000000" font-family="sans-serif" font-size="14" lengthAdjust="spacing" textLength="78" x="576" y="363.9326">Mijn Zaken</text></g><!--entity mijnBerichtenPlugin--><g id="elem_mijnBerichtenPlugin"><rect fill="#F1F1F1" height="46.2969" rx="2.5" ry="2.5" style="stroke:#181818;stroke-width:0.5;" width="144" x="714" y="330.9375"/><rect fill="#F1F1F1" height="10" style="stroke:#181818;stroke-width:0.5;" width="15" x="838" y="335.9375"/><rect fill="#F1F1F1" height="2" style="stroke:#181818;stroke-width:0.5;" width="4" x="836" y="337.9375"/><rect fill="#F1F1F1" height="2" style="stroke:#181818;stroke-width:0.5;" width="4" x="836" y="341.9375"/><text fill="#000000" font-family="sans-serif" font-size="14" lengthAdjust="spacing" textLength="104" x="729" y="363.9326">Mijn Berichten</text></g><!--entity mijnTakenPlugin--><g id="elem_mijnTakenPlugin"><rect fill="#F1F1F1" height="46.2969" rx="2.5" ry="2.5" style="stroke:#181818;stroke-width:0.5;" width="117" x="893.5" y="330.9375"/><rect fill="#F1F1F1" height="10" style="stroke:#181818;stroke-width:0.5;" width="15" x="990.5" y="335.9375"/><rect fill="#F1F1F1" height="2" style="stroke:#181818;stroke-width:0.5;" width="4" x="988.5" y="337.9375"/><rect fill="#F1F1F1" height="2" style="stroke:#181818;stroke-width:0.5;" width="4" x="988.5" y="341.9375"/><text fill="#000000" font-family="sans-serif" font-size="14" lengthAdjust="spacing" textLength="77" x="908.5" y="363.9326">Mijn Taken</text></g><!--entity mijnZProfielPlugin--><g id="elem_mijnZProfielPlugin"><rect fill="#F1F1F1" height="46.2969" rx="2.5" ry="2.5" style="stroke:#181818;stroke-width:0.5;" width="120" x="1046" y="330.9375"/><rect fill="#F1F1F1" height="10" style="stroke:#181818;stroke-width:0.5;" width="15" x="1146" y="335.9375"/><rect fill="#F1F1F1" height="2" style="stroke:#181818;stroke-width:0.5;" width="4" x="1144" y="337.9375"/><rect fill="#F1F1F1" height="2" style="stroke:#181818;stroke-width:0.5;" width="4" x="1144" y="341.9375"/><text fill="#000000" font-family="sans-serif" font-size="14" lengthAdjust="spacing" textLength="80" x="1061" y="363.9326">Mijn Profiel</text></g><!--entity mijnNieuwslugin--><g id="elem_mijnNieuwslugin"><rect fill="#F1F1F1" height="46.2969" rx="2.5" ry="2.5" style="stroke:#181818;stroke-width:0.5;" width="111" x="1201.5" y="330.9375"/><rect fill="#F1F1F1" height="10" style="stroke:#181818;stroke-width:0.5;" width="15" x="1292.5" y="335.9375"/><rect fill="#F1F1F1" height="2" style="stroke:#181818;stroke-width:0.5;" width="4" x="1290.5" y="337.9375"/><rect fill="#F1F1F1" height="2" style="stroke:#181818;stroke-width:0.5;" width="4" x="1290.5" y="341.9375"/><text fill="#000000" font-family="sans-serif" font-size="14" lengthAdjust="spacing" textLength="71" x="1216.5" y="363.9326">Open PUB</text></g><!--entity GrafityFormsPlugin--><g id="elem_GrafityFormsPlugin"><rect fill="#F1F1F1" height="46.2969" rx="2.5" ry="2.5" style="stroke:#181818;stroke-width:0.5;" width="138" x="1348" y="330.9375"/><rect fill="#F1F1F1" height="10" style="stroke:#181818;stroke-width:0.5;" width="15" x="1466" y="335.9375"/><rect fill="#F1F1F1" height="2" style="stroke:#181818;stroke-width:0.5;" width="4" x="1464" y="337.9375"/><rect fill="#F1F1F1" height="2" style="stroke:#181818;stroke-width:0.5;" width="4" x="1464" y="341.9375"/><text fill="#000000" font-family="sans-serif" font-size="14" lengthAdjust="spacing" textLength="98" x="1363" y="363.9326">Grafity Forms</text></g><!--entity WaardepapierenService--><g id="elem_WaardepapierenService"><rect fill="#F1F1F1" height="46.2969" rx="2.5" ry="2.5" style="stroke:#181818;stroke-width:0.5;" width="159" x="75.5" y="476.9375"/><rect fill="#F1F1F1" height="10" style="stroke:#181818;stroke-width:0.5;" width="15" x="214.5" y="481.9375"/><rect fill="#F1F1F1" height="2" style="stroke:#181818;stroke-width:0.5;" width="4" x="212.5" y="483.9375"/><rect fill="#F1F1F1" height="2" style="stroke:#181818;stroke-width:0.5;" width="4" x="212.5" y="487.9375"/><text fill="#000000" font-family="sans-serif" font-size="14" lengthAdjust="spacing" textLength="119" x="90.5" y="509.9326">Waardepapieren</text></g><!--entity omc--><g id="elem_omc"><rect fill="#F1F1F1" height="46.2969" rx="2.5" ry="2.5" style="stroke:#181818;stroke-width:0.5;" width="71" x="269.5" y="476.9375"/><rect fill="#F1F1F1" height="10" style="stroke:#181818;stroke-width:0.5;" width="15" x="320.5" y="481.9375"/><rect fill="#F1F1F1" height="2" style="stroke:#181818;stroke-width:0.5;" width="4" x="318.5" y="483.9375"/><rect fill="#F1F1F1" height="2" style="stroke:#181818;stroke-width:0.5;" width="4" x="318.5" y="487.9375"/><text fill="#000000" font-family="sans-serif" font-size="14" lengthAdjust="spacing" textLength="31" x="284.5" y="509.9326">omc</text></g><!--entity nc--><g id="elem_nc"><rect fill="#F1F1F1" height="46.2969" rx="2.5" ry="2.5" style="stroke:#181818;stroke-width:0.5;" width="206" x="46" y="330.9375"/><rect fill="#F1F1F1" height="10" style="stroke:#181818;stroke-width:0.5;" width="15" x="232" y="335.9375"/><rect fill="#F1F1F1" height="2" style="stroke:#181818;stroke-width:0.5;" width="4" x="230" y="337.9375"/><rect fill="#F1F1F1" height="2" style="stroke:#181818;stroke-width:0.5;" width="4" x="230" y="341.9375"/><text fill="#000000" font-family="sans-serif" font-size="14" lengthAdjust="spacing" textLength="166" x="61" y="363.9326">Notificatie Component</text></g><!--entity ac--><g id="elem_ac"><rect fill="#F1F1F1" height="46.2969" rx="2.5" ry="2.5" style="stroke:#181818;stroke-width:0.5;" width="218" x="287" y="330.9375"/><rect fill="#F1F1F1" height="10" style="stroke:#181818;stroke-width:0.5;" width="15" x="485" y="335.9375"/><rect fill="#F1F1F1" height="2" style="stroke:#181818;stroke-width:0.5;" width="4" x="483" y="337.9375"/><rect fill="#F1F1F1" height="2" style="stroke:#181818;stroke-width:0.5;" width="4" x="483" y="341.9375"/><text fill="#000000" font-family="sans-serif" font-size="14" lengthAdjust="spacing" textLength="178" x="302" y="363.9326">Authorisatie Component</text></g><!--entity gateway--><g id="elem_gateway"><rect fill="#F1F1F1" height="46.2969" rx="2.5" ry="2.5" style="stroke:#181818;stroke-width:0.5;" width="171" x="1566.5" y="476.9375"/><rect fill="#F1F1F1" height="10" style="stroke:#181818;stroke-width:0.5;" width="15" x="1717.5" y="481.9375"/><rect fill="#F1F1F1" height="2" style="stroke:#181818;stroke-width:0.5;" width="4" x="1715.5" y="483.9375"/><rect fill="#F1F1F1" height="2" style="stroke:#181818;stroke-width:0.5;" width="4" x="1715.5" y="487.9375"/><text fill="#000000" font-family="sans-serif" font-size="14" lengthAdjust="spacing" textLength="131" x="1581.5" y="509.9326">Common Gateway</text></g><!--entity zrc--><g id="elem_zrc"><rect fill="#F1F1F1" height="46.2969" rx="2.5" ry="2.5" style="stroke:#181818;stroke-width:0.5;" width="249" x="1974.5" y="689.9375"/><rect fill="#F1F1F1" height="10" style="stroke:#181818;stroke-width:0.5;" width="15" x="2203.5" y="694.9375"/><rect fill="#F1F1F1" height="2" style="stroke:#181818;stroke-width:0.5;" width="4" x="2201.5" y="696.9375"/><rect fill="#F1F1F1" height="2" style="stroke:#181818;stroke-width:0.5;" width="4" x="2201.5" y="700.9375"/><text fill="#000000" font-family="sans-serif" font-size="14" lengthAdjust="spacing" textLength="209" x="1989.5" y="722.9326">Zaak Registratie Component</text></g><!--entity ztc--><g id="elem_ztc"><rect fill="#F1F1F1" height="46.2969" rx="2.5" ry="2.5" style="stroke:#181818;stroke-width:0.5;" width="188" x="1129" y="689.9375"/><rect fill="#F1F1F1" height="10" style="stroke:#181818;stroke-width:0.5;" width="15" x="1297" y="694.9375"/><rect fill="#F1F1F1" height="2" style="stroke:#181818;stroke-width:0.5;" width="4" x="1295" y="696.9375"/><rect fill="#F1F1F1" height="2" style="stroke:#181818;stroke-width:0.5;" width="4" x="1295" y="700.9375"/><text fill="#000000" font-family="sans-serif" font-size="14" lengthAdjust="spacing" textLength="148" x="1144" y="722.9326">Zaakttype catalogus</text></g><!--entity drc--><g id="elem_drc"><rect fill="#F1F1F1" height="46.2969" rx="2.5" ry="2.5" style="stroke:#181818;stroke-width:0.5;" width="289" x="1352.5" y="689.9375"/><rect fill="#F1F1F1" height="10" style="stroke:#181818;stroke-width:0.5;" width="15" x="1621.5" y="694.9375"/><rect fill="#F1F1F1" height="2" style="stroke:#181818;stroke-width:0.5;" width="4" x="1619.5" y="696.9375"/><rect fill="#F1F1F1" height="2" style="stroke:#181818;stroke-width:0.5;" width="4" x="1619.5" y="700.9375"/><text fill="#000000" font-family="sans-serif" font-size="14" lengthAdjust="spacing" textLength="249" x="1367.5" y="722.9326">Document Registratie Component</text></g><!--entity orc--><g id="elem_orc"><rect fill="#F1F1F1" height="46.2969" rx="2.5" ry="2.5" style="stroke:#181818;stroke-width:0.5;" width="263" x="1676.5" y="689.9375"/><rect fill="#F1F1F1" height="10" style="stroke:#181818;stroke-width:0.5;" width="15" x="1919.5" y="694.9375"/><rect fill="#F1F1F1" height="2" style="stroke:#181818;stroke-width:0.5;" width="4" x="1917.5" y="696.9375"/><rect fill="#F1F1F1" height="2" style="stroke:#181818;stroke-width:0.5;" width="4" x="1917.5" y="700.9375"/><text fill="#000000" font-family="sans-serif" font-size="14" lengthAdjust="spacing" textLength="223" x="1691.5" y="722.9326">Object Registratie Component</text></g><!--entity zrcDB--><g id="elem_zrcDB"><path d="M1956.5,896.9375 C1956.5,886.9375 2071,886.9375 2071,886.9375 C2071,886.9375 2185.5,886.9375 2185.5,896.9375 L2185.5,922.2344 C2185.5,932.2344 2071,932.2344 2071,932.2344 C2071,932.2344 1956.5,932.2344 1956.5,922.2344 L1956.5,896.9375 " fill="#F1F1F1" style="stroke:#181818;stroke-width:0.5;"/><path d="M1956.5,896.9375 C1956.5,906.9375 2071,906.9375 2071,906.9375 C2071,906.9375 2185.5,906.9375 2185.5,896.9375 " fill="none" style="stroke:#181818;stroke-width:0.5;"/><text fill="#000000" font-family="sans-serif" font-size="14" lengthAdjust="spacing" textLength="209" x="1966.5" y="923.9326">Zaak Registratie Component</text></g><!--entity ztcDB--><g id="elem_ztcDB"><path d="M1171,896.9375 C1171,886.9375 1255,886.9375 1255,886.9375 C1255,886.9375 1339,886.9375 1339,896.9375 L1339,922.2344 C1339,932.2344 1255,932.2344 1255,932.2344 C1255,932.2344 1171,932.2344 1171,922.2344 L1171,896.9375 " fill="#F1F1F1" style="stroke:#181818;stroke-width:0.5;"/><path d="M1171,896.9375 C1171,906.9375 1255,906.9375 1255,906.9375 C1255,906.9375 1339,906.9375 1339,896.9375 " fill="none" style="stroke:#181818;stroke-width:0.5;"/><text fill="#000000" font-family="sans-serif" font-size="14" lengthAdjust="spacing" textLength="148" x="1181" y="923.9326">Zaakttype catalogus</text></g><!--entity drcDB--><g id="elem_drcDB"><path d="M1374.5,896.9375 C1374.5,886.9375 1509,886.9375 1509,886.9375 C1509,886.9375 1643.5,886.9375 1643.5,896.9375 L1643.5,922.2344 C1643.5,932.2344 1509,932.2344 1509,932.2344 C1509,932.2344 1374.5,932.2344 1374.5,922.2344 L1374.5,896.9375 " fill="#F1F1F1" style="stroke:#181818;stroke-width:0.5;"/><path d="M1374.5,896.9375 C1374.5,906.9375 1509,906.9375 1509,906.9375 C1509,906.9375 1643.5,906.9375 1643.5,896.9375 " fill="none" style="stroke:#181818;stroke-width:0.5;"/><text fill="#000000" font-family="sans-serif" font-size="14" lengthAdjust="spacing" textLength="249" x="1384.5" y="923.9326">Document Registratie Component</text></g><!--entity orcDB--><g id="elem_orcDB"><path d="M1678.5,896.9375 C1678.5,886.9375 1800,886.9375 1800,886.9375 C1800,886.9375 1921.5,886.9375 1921.5,896.9375 L1921.5,922.2344 C1921.5,932.2344 1800,932.2344 1800,932.2344 C1800,932.2344 1678.5,932.2344 1678.5,922.2344 L1678.5,896.9375 " fill="#F1F1F1" style="stroke:#181818;stroke-width:0.5;"/><path d="M1678.5,896.9375 C1678.5,906.9375 1800,906.9375 1800,906.9375 C1800,906.9375 1921.5,906.9375 1921.5,896.9375 " fill="none" style="stroke:#181818;stroke-width:0.5;"/><text fill="#000000" font-family="sans-serif" font-size="14" lengthAdjust="spacing" textLength="223" x="1688.5" y="923.9326">Object Registratie Component</text></g><!--entity notify.nl--><g id="elem_notify.nl"><ellipse cx="305" cy="712.9375" fill="#F1F1F1" rx="8" ry="8" style="stroke:#181818;stroke-width:0.5;"/><text fill="#000000" font-family="sans-serif" font-size="14" lengthAdjust="spacing" textLength="61" x="274.5" y="742.9326">notify.nl</text></g><!--link mijnZakenUI to mijnZakenPlugin--><g id="link_mijnZakenUI_mijnZakenPlugin"><path d="M620,180.3065 C620,217.9215 620,287.3905 620,324.8295 " fill="none" id="mijnZakenUI-to-mijnZakenPlugin" style="stroke:#181818;stroke-width:1.0;"/><polygon fill="#181818" points="620,330.8295,624,321.8295,620,325.8295,616,321.8295,620,330.8295" style="stroke:#181818;stroke-width:1.0;"/></g><!--link mijnBerichtenUI to mijnBerichtenPlugin--><g id="link_mijnBerichtenUI_mijnBerichtenPlugin"><path d="M786,180.3065 C786,217.9215 786,287.3905 786,324.8295 " fill="none" id="mijnBerichtenUI-to-mijnBerichtenPlugin" style="stroke:#181818;stroke-width:1.0;"/><polygon fill="#181818" points="786,330.8295,790,321.8295,786,325.8295,782,321.8295,786,330.8295" style="stroke:#181818;stroke-width:1.0;"/></g><!--link mijnTakenUI to mijnTakenPlugin--><g id="link_mijnTakenUI_mijnTakenPlugin"><path d="M952,180.3065 C952,217.9215 952,287.3905 952,324.8295 " fill="none" id="mijnTakenUI-to-mijnTakenPlugin" style="stroke:#181818;stroke-width:1.0;"/><polygon fill="#181818" points="952,330.8295,956,321.8295,952,325.8295,948,321.8295,952,330.8295" style="stroke:#181818;stroke-width:1.0;"/></g><!--link mijnProfielUI to mijnZProfielPlugin--><g id="link_mijnProfielUI_mijnZProfielPlugin"><path d="M1106,180.3065 C1106,217.9215 1106,287.3905 1106,324.8295 " fill="none" id="mijnProfielUI-to-mijnZProfielPlugin" style="stroke:#181818;stroke-width:1.0;"/><polygon fill="#181818" points="1106,330.8295,1110,321.8295,1106,325.8295,1102,321.8295,1106,330.8295" style="stroke:#181818;stroke-width:1.0;"/></g><!--link mijnNieuwsUI to mijnNieuwslugin--><g id="link_mijnNieuwsUI_mijnNieuwslugin"><path d="M1261.43,180.3065 C1260.46,217.9215 1258.6838,287.3925 1257.7238,324.8315 " fill="none" id="mijnNieuwsUI-to-mijnNieuwslugin" style="stroke:#181818;stroke-width:1.0;"/><polygon fill="#181818" points="1257.57,330.8295,1261.7994,321.935,1257.6982,325.8311,1253.802,321.7299,1257.57,330.8295" style="stroke:#181818;stroke-width:1.0;"/></g><!--link mijnDienstenUI to GrafityFormsPlugin--><g id="link_mijnDienstenUI_GrafityFormsPlugin"><path d="M1455.95,180.3065 C1447.47,217.9215 1431.761,287.5377 1423.311,324.9767 " fill="none" id="mijnDienstenUI-to-GrafityFormsPlugin" style="stroke:#181818;stroke-width:1.0;"/><polygon fill="#181818" points="1421.99,330.8295,1427.8733,322.931,1423.0908,325.9522,1420.0696,321.1697,1421.99,330.8295" style="stroke:#181818;stroke-width:1.0;"/></g><!--link mijnZakenPlugin to gateway--><g id="link_mijnZakenPlugin_gateway"><path d="M649.96,377.0905 C663.39,385.9315 679.827,395.3255 696,400.9375 C781.047,430.4495 807.523,416.0495 897,425.9375 C1139.48,452.7345 1420.4036,478.4429 1560.4636,490.9009 " fill="none" id="mijnZakenPlugin-to-gateway" style="stroke:#181818;stroke-width:1.0;"/><polygon fill="#181818" points="1566.44,491.4325,1557.8298,486.6508,1561.4597,490.9895,1557.121,494.6194,1566.44,491.4325" style="stroke:#181818;stroke-width:1.0;"/></g><!--link mijnBerichtenPlugin to gateway--><g id="link_mijnBerichtenPlugin_gateway"><path d="M822.472,377.0755 C838.392,385.8035 857.597,395.1155 876,400.9375 C951.747,424.9015 974.231,415.5755 1053,425.9375 C1235.55,449.9505 1443.8105,474.7022 1560.1705,488.2972 " fill="none" id="mijnBerichtenPlugin-to-gateway" style="stroke:#181818;stroke-width:1.0;"/><polygon fill="#181818" points="1566.13,488.9935,1557.655,483.9761,1561.1638,488.4133,1556.7266,491.9221,1566.13,488.9935" style="stroke:#181818;stroke-width:1.0;"/></g><!--link mijnTakenPlugin to gateway--><g id="link_mijnTakenPlugin_gateway"><path d="M982.412,377.0805 C995.79,385.8085 1012.06,395.1195 1028,400.9375 C1212.26,468.2045 1437.6887,488.9916 1560.3987,495.6056 " fill="none" id="mijnTakenPlugin-to-gateway" style="stroke:#181818;stroke-width:1.0;"/><polygon fill="#181818" points="1566.39,495.9285,1557.6183,491.4499,1561.3972,495.6594,1557.1878,499.4383,1566.39,495.9285" style="stroke:#181818;stroke-width:1.0;"/></g><!--link mijnZProfielPlugin to gateway--><g id="link_mijnZProfielPlugin_gateway"><path d="M1138.19,377.1335 C1151.81,385.6585 1168.17,394.8035 1184,400.9375 C1312.3,450.6455 1464.7002,476.2933 1560.4002,488.7453 " fill="none" id="mijnZProfielPlugin-to-gateway" style="stroke:#181818;stroke-width:1.0;"/><polygon fill="#181818" points="1566.35,489.5195,1557.9413,484.3917,1561.3918,488.8744,1556.9091,492.3248,1566.35,489.5195" style="stroke:#181818;stroke-width:1.0;"/></g><!--link mijnNieuwslugin to gateway--><g id="link_mijnNieuwslugin_gateway"><path d="M1288.41,376.9805 C1301.2,385.2815 1316.4,394.3075 1331,400.9375 C1407.8,435.8095 1494.5531,461.1065 1560.5131,477.7865 " fill="none" id="mijnNieuwslugin-to-gateway" style="stroke:#181818;stroke-width:1.0;"/><polygon fill="#181818" points="1566.33,479.2575,1558.5853,473.1731,1561.4826,478.0317,1556.624,480.929,1566.33,479.2575" style="stroke:#181818;stroke-width:1.0;"/></g><!--link GrafityFormsPlugin to gateway--><g id="link_GrafityFormsPlugin_gateway"><path d="M1452.95,376.9645 C1497.18,404.0675 1566.714,446.6768 1610.944,473.7778 " fill="none" id="GrafityFormsPlugin-to-gateway" style="stroke:#181818;stroke-width:1.0;"/><polygon fill="#181818" points="1616.06,476.9125,1610.4758,468.7997,1611.7967,474.3002,1606.2962,475.6211,1616.06,476.9125" style="stroke:#181818;stroke-width:1.0;"/></g><!--link gateway to ztc--><g id="link_gateway_ztc"><path d="M1566.49,517.6385 C1500.04,533.1585 1407.31,560.5245 1335,603.9375 C1296.56,627.0175 1264.735,660.9788 1244.395,685.2378 " fill="none" id="gateway-to-ztc" style="stroke:#181818;stroke-width:1.0;"/><polygon fill="#181818" points="1240.54,689.8355,1249.3876,685.5089,1243.7525,686.0041,1243.2573,680.3689,1240.54,689.8355" style="stroke:#181818;stroke-width:1.0;"/></g><!--link gateway to zrc--><g id="link_gateway_zrc"><path d="M1737.54,521.7965 C1800.42,539.0125 1886.78,566.6655 1957,603.9375 C2002.14,627.8965 2043.5939,661.8521 2070.5539,685.7971 " fill="none" id="gateway-to-zrc" style="stroke:#181818;stroke-width:1.0;"/><polygon fill="#181818" points="2075.04,689.7815,2070.9672,680.8142,2071.3016,686.4612,2065.6547,686.7956,2075.04,689.7815" style="stroke:#181818;stroke-width:1.0;"/></g><!--link gateway to drc--><g id="link_gateway_drc"><path d="M1635.71,523.1195 C1605.94,563.6435 1546.6422,644.362 1516.8622,684.901 " fill="none" id="gateway-to-drc" style="stroke:#181818;stroke-width:1.0;"/><polygon fill="#181818" points="1513.31,689.7365,1521.8619,684.8514,1516.2701,685.7069,1515.4146,680.1151,1513.31,689.7365" style="stroke:#181818;stroke-width:1.0;"/></g><!--link gateway to orc--><g id="link_gateway_orc"><path d="M1668.4,523.1195 C1698.36,563.6435 1758.0424,644.3734 1788.0224,684.9124 " fill="none" id="gateway-to-orc" style="stroke:#181818;stroke-width:1.0;"/><polygon fill="#181818" points="1791.59,689.7365,1789.4547,680.1219,1788.617,685.7164,1783.0225,684.8787,1791.59,689.7365" style="stroke:#181818;stroke-width:1.0;"/></g><!--link gateway to nc--><g id="link_gateway_nc"><path d="M1566.49,495.8475 C1387.42,488.7455 960.08,468.5005 604,425.9375 C559.237,420.5865 548.851,413.4925 504,408.9375 C452.015,403.6585 320.21,411.3205 269,400.9375 C244.072,395.8835 223.0771,388.5408 201.3231,379.3628 " fill="none" id="gateway-to-nc" style="stroke:#181818;stroke-width:1.0;"/><polygon fill="#181818" points="195.795,377.0305,202.5323,384.2144,200.4018,378.9741,205.6421,376.8436,195.795,377.0305" style="stroke:#181818;stroke-width:1.0;"/></g><!--link gateway to ac--><g id="link_gateway_ac"><path d="M1566.38,494.4585 C1401.57,485.3485 1028.92,462.3835 717,425.9375 C668.301,420.2475 656.547,415.8045 608,408.9375 C580.053,404.9845 572.588,406.9005 545,400.9375 C516.289,394.7315 490.857,387.3755 464.506,378.8245 " fill="none" id="gateway-to-ac" style="stroke:#181818;stroke-width:1.0;"/><polygon fill="#181818" points="458.799,376.9725,466.1249,383.5551,463.5549,378.5158,468.5942,375.9457,458.799,376.9725" style="stroke:#181818;stroke-width:1.0;"/></g><!--link nc to WaardepapierenService--><g id="link_nc_WaardepapierenService"><path d="M119.616,377.1125 C105.978,390.2845 93.965,407.8995 100,425.9375 C106.444,445.1995 116.1714,458.9977 128.3104,472.4317 " fill="none" id="nc-to-WaardepapierenService" style="stroke:#181818;stroke-width:1.0;"/><polygon fill="#181818" points="132.333,476.8835,129.2669,467.5241,128.9808,473.1737,123.3312,472.8876,132.333,476.8835" style="stroke:#181818;stroke-width:1.0;"/><text fill="#000000" font-family="sans-serif" font-size="13" lengthAdjust="spacing" textLength="189" x="101" y="422.0044">Notificeerd bij status wijziging</text></g><!--link nc to omc--><g id="link_nc_omc"><path d="M204.275,377.0225 C224.526,384.8765 247.698,393.5865 269,400.9375 C280.429,404.8815 287.29,399.6245 295,408.9375 C310.539,427.7085 311.5575,450.7757 309.4455,470.7627 " fill="none" id="nc-to-omc" style="stroke:#181818;stroke-width:1.0;"/><polygon fill="#181818" points="308.815,476.7295,313.7386,468.1997,309.3404,471.7572,305.7829,467.359,308.815,476.7295" style="stroke:#181818;stroke-width:1.0;"/><text fill="#000000" font-family="sans-serif" font-size="13" lengthAdjust="spacing" textLength="189" x="306" y="422.0044">Notificeerd bij status wijziging</text></g><!--link omc to notify.nl--><g id="link_omc_notify.nl"><path d="M305,523.1195 C305,569.2515 305,667.7375 305,697.7405 " fill="none" id="omc-to-notify.nl" style="stroke:#181818;stroke-width:1.0;"/><polygon fill="#181818" points="305,703.7405,309,694.7405,305,698.7405,301,694.7405,305,703.7405" style="stroke:#181818;stroke-width:1.0;"/><text fill="#000000" font-family="sans-serif" font-size="13" lengthAdjust="spacing" textLength="189" x="306" y="592.0044">Notificeerd bij status wijziging</text></g><!--link ztc to ztcDB--><g id="link_ztc_ztcDB"><path d="M1226.67,736.2495 C1232.86,773.8675 1244.3155,843.5232 1250.4455,880.7632 " fill="none" id="ztc-to-ztcDB" style="stroke:#181818;stroke-width:1.0;"/><polygon fill="#181818" points="1251.42,886.6835,1253.9051,877.1533,1250.6079,881.7499,1246.0113,878.4527,1251.42,886.6835" style="stroke:#181818;stroke-width:1.0;"/></g><!--link zrc to zrcDB--><g id="link_zrc_zrcDB"><path d="M2095.79,736.2495 C2090.37,773.8675 2080.3448,843.5047 2074.9848,880.7447 " fill="none" id="zrc-to-zrcDB" style="stroke:#181818;stroke-width:1.0;"/><polygon fill="#181818" points="2074.13,886.6835,2079.3714,878.3452,2074.8423,881.7345,2071.453,877.2054,2074.13,886.6835" style="stroke:#181818;stroke-width:1.0;"/></g><!--link drc to drcDB--><g id="link_drc_drcDB"><path d="M1498.38,736.2495 C1500.7,773.8675 1504.9901,843.4549 1507.2901,880.6949 " fill="none" id="drc-to-drcDB" style="stroke:#181818;stroke-width:1.0;"/><polygon fill="#181818" points="1507.66,886.6835,1511.0976,877.454,1507.3518,881.693,1503.1128,877.9472,1507.66,886.6835" style="stroke:#181818;stroke-width:1.0;"/></g><!--link orc to orcDB--><g id="link_orc_orcDB"><path d="M1807.08,736.2495 C1805.54,773.8675 1802.6779,843.4486 1801.1379,880.6886 " fill="none" id="orc-to-orcDB" style="stroke:#181818;stroke-width:1.0;"/><polygon fill="#181818" points="1800.89,886.6835,1805.2584,877.8565,1801.0966,881.6878,1797.2653,877.5259,1800.89,886.6835" style="stroke:#181818;stroke-width:1.0;"/></g><text fill="#888888" font-family="sans-serif" font-size="10" lengthAdjust="spacing" textLength="180" x="1038.5" y="987.2197">Open Webconcept | Components</text><!--SRC=[ZPHDZzem48Rl-HKZJjd3jkhNPG-Lbg8Y99P5BIiaLZqOPmZcmuvifuXjzxztajWa3bcAo24pyynati4UA-mEx-0nGmbpN78bEMOsMYbbKP_vuIzyK_jCIPJMH6jaIG4rN56KCRvbAK9lp8weuGl4Gb8fngrGygO7VsfYhdIIQJG6tiDa30Cq8fK50SyFOYDXmROeVm4m0tkoI_DfvADzr8AlRPCukMfg5jQOXJMcMgq4xkguSzJ4H61-C3LGsMMSs2Jdz3MWPo1Gcg0Pxo7sbNxjmNo6k9yR8z70MAM2lpsQwIvFXJJ_6Kn5NJESaEmQK4YS3MdXF2UiF2NJftvxJ3u-r6mbx16-AxrtitIkqkFglDRoumV1jRe1W_gtuEYqpndJ2MOi4wXzpw7lPyKJg_Qy0kWbgBmOpjjr9ygAbU3C2gpFSfKjESNlSxjMMfWkWF7EV_SJn2DfDQRiTEpXcLBtIiAGMJomOvMVLaP7YOyGtqz7uR6WvgjI2yQsy0DJOQpkQkj5SqTPUymGI1pRgJHtqt-nHNYWUBwdb4k5ahBGutA3_2AdTFSWFa0ye6ylcS4EAKKhwI5P5feIXr7eJN4zBsxGRoUqTFQypf2yBBdd9OT9bzJtl7fAAVKtDXNStduzkw2jFUMHzkriBAjJcLchp6bPrHyARsPpOPsOvjKCzrI9T5pCgAMXvFp1xMZ-B3wxa1ksV1PkT1l4pjiCmf5xAPt5QGzi7Tf9orOjMuOcNNd9oxVEvNC7RfyWwWIMOWF6CfiRE8ZDYw16KvzEg-aAcAYgYm8ylfExAt8Yakobqy4amLuuMOcpgdEkd5KUuNy0]--></g></svg>