<?xml version="1.0" encoding="UTF-8"?>
<svg id="_ëîé_1" data-name="‘ëîé_1" xmlns="http://www.w3.org/2000/svg" viewBox="0 0 3200 2000">
  <defs>
    <style>
      .cls-1 {
        fill: #060633;
      }

      .cls-1, .cls-2, .cls-3, .cls-4, .cls-5, .cls-6, .cls-7, .cls-8, .cls-9, .cls-10, .cls-11, .cls-12, .cls-13, .cls-14, .cls-15, .cls-16, .cls-17, .cls-18, .cls-19, .cls-20, .cls-21 {
        stroke-width: 0px;
      }

      .cls-2 {
        fill: #ea6868;
      }

      .cls-3 {
        fill: #0b0755;
      }

      .cls-4 {
        fill: #dde7fe;
      }

      .cls-5 {
        fill: #272035;
      }

      .cls-6 {
        fill: #8d9eff;
      }

      .cls-7 {
        fill: #bdd1f9;
      }

      .cls-8 {
        fill: #2c3dd1;
      }

      .cls-9 {
        fill: #6170ff;
      }

      .cls-10 {
        fill: #fb9391;
      }

      .cls-11 {
        fill: #fff;
      }

      .cls-12 {
        fill: #f8fcff;
      }

      .cls-13 {
        fill: #5a6aff;
      }

      .cls-14 {
        fill: #91b5f8;
      }

      .cls-15 {
        fill: #1f1f89;
      }

      .cls-16 {
        fill: #131375;
      }

      .cls-17 {
        fill: #1abc9c;
      }

      .cls-18 {
        fill: #474fea;
      }

      .cls-19 {
        fill: #7c9af2;
      }

      .cls-20 {
        fill: #240d39;
      }

      .cls-21 {
        fill: #2f3dbc;
      }
    </style>
  </defs>
  <rect class="cls-12" width="3200" height="2000"/>
  <g>
    <path class="cls-4" d="m2817.75,1700.69c-75.94,35.67-977.73,75.13-1062.24,70.8l-1278.13-25.64c-236.23-201.58-434.75-812.1,100.04-1068.26,114.84-55.01,212.59-43.23,302.21-112.92,163.62-127.23,97.75-472.45,546.37-375.15,408.8,88.66,320.6-128.61,573.1-83.57,235.46,42,162.85,293.69,522.18,224.51,161.19-31.03,514.24-15.59,369.3,368.52-77.8,206.19-31.59,235.3,83.14,421.28,99.04,160.55,68.09,475.2-155.97,580.44Z"/>
    <ellipse class="cls-7" cx="1652.99" cy="1742.99" rx="1257.82" ry="111.86"/>
    <g>
      <path class="cls-7" d="m1099.83,1216.58c.19-.03.38-.07.57-.13,1.51-.52,2.31-2.17,1.79-3.68-136.6-395.04-257.54-672.93-340.56-782.49-1.84-2.43-3.18-4.19-3.69-5.09-.8-1.39-2.58-1.86-3.96-1.06-1.39.8-1.86,2.57-1.06,3.96.7,1.21,1.98,2.9,4.09,5.69,82.66,109.09,203.3,386.41,339.7,780.89.46,1.32,1.78,2.1,3.12,1.93Z"/>
      <path class="cls-7" d="m706.11,411.93c9.81,12.28,57.5,33.6,61.01,30.8,3.5-2.8-6.74-54.03-16.55-66.31-9.81-12.28-27.7-14.28-39.98-4.47-12.28,9.81-14.28,27.71-4.48,39.98Z"/>
      <path class="cls-7" d="m797.94,446.72c-3.99,15.57,7.96,67.67,12.41,68.8,4.44,1.14,39.99-38.78,43.98-54.35,3.99-15.57-5.39-31.43-20.96-35.42-15.57-3.99-31.43,5.39-35.42,20.96Z"/>
      <path class="cls-7" d="m745.96,540.8c16.07.38,64.13-22.99,64.24-27.58.11-4.59-46.79-30.23-62.86-30.61-16.07-.38-29.41,12.33-29.79,28.4-.38,16.07,12.33,29.41,28.4,29.79Z"/>
      <path class="cls-7" d="m946.11,706.19c-9.48,25.26,1.05,114.36,8.26,117.06,7.21,2.7,73.74-57.48,83.22-82.74,9.48-25.26-3.32-53.42-28.58-62.9-25.26-9.48-53.42,3.32-62.9,28.58Z"/>
      <path class="cls-7" d="m842.35,853.79c26.75,3.55,111.19-26.77,112.2-34.41,1.01-7.63-72.61-58.9-99.36-62.45-26.74-3.55-51.3,15.26-54.85,42.01-3.54,26.75,15.26,51.3,42.01,54.85Z"/>
      <path class="cls-7" d="m1020.28,803.34c-18.12,27.6-29.55,136.79-21.68,141.96,7.88,5.17,103.51-48.75,121.63-76.35,18.12-27.6,10.43-64.66-17.17-82.78-27.6-18.12-64.66-10.43-82.78,17.17Z"/>
      <path class="cls-7" d="m871.18,997.07c33,.95,131.97-46.59,132.24-56.01.27-9.42-95.8-62.56-128.8-63.51-33-.95-60.53,25.04-61.47,58.04-.95,33,25.04,60.53,58.04,61.47Z"/>
      <path class="cls-7" d="m1068.99,931.99c-18.12,27.6-29.55,136.79-21.67,141.96,7.88,5.17,103.51-48.75,121.63-76.36,18.12-27.6,10.43-64.66-17.17-82.78-27.6-18.12-64.66-10.43-82.78,17.17Z"/>
      <path class="cls-7" d="m919.88,1125.71c33,.95,131.97-46.59,132.24-56,.27-9.42-95.8-62.56-128.8-63.51-33-.95-60.53,25.04-61.47,58.04-.95,33,25.04,60.52,58.04,61.47Z"/>
      <path class="cls-7" d="m1170.78,1091.99c-27.26,18.62-79.43,115.22-74.11,123.01,5.31,7.78,114.28-5.65,141.54-24.27,27.27-18.62,34.27-55.81,15.65-83.08-18.62-27.26-55.82-34.27-83.08-15.65Z"/>
      <path class="cls-7" d="m963.52,1253.15c32.63,5.07,136.76-29.72,138.2-39.03,1.45-9.31-87.23-74.04-119.85-79.11-32.62-5.07-63.18,17.27-68.25,49.9-5.07,32.62,17.27,63.18,49.9,68.25Z"/>
      <path class="cls-7" d="m843.67,527.52c-4.06,15.82,8.09,68.75,12.61,69.91,4.52,1.16,40.63-39.4,44.68-55.22,4.06-15.82-5.48-31.93-21.3-35.99-15.82-4.05-31.93,5.48-35.99,21.3Z"/>
      <path class="cls-7" d="m793.01,624.02c16.33.39,65.16-23.36,65.27-28.02.11-4.66-47.54-30.71-63.87-31.1-16.33-.39-29.88,12.53-30.26,28.86-.39,16.33,12.53,29.88,28.86,30.27Z"/>
      <path class="cls-7" d="m895.16,602.2c-7.59,21.93,3.44,98.29,9.7,100.45,6.26,2.16,62.12-51.06,69.7-72.98,7.59-21.93-4.04-45.85-25.97-53.44-21.93-7.59-45.85,4.04-53.44,25.97Z"/>
      <path class="cls-7" d="m812.69,739.82c23.19.55,92.58-33.19,92.73-39.81.16-6.62-67.54-43.63-90.73-44.18-23.19-.55-42.45,17.8-43,41-.55,23.19,17.8,42.45,41,43Z"/>
    </g>
    <g>
      <path class="cls-7" d="m2399.31,1314.01c-.17-.02-.35-.05-.52-.11-1.39-.44-2.16-1.92-1.73-3.31,114.13-363.3,217.05-619.51,289.8-721.44,1.62-2.26,2.78-3.9,3.23-4.73.69-1.28,2.3-1.76,3.58-1.07,1.28.69,1.76,2.29,1.07,3.58-.6,1.12-1.72,2.69-3.58,5.28-72.44,101.49-175.1,357.18-289.06,719.96-.38,1.22-1.57,1.96-2.79,1.83Z"/>
      <path class="cls-7" d="m2736.95,571.01c-8.61,11.43-51.49,32.09-54.75,29.63-3.27-2.46,4.74-49.38,13.35-60.81,8.61-11.44,24.86-13.72,36.29-5.11,11.44,8.61,13.72,24.86,5.11,36.29Z"/>
      <path class="cls-7" d="m2654.22,605.07c4.04,14.08-5.49,61.83-9.51,62.98-4.02,1.15-37.42-34.28-41.46-48.35-4.04-14.07,4.1-28.76,18.17-32.8,14.08-4.04,28.76,4.1,32.8,18.17Z"/>
      <path class="cls-7" d="m2704,689.4c-14.62.77-59-19.27-59.22-23.45-.22-4.17,41.82-28.74,56.45-29.51,14.62-.77,27.1,10.47,27.87,25.09.76,14.62-10.47,27.1-25.09,27.87Z"/>
      <path class="cls-7" d="m2526.03,845.22c9.29,22.76,2.02,104.17-4.48,106.82-6.5,2.65-68.65-50.43-77.94-73.19-9.29-22.76,1.63-48.73,24.39-58.02,22.76-9.29,48.74,1.63,58.02,24.39Z"/>
      <path class="cls-7" d="m2624.36,976.94c-24.26,3.92-101.95-21.49-103.07-28.42-1.12-6.93,64.59-55.53,88.86-59.45,24.26-3.92,47.12,12.56,51.04,36.83,3.92,24.26-12.56,47.12-36.83,51.04Z"/>
      <path class="cls-7" d="m2461.01,935.62c17.22,24.66,30.47,123.8,23.43,128.72-7.04,4.91-95.53-41.71-112.75-66.37-17.22-24.66-11.18-58.62,13.49-75.83,24.66-17.22,58.62-11.18,75.83,13.49Z"/>
      <path class="cls-7" d="m2601.83,1108.16c-30.03,1.72-121.39-38.99-121.88-47.57-.49-8.57,85.62-59.46,115.65-61.18,30.03-1.72,55.77,21.23,57.49,51.26,1.72,30.03-21.23,55.77-51.26,57.49Z"/>
      <path class="cls-7" d="m2420,1054.04c17.22,24.66,30.47,123.8,23.43,128.72-7.04,4.91-95.53-41.71-112.75-66.37-17.22-24.66-11.18-58.61,13.49-75.83,24.66-17.22,58.62-11.18,75.83,13.49Z"/>
      <path class="cls-7" d="m2560.82,1226.58c-30.03,1.72-121.39-38.99-121.88-47.56-.49-8.57,85.62-59.46,115.65-61.18s55.77,21.23,57.49,51.26c1.72,30.03-21.23,55.77-51.26,57.49Z"/>
      <path class="cls-7" d="m2331.46,1202.39c25.31,16.25,75.33,102.87,70.69,110.09-4.64,7.23-104.21-2.18-129.53-18.43-25.31-16.25-32.66-49.94-16.41-75.25,16.25-25.31,49.94-32.66,75.25-16.41Z"/>
      <path class="cls-7" d="m2524.39,1343.77c-29.58,5.46-125.31-23.51-126.87-31.96-1.56-8.44,77.51-69.7,107.09-75.16s57.99,14.09,63.45,43.67c5.46,29.58-14.09,57.98-43.67,63.45Z"/>
      <path class="cls-7" d="m2614.67,679.85c4.1,14.3-5.58,62.82-9.66,63.99-4.08,1.17-38.02-34.83-42.13-49.13-4.1-14.3,4.16-29.22,18.46-33.33,14.3-4.1,29.22,4.16,33.33,18.46Z"/>
      <path class="cls-7" d="m2663.32,766.41c-14.86.78-59.95-19.58-60.17-23.82-.22-4.24,42.49-29.2,57.35-29.98,14.86-.78,27.53,10.64,28.31,25.49.78,14.86-10.63,27.53-25.49,28.31Z"/>
      <path class="cls-7" d="m2569.73,749.19c7.48,19.77-.58,89.59-6.22,91.73-5.64,2.13-57.89-44.88-65.37-64.65-7.48-19.77,2.49-41.86,22.26-49.34,19.77-7.48,41.86,2.49,49.34,22.26Z"/>
      <path class="cls-7" d="m2648.41,872.38c-21.11,1.11-85.17-27.82-85.49-33.85-.32-6.02,60.37-41.49,81.48-42.59,21.11-1.11,39.12,15.11,40.22,36.22,1.11,21.11-15.11,39.12-36.22,40.22Z"/>
    </g>
    <g>
      <path class="cls-14" d="m2095.04,905.16c-.15-.01-.3-.04-.46-.09-1.22-.36-1.92-1.64-1.57-2.87,93.71-319.75,179.42-545.62,241.34-636.02,1.38-2.01,2.37-3.46,2.75-4.19.58-1.14,1.98-1.58,3.11-1,1.13.58,1.58,1.98,1,3.11-.51.99-1.46,2.38-3.04,4.68-61.66,90.01-147.15,315.42-240.72,634.71-.31,1.07-1.34,1.74-2.41,1.65Z"/>
      <path class="cls-14" d="m2377.87,249.48c-7.34,10.15-44.5,28.94-47.4,26.85-2.9-2.09,3.31-43.28,10.65-53.42,7.34-10.15,21.52-12.43,31.66-5.09,10.15,7.34,12.43,21.52,5.09,31.66Z"/>
      <path class="cls-14" d="m2306.07,280.68c3.77,12.25-3.76,54.18-7.26,55.26-3.5,1.08-33.32-29.35-37.09-41.6-3.77-12.24,3.1-25.23,15.34-29,12.25-3.77,25.23,3.1,29,15.34Z"/>
      <path class="cls-14" d="m2351.05,353.61c-12.78.92-51.94-15.87-52.2-19.51-.26-3.65,36.1-25.85,48.88-26.77,12.78-.92,23.88,8.7,24.8,21.48.92,12.78-8.7,23.88-21.48,24.8Z"/>
      <path class="cls-14" d="m2197.98,492.92c8.51,19.75,3.53,91.09-2.11,93.52-5.64,2.43-60.91-42.96-69.42-62.71-8.51-19.75.61-42.66,20.36-51.17,19.75-8.51,42.66.61,51.17,20.36Z"/>
      <path class="cls-14" d="m2286.23,606.49c-21.16,3.84-89.55-17.08-90.65-23.12-1.1-6.04,55.57-49.67,76.73-53.51,21.16-3.84,41.43,10.2,45.27,31.36,3.84,21.16-10.2,41.43-31.36,45.27Z"/>
      <path class="cls-14" d="m2142.63,573.1c15.48,21.29,28.74,107.79,22.67,112.21-6.08,4.42-84.28-34.88-99.75-56.16-15.48-21.29-10.77-51.09,10.52-66.57,21.29-15.48,51.09-10.77,66.57,10.52Z"/>
      <path class="cls-14" d="m2268.73,721.67c-26.24,2.01-106.85-32.06-107.42-39.55-.58-7.49,73.9-53.46,100.14-55.47,26.24-2.01,49.15,17.63,51.16,43.87,2.01,26.24-17.63,49.15-43.87,51.16Z"/>
      <path class="cls-14" d="m2108.76,677.39c15.48,21.29,28.74,107.79,22.67,112.21-6.08,4.42-84.28-34.88-99.75-56.16-15.48-21.29-10.77-51.09,10.52-66.57,21.29-15.48,51.09-10.77,66.57,10.52Z"/>
      <path class="cls-14" d="m2234.86,825.96c-26.24,2.01-106.85-32.06-107.43-39.55-.57-7.49,73.9-53.46,100.14-55.47,26.24-2.01,49.15,17.63,51.16,43.87,2.01,26.24-17.63,49.15-43.87,51.16Z"/>
      <path class="cls-14" d="m2033.8,808.67c22.42,13.79,67.63,88.72,63.7,95.12-3.94,6.4-91.21-.14-113.62-13.93-22.42-13.79-29.41-43.14-15.63-65.55,13.79-22.42,43.14-29.42,65.55-15.63Z"/>
      <path class="cls-14" d="m2204.97,929.09c-25.78,5.28-110.02-18.45-111.53-25.81-1.51-7.36,66.63-62.28,92.41-67.56,25.78-5.28,50.96,11.35,56.24,37.13,5.28,25.78-11.35,50.96-37.13,56.24Z"/>
      <path class="cls-14" d="m2272.74,346.76c3.83,12.44-3.82,55.05-7.37,56.14-3.55,1.09-33.85-29.82-37.68-42.27-3.83-12.44,3.15-25.63,15.59-29.47,12.44-3.83,25.63,3.15,29.46,15.59Z"/>
      <path class="cls-14" d="m2316.76,421.66c-12.99.93-52.77-16.12-53.04-19.83-.27-3.71,36.68-26.26,49.67-27.2,12.98-.93,24.27,8.84,25.2,21.82.93,12.98-8.84,24.27-21.82,25.2Z"/>
      <path class="cls-14" d="m2234.59,408.18c6.88,17.17,1,78.39-3.9,80.35-4.9,1.96-51.4-38.28-58.28-55.45-6.88-17.17,1.47-36.66,18.64-43.54,17.17-6.88,36.66,1.47,43.54,18.64Z"/>
      <path class="cls-14" d="m2305.5,514.61c-18.45,1.32-74.98-22.9-75.35-28.17-.38-5.27,52.11-37.31,70.56-38.64,18.45-1.32,34.48,12.56,35.8,31,1.32,18.45-12.56,34.47-31,35.8Z"/>
    </g>
    <g>
      <path class="cls-19" d="m2216.78,1604.44s-61.27-389.7,618.88-382.58c0,0-267.39,647.54-618.88,382.58Z"/>
      <path class="cls-14" d="m2836.82,1221.13l-619.16,333.58c9.6-104.45,89.96-339.12,619.16-333.58Z"/>
      <path class="cls-1" d="m2243.14,1542.17c.46.2.99.19,1.46-.06l593.01-319.49c.82-.44,1.13-1.46.68-2.28-.44-.82-1.46-1.13-2.28-.68l-593.01,319.49c-.82.44-1.13,1.46-.68,2.28.19.35.48.6.82.75Z"/>
      <path class="cls-1" d="m2526.57,1389.46c.08.04.17.07.27.09l181.72,44.62c.9.22,1.82-.33,2.04-1.23.22-.91-.34-1.84-1.23-2.04l-181.72-44.62c-.9-.22-1.82.33-2.04,1.23-.2.81.23,1.63.97,1.95Z"/>
      <path class="cls-1" d="m2614.61,1255.04c0,.05,0,.11-.02.16l-31.19,103.9c-.16.52-1.02.86-1.94.77-.92-.09-1.56-.59-1.38-1.1l31.19-103.9c.16-.52,1.02-.86,1.94-.77.83.08,1.41.49,1.41.94Z"/>
    </g>
    <path class="cls-7" d="m1863.33,741.56l80.83-10.94-9.32-68.91c9.98-5.21,19.27-11.46,27.75-18.6l61.2,38.18,43.17-69.2-58.12-36.26c3.28-9.48,5.65-19.34,7.02-29.47l65.37-8.84-10.94-80.83-65.37,8.84c-4.01-9.4-8.91-18.28-14.6-26.54l46.39-50.4-60.01-55.24-48.86,53.07c-10.07-4.63-20.69-8.19-31.69-10.56l-9.32-68.91-80.83,10.94,8.49,62.75c-16.46,5.59-31.53,13.84-44.79,24.18l-57.27-35.73-43.17,69.2,51.65,32.22c-4.28,11.04-7.3,22.65-8.91,34.63l-57.01,7.71,10.94,80.83,57.01-7.71c4.74,11.12,10.74,21.51,17.79,31.02l-41.23,44.79,60.01,55.24,45.72-49.66c15.53,6.45,32.25,10.4,49.6,11.41l8.49,62.75Zm-78.83-205.04c-5.93-43.87,24.82-84.25,68.69-90.18,43.87-5.93,84.25,24.82,90.18,68.69,5.94,43.87-24.82,84.25-68.69,90.18-43.87,5.94-84.25-24.82-90.18-68.69Z"/>
    <path class="cls-7" d="m1586.96,430.9l23.11-4.92-4.19-19.7c2.77-1.72,5.32-3.73,7.61-5.98l18.51,9.7,10.96-20.93-17.58-9.21c.74-2.81,1.21-5.71,1.39-8.67l18.69-3.98-4.92-23.11-18.69,3.98c-1.36-2.63-2.97-5.09-4.8-7.35l12.31-15.57-18.54-14.65-12.96,16.4c-3.01-1.12-6.16-1.92-9.39-2.36l-4.19-19.7-23.11,4.92,3.82,17.94c-4.63,1.97-8.81,4.68-12.41,7.96l-17.32-9.07-10.96,20.93,15.62,8.18c-.99,3.28-1.61,6.7-1.82,10.2l-16.3,3.47,4.92,23.11,16.3-3.47c1.61,3.11,3.57,5.98,5.82,8.57l-10.94,13.84,18.54,14.65,12.13-15.34c4.63,1.53,9.54,2.3,14.58,2.22l3.82,17.94Zm-27.24-57.52c-2.67-12.54,5.33-24.88,17.88-27.55,12.54-2.67,24.88,5.33,27.55,17.88,2.67,12.54-5.33,24.88-17.88,27.55-12.54,2.67-24.88-5.33-27.55-17.88Z"/>
    <path class="cls-17" d="m354.51,1228.33l27.81,45.18,38.52-23.71c5.73,4.56,11.89,8.44,18.37,11.6l-6.57,46.46,52.53,7.43,6.24-44.12c6.5-.55,12.99-1.74,19.37-3.6l22.49,36.54,45.18-27.81-22.49-36.54c4.53-4.86,8.52-10.12,11.93-15.68l42.2,14.3,17.03-50.25-44.44-15.06c.1-7.21-.58-14.46-2.08-21.63l38.52-23.71-27.81-45.18-35.08,21.59c-7.66-8.31-16.54-15.1-26.19-20.25l6.15-43.47-52.53-7.43-5.54,39.21c-7.69.37-15.39,1.63-22.94,3.83l-19.62-31.87-45.18,27.81,19.62,31.87c-5.36,5.75-9.96,12.06-13.75,18.76l-37.5-12.71-17.03,50.25,41.58,14.09c.26,10.94,2.32,21.92,6.29,32.5l-35.07,21.59Zm101.14-100.93c24.52-15.1,56.64-7.45,71.73,17.07,15.1,24.52,7.45,56.64-17.07,71.73-24.52,15.09-56.64,7.45-71.73-17.07-15.1-24.52-7.45-56.64,17.07-71.73Z"/>
    <path class="cls-7" d="m413.81,1488.11l19.07,30.98,26.41-16.26c3.93,3.13,8.16,5.79,12.6,7.95l-4.5,31.86,36.02,5.09,4.28-30.25c4.46-.37,8.91-1.19,13.28-2.46l15.42,25.05,30.98-19.07-15.42-25.05c3.11-3.33,5.84-6.94,8.18-10.75l28.93,9.8,11.68-34.45-30.47-10.33c.07-4.94-.4-9.92-1.42-14.83l26.41-16.26-19.07-30.98-24.05,14.8c-5.25-5.7-11.34-10.35-17.96-13.89l4.21-29.81-36.02-5.09-3.8,26.88c-5.27.25-10.55,1.12-15.73,2.63l-13.45-21.85-30.98,19.07,13.45,21.85c-3.68,3.94-6.83,8.27-9.43,12.86l-25.71-8.71-11.67,34.45,28.51,9.66c.18,7.5,1.59,15.03,4.31,22.29l-24.05,14.8Zm69.35-69.2c16.81-10.35,38.83-5.11,49.18,11.7,10.35,16.81,5.11,38.83-11.7,49.18-16.81,10.35-38.83,5.11-49.18-11.7-10.35-16.81-5.11-38.83,11.7-49.18Z"/>
    <g>
      <rect class="cls-1" x="1571.7" y="1492.63" width="247.86" height="247.86"/>
      <path class="cls-3" d="m1036.92,551.31h1334.68c12.92,0,23.41,10.49,23.41,23.41v924.29c0,12.92-10.49,23.41-23.41,23.41h-1334.68c-12.92,0-23.41-10.49-23.41-23.41v-924.29c0-12.92,10.49-23.41,23.41-23.41Z"/>
      <rect class="cls-11" x="1048.72" y="577.04" width="1309.72" height="872.25"/>
      <rect class="cls-4" x="1076.64" y="602.3" width="1248.88" height="820.27"/>
      <rect class="cls-3" x="1484" y="1717.46" width="423.26" height="54.18"/>
      <g>
        <rect class="cls-18" x="1317.92" y="1082.91" width="580.79" height="366.66"/>
        <rect class="cls-9" x="1534.08" y="1082.91" width="580.79" height="366.66"/>
        <polygon class="cls-8" points="1317.92 1449.57 1416.97 1266.24 1534.08 1449.57 1317.92 1449.57"/>
        <polygon class="cls-13" points="1317.92 1082.91 1416.97 1326.34 1534.08 1082.91 1317.92 1082.91"/>
      </g>
      <polygon class="cls-18" points="2164.48 1197.25 1583.69 1197.25 1534.08 1082.91 2114.88 1082.91 2164.48 1197.25"/>
      <polygon class="cls-8" points="1492.82 1197.25 1276.66 1197.25 1317.92 1082.91 1534.08 1082.91 1492.82 1197.25"/>
    </g>
    <g>
      <path class="cls-1" d="m2402.75,1764.1s57.15,25.31,70.21,28.57c13.06,3.27,55.52-2.45,34.29-28.57-21.23-26.13-39.19-12.25-77.56-31.84-38.37-19.59-26.94,31.84-26.94,31.84Z"/>
      <path class="cls-16" d="m2258.48,1619.4s-108.38-23.88-129.81,37.35c-21.43,61.23,84.28,89.89,103.89,94.3,19.61,4.41,64.7,8.16,74.91,11.43,10.21,3.27,48.17,6.53,53.48,8.98,5.31,2.45,60.01,15.1,60.01,15.1l40.82-55.92-42.45-36.16-18.11-66.58-142.72-8.5Z"/>
      <path class="cls-17" d="m2340.54,1364.07s88.17-4.9,131.04,57.56c42.86,62.46,75.93,118.79,17.14,172.67-58.78,53.88-140.83,26.94-140.83,26.94l-108.99,6.74s-112.67-7.96-85.72-113.28c26.94-105.32,92.66-148.18,187.37-150.63Z"/>
      <path class="cls-1" d="m2284.2,1777.18s-57.15,25.31-70.21,28.58c-13.06,3.26-55.52-2.45-34.29-28.58,21.23-26.12,39.19-12.25,77.56-31.84,38.37-19.59,26.94,31.84,26.94,31.84Z"/>
      <path class="cls-1" d="m2401.16,1547.86c-.2,0-.39-.08-.53-.24-.26-.29-.23-.74.06-1,46.87-41.39,75.93-36.52,77.14-36.29.38.07.64.44.57.83-.07.38-.44.64-.83.57-.28-.05-29.65-4.91-75.94,35.96-.13.12-.3.18-.47.18Z"/>
      <path class="cls-1" d="m2271.96,1547.86c-.18,0-.36-.07-.5-.21-29.51-29.5-74.51-39.51-74.96-39.61-.38-.08-.63-.46-.54-.84.08-.38.48-.63.84-.54.45.1,45.86,10.19,75.67,39.99.28.28.28.73,0,1-.14.14-.32.21-.5.21Z"/>
      <path class="cls-1" d="m2416.46,1496.69c-.33,0-.62-.23-.7-.56l-7.35-35.16c-.08-.38.17-.76.55-.84.38-.09.76.17.84.55l7.35,35.16c.08.38-.17.76-.55.84-.05.01-.1.01-.14.01Z"/>
      <path class="cls-1" d="m2251.14,1503.77s-.04,0-.06,0c-.39-.03-.68-.37-.65-.76l3.06-37.96c.03-.39.4-.68.77-.65.39.03.68.37.65.76l-3.06,37.96c-.03.37-.34.65-.71.65Z"/>
      <path class="cls-2" d="m2243.87,1311.13s-6.67-3.91-8.54-.07c-4.78,9.79,6.72,13.73,12.71,12.93l-4.16-12.85Z"/>
      <path class="cls-1" d="m2382.17,1676.65s-.09,0-.14-.01c-5.25-1.05-18.24-5.32-29.7-9.09-6.39-2.1-11.91-3.92-14.96-4.8-8.31-2.4-43.3-5.66-43.65-5.69-.73-.14-66.09-13.09-73.37-14.71-.38-.09-.62-.46-.54-.85.09-.38.45-.62.85-.54,7.25,1.61,72.6,14.56,73.26,14.69,1.37.12,35.4,3.29,43.84,5.73,3.08.89,8.61,2.71,15.01,4.81,10.85,3.57,24.36,8.02,29.53,9.05.38.08.63.45.56.83-.07.34-.36.57-.7.57Z"/>
      <path class="cls-10" d="m2349.12,1363.89c-11.03-22.26-16.7-46.74-17-71.57-.1-8.41-.76-17.84-1.59-28.47-.3-8.7-2.76-17.49-7.7-25.59-13.31-21.83-40.99-30.9-64.64-21.2-28.4,11.65-40.63,44.62-27.36,71.75.3.61.62,1.21.94,1.8h-.05c7.63,15.6,23.82,72.65,58.09,63.38l4.7,23.13s27.71,7.84,54.63-13.23h0Z"/>
      <path class="cls-1" d="m2249.49,1303.07c-.93-1.9-.14-4.19,1.75-5.11,1.9-.93,4.18-.14,5.11,1.75.93,1.9.14,4.18-1.75,5.11-1.9.93-4.18.14-5.11-1.75Z"/>
      <path class="cls-1" d="m2294.88,1291.5c-.93-1.9-.14-4.19,1.75-5.11,1.9-.93,4.18-.14,5.11,1.75.93,1.89.14,4.18-1.75,5.11-1.9.93-4.19.14-5.11-1.75Z"/>
      <path class="cls-1" d="m2279.45,1333.58c-2.63,0-5.44-.64-8.38-2.23-.41-.22-.57-.74-.34-1.15.22-.42.74-.56,1.15-.34,13.62,7.36,24.17-7.43,24.61-8.06.27-.39.8-.48,1.18-.21.39.27.48.8.21,1.18-.09.13-7.69,10.81-18.43,10.81Z"/>
      <polygon class="cls-1" points="2331.09 1244.65 2333.85 1282.01 2324.43 1284.49 2299.12 1245.81 2331.09 1244.65"/>
      <path class="cls-10" d="m2322.6,1284.12c.02-1.9.78-3.71,2.05-5.13,2.62-2.91,7.66-7.16,13.55-5.14,8.63,2.96,4.49,24.04-10.78,22.04,0,0-4.9-1.68-4.82-11.77Z"/>
      <path class="cls-2" d="m2277.66,1318.57c-.97,0-2.02-.14-3.16-.47-1.5-.43-2.37-.99-2.81-1.8-.62-1.14-.22-2.47.3-4.16.94-3.13,2.37-7.85-.4-15.99-.15-.44.09-.93.53-1.08.45-.15.93.09,1.08.53,2.94,8.66,1.36,13.9.42,17.03-.41,1.36-.71,2.34-.43,2.86.2.37.8.7,1.79.98,6.07,1.76,9.02-2.77,9.14-2.96.25-.4.78-.51,1.17-.27.4.25.52.77.27,1.17-.03.05-2.67,4.16-7.9,4.16Z"/>
      <path class="cls-1" d="m2287.56,1284.69c-.88,0-1.74-.46-2.21-1.28-.7-1.22-.29-2.78.93-3.49,9.47-5.47,18.4-1.83,18.78-1.67,1.3.54,1.91,2.04,1.37,3.34-.54,1.3-2.03,1.91-3.33,1.37-.3-.12-7.05-2.78-14.26,1.38-.4.23-.84.34-1.27.34Z"/>
      <path class="cls-1" d="m2241.36,1302.15c-.53,0-1.05-.16-1.51-.49-1.14-.83-1.38-2.43-.55-3.57,5.7-7.78,13.52-9.24,13.84-9.3,1.4-.25,2.71.68,2.96,2.07.25,1.38-.67,2.7-2.06,2.96-.1.02-6.2,1.25-10.63,7.29-.5.68-1.27,1.04-2.06,1.04Z"/>
      <path class="cls-1" d="m2327.27,1234.36c3.24-4.46.87-11.79-4.36-13.51-.71-.24-1.48-.39-2.09-.83-.85-.61-1.26-1.66-1.62-2.64-.78-2.12-1.55-4.24-2.33-6.36-.25-.67-.52-1.38-1.1-1.8-.52-.37-1.18-.45-1.81-.51-3.66-.37-7.69-.64-10.68,1.51-3.97-2.42-8.27-4.93-12.91-4.62-1.48.1-2.93.49-4.41.51-5.72.09-11.12-5.2-16.53-3.34-1.41.48-2.62,1.41-3.92,2.14-3.79,2.12-8.28,2.49-12.44,3.75-4.16,1.26-8.44,4-9.19,8.28-.16.91-.16,1.89-.67,2.67-.48.74-1.32,1.15-2.13,1.5-4.43,1.9-9.33,3.09-12.93,6.29-3.6,3.2-5.15,9.47-1.57,12.7-2.87,1.22-5.51,3.2-7.02,5.93-1.51,2.73-1.73,6.27-.12,8.94.32.53.72,1.06.74,1.68.05,1.14-1.11,1.89-2.02,2.56-4.33,3.19-5.46,9.95-2.41,14.38.66.95,1.49,1.83,1.82,2.94.29.98.16,2.03.27,3.04.3,2.79,2.62,5.23,5.38,5.67,3.4.54,6.57-1.65,9.31-3.72.07,1.3,1.69,1.85,2.99,1.92,8.09.43,16.05-5.61,17.81-13.53,4.65.42,10.42.26,12.59-3.88.47-.9.7-1.9.92-2.88.77-3.35,1.54-6.7,2.3-10.05,1.44-.26,2.66,1.15,3.09,2.56.42,1.4.41,2.95,1.11,4.24,1.68,3.13,6.15,2.99,9.66,2.4,1.97-.33,3.99-.67,5.73-1.65,1.74-.98,3.19-2.73,3.23-4.73,1.87,3.06,6.16,3.38,9.73,3,8.92-.95,16.68-4.26,24.34-8.73,2.82-1.65,4.74-2.36,5.24-5.9.51-3.66-1.01-7.69-4.01-9.91Z"/>
      <rect class="cls-1" x="2232.56" y="1486.53" width="210.03" height="149.41" rx="5.31" ry="5.31"/>
      <path class="cls-15" d="m2419.73,1613.89s74.29-44.09,114.3,4.08c40,48.17-31.02,85.72-48.17,101.24-17.15,15.51-36.74,26.13-57.97,28.57-21.23,2.45-27.76,4.9-52.25,13.06-24.49,8.16-44.9,15.51-47.35,17.15-2.45,1.63-42.46,15.51-42.46,15.51,0,0-40.82-40.82-41.64-53.07,0,0,40-35.58,51.44-45.96,11.43-10.38,66.13-23.44,75.93-36.5,9.8-13.06,48.17-44.09,48.17-44.09Z"/>
      <path class="cls-11" d="m2344.73,1561.23c0-3.95-3.2-7.15-7.15-7.15s-7.15,3.2-7.15,7.15,3.2,7.15,7.15,7.15,7.15-3.2,7.15-7.15Z"/>
    </g>
    <g>
      <path class="cls-10" d="m879.78,1656.64s-6.36,62.79,6.46,69.91c23.22,12.9,66.04,25.2,62.45,36.28-3.59,11.08-106.22,11.51-109.07,1.41-2.85-10.1,8.65-41.01-3.54-101.18l43.7-6.42Z"/>
      <path class="cls-21" d="m840.64,1741.68c-1.09,11.24-2.04,18.96-1.03,22.55,2.85,10.1,105.48,9.67,109.07-1.41,2.66-8.21-20.01-17.48-41.51-26.7-5.09,8.54-15.93,21.86-66.53,5.55Z"/>
      <path class="cls-10" d="m687.27,1654.84s-16.96,60.79-5.54,69.99c20.68,16.66,60.78,36.08,55.36,46.38-5.42,10.3-106.63-6.75-107.72-17.18-1.09-10.44,15.51-38.94,13.74-100.3l44.15,1.11Z"/>
      <path class="cls-21" d="m634.22,1731.98c-2.99,10.89-5.24,18.33-4.85,22.05,1.09,10.44,102.3,27.49,107.72,17.18,4.02-7.64-16.74-20.63-36.36-33.38-6.47,7.55-19.42,18.83-66.51-5.85Z"/>
      <path class="cls-3" d="m867.81,1100.02s27.88,33.77,40.46,73.3c12.58,39.53-20.78,507.85-20.78,507.85h-55.7s-29.55-417.06-29.55-420.77c0-14.57-109.68,420.77-109.68,420.77h-55.61s30.1-509.73,99.94-581.15l65.35,4.04,65.58-4.04Z"/>
      <path class="cls-18" d="m948.25,893.61c.3-10.73-8.45-19.38-16.99-25.87-8.54-6.5-18.19-13.18-21.09-23.51-4.44-15.81,9.03-32.68,4.26-48.39-3.79-12.51-17.55-19.1-24.37-30.24-6.29-10.25-6.04-23.1-9.56-34.6-2.74-8.94-7.26-16.22-13-21.96-5.91-5.92-13.11-10.2-21-12.98-8.05-2.84-16.8-4.11-25.62-3.96h0c-9.35.16-18.75,1.93-27.47,5.13-1.88.69-3.73,1.44-5.54,2.27h-.01c-2.96,1.35-5.8,2.87-8.51,4.56-2.42,1.51-4.76,3.18-6.97,5.01-5.72,4.7-10.66,10.37-14.37,16.71-3.52,6.02-5.92,12.65-6.81,19.6-1.53,11.95,1.29,25.73-7.2,35.68-2.47,2.89-5.45,4.94-8.7,6.51-2.32,1.13-4.76,2.01-7.26,2.81-5.1,1.62-10.41,2.86-15.2,4.91-11.14,4.76-21.22,14.61-24.28,26.58-2.62,10.25-.43,21.96-2.43,32-.78,3.91-2.19,7.56-4.78,10.77-6.6,8.16-17.74,9.8-26.48,14.68-9.79,5.46-17.96,14.06-22.09,24.56-7.23,18.41-.27,41.78,17.73,51.16,1.45.76,2.95,1.42,4.47,1.98.55.2,1.11.4,1.67.58,7.48,2.45,15.63,2.92,23.56,2.77,19.48-.36,38.9-4.14,57.1-11.1,17.86-6.83,35.05-16.81,54.12-18.15,16.54-1.15,32.71,4.35,48.97,7.55,13.79,2.71,28.08,3.85,41.27,8.41h0c.37.13.75.26,1.12.4,1.77.64,3.52,1.35,5.25,2.13,6.63,3.02,12.75,7.12,19.47,9.93,1.07.45,2.18.86,3.29,1.23,5.88,1.94,12.25,2.61,17.98.45,6.82-2.56,12.07-10.11,10.14-17.14-.87-3.2-3.04-5.89-4.13-9.02-.89-2.53-1.03-5.01-.67-7.47,1.63-11.18,13.77-21.75,14.12-33.98Z"/>
      <path class="cls-6" d="m787.89,864.33c-32.05,1.19-89.36,15.52-107.46,51.6-10.02,19.97-24.13,84.87-24.13,84.87l48.62,8.52s-.82,23.49,2.35,36.92c5.63,23.8,28.25,77.84,39.64,82.4,17.8,7.12,34.9-.92,45.58-2.11,10.68-1.19,34.53-14.61,63.02-22.92,28.49-8.31,29.67-29.67,33.24-54.6,3.56-24.93,8.31-47.48,8.31-47.48l10.68,8.31,53.43-53.44s-62.93-67.64-98.54-78.32c-35.61-10.68-74.73-13.75-74.73-13.75Z"/>
      <path class="cls-2" d="m873.53,784.03s5.33-5.89,8.35-2.7c7.7,8.12-3.12,15.69-9.24,16.75l.88-14.05Z"/>
      <path class="cls-10" d="m830.59,696.24c-27-2.32-51.88,16.28-57.36,42.82-1.8,8.73-1.38,17.34.82,25.3,4.54,19.7,8.35,35.59,14.26,47.64,5.99,12.21,7.46,26.15,3.54,39.17l-3.96,13.15c28.69,20.24,44.63,6.78,44.63,6.78l4.71-31.05h0c34.19,1.09,39.12-61.56,41.9-79.87h-.05c.13-.68.26-1.36.37-2.06,4.65-30.66-17.46-59.2-48.86-61.89Z"/>
      <path class="cls-18" d="m818.52,749.96c-7.54,5.66-14.35,12.22-21.15,18.76-7.19,6.92-14.66,14.3-17.48,23.87-7.66-7.9-11.71-18.56-14.89-29.09-1.48-4.88-2.82-9.89-2.77-14.99.06-7.22,2.88-14.1,5.66-20.77,3.58-8.61,7.42-17.55,14.56-23.55,4.73-3.97,10.59-6.34,16.52-8.07,13.83-4.03,28.81-4.8,42.62-.69,13.81,4.11,26.3,13.36,32.97,26.13,8.59,16.44,6.83,36.14,4.85,54.59-.69-7.88-4.75-15.02-8.71-21.87-2.58-4.46-5.23-9-9.13-12.36-6.65-5.73-8.86-5.04-20.42-15.73-5.08,10.78-13.19,16.68-22.62,23.76Z"/>
      <path class="cls-10" d="m788.06,781.79c-.6-1.86-1.9-3.4-3.58-4.39-3.46-2.05-9.71-4.65-14.86-.87-7.55,5.56,3,24.94,17.34,18.28,0,0,4.29-3.16,1.1-13.02Z"/>
      <path class="cls-1" d="m864.62,783.19c.64-2.52-.89-5.08-3.41-5.72-2.52-.64-5.08.89-5.72,3.41-.64,2.52.89,5.08,3.41,5.72,2.52.64,5.08-.89,5.72-3.41Z"/>
      <path class="cls-1" d="m819.91,781.45c.64-2.52-.89-5.08-3.41-5.72-2.52-.64-5.08.89-5.72,3.41-.64,2.52.89,5.08,3.41,5.72,2.52.64,5.08-.89,5.72-3.41Z"/>
      <path class="cls-2" d="m849.35,815.32s-3.7-3.3-6.15-2.87c-2.46.43-4.05,3.2-4.05,3.2,0,0-1.15-3.03-4.06-3.35-2.91-.32-11.3,1.13-11.3,1.13,0,0,6.36,13.13,15.28,11.79,8.91-1.34,10.12-9.5,10.12-9.5l.16-.41Z"/>
      <path class="cls-20" d="m840.7,819.61c-10.2,1.16-19.2-7.14-19.32-7.25-.27-.25-.28-.67-.03-.94.25-.27.67-.28.94-.03.59.56,14.64,13.48,27.07,2.93.28-.24.7-.2.93.08.24.28.2.7-.08.94-3.14,2.66-6.39,3.91-9.53,4.27Z"/>
      <path class="cls-1" d="m805.61,772.45c-.55-.11-1.05-.46-1.33-1-.51-.95-.15-2.14.8-2.65.29-.15,7.14-3.69,15.64-1.54,1.05.26,1.69,1.33,1.42,2.38-.26,1.05-1.42,1.68-2.38,1.42-7.08-1.78-12.78,1.17-12.84,1.2-.42.22-.89.28-1.32.19Z"/>
      <path class="cls-1" d="m854.22,771.58c-.52-.21-.95-.64-1.13-1.22-.33-1.03.24-2.13,1.27-2.46.31-.1,7.61-2.39,15.66,1.28.99.45,1.42,1.61.97,2.59-.45.99-1.65,1.41-2.59.97-6.66-3.04-12.78-1.14-12.84-1.12-.45.15-.92.12-1.33-.05Z"/>
      <path class="cls-2" d="m838.18,802.37c5.63,0,8.09-3.86,8.62-6.22.09-.41.02-.84-.19-1.21-4.03-6.77-2.18-15.52-2.16-15.61.2-.89-.37-1.77-1.26-1.96-.87-.2-1.77.36-1.96,1.25-.09.4-2.05,9.56,2.17,17.34-.52,1.24-2.28,3.91-7.47,2.86-.91-.18-1.77.4-1.94,1.29-.18.89.4,1.76,1.29,1.94,1.05.21,2.02.31,2.91.31Z"/>
      <path class="cls-5" d="m897.03,1001.93c.21,0,.39-.16.41-.37,2.16-23.59-16.09-56.88-16.27-57.21-.11-.2-.36-.27-.56-.16-.2.11-.27.36-.16.56.18.33,18.31,33.4,16.17,56.73-.02.23.15.43.37.45.01,0,.02,0,.04,0Z"/>
      <path class="cls-5" d="m766.15,1017.58c20.1,0,37.11-11.6,37.35-11.77.19-.13.23-.39.1-.57-.13-.19-.39-.24-.57-.1-.32.23-32.56,22.19-60.48,5.13-.19-.12-.45-.05-.56.13-.12.2-.06.45.14.57,7.94,4.85,16.22,6.61,24.03,6.61Z"/>
      <path class="cls-10" d="m918.91,998.64s52.06,62.36,94.5,55.53c42.44-6.83,111.47-13.53,111.47-13.53l-34.96-23.06s-60.87-16.03-83.21-20.5c-22.34-4.47-50.08-36.16-50.08-36.16l-37.72,37.72Z"/>
      <g>
        <path class="cls-17" d="m956.41,979.07l-5.37-13.3c-5.76-14.26-19.6-23.59-34.97-23.59h-99.06v331.22h409.79v-268.36h-231.89c-16.92,0-32.15-10.27-38.49-25.96Z"/>
        <g>
          <path class="cls-11" d="m878.81,1143.59v-23.88l83.74-36.68v24.4l-58.48,24.05,58.48,24.05v24.74l-83.74-36.68Z"/>
          <path class="cls-11" d="m1049.58,1054.48h22.32l-76.65,160.21h-22.32l76.65-160.21Z"/>
          <path class="cls-11" d="m1164.98,1119.71v23.88l-83.74,36.68v-24.39l58.48-24.05-58.48-24.05v-24.74l83.74,36.68Z"/>
        </g>
      </g>
      <path class="cls-10" d="m824.97,1090.51c3.95,3.81-7.65,17.6-7.91,17.92.29,0,19.54.22,25.5-.62,6-.84,17.13.38,18.08,4.72.95,4.27-27.21,6.32-28.14,6.38.85.02,24.7.76,26.41,4.52,1.72,3.76-28.88,7.44-29.79,7.55.63-.01,18.82-.37,25.86.54,1.34.18,2.28.39,2.61.67,2.1,1.76-.07,4.53-9.36,6.99-2.64.7-5.36,1.21-7.88,1.58-5.93.87-10.84.98-11.46.99.5.03,3.94.22,7.9.5,5.33.37,11.57.91,12.78,1.4,2.18.9,4.54,3.73-9.6,5.92-11.36,1.76-33.83,1.94-50.32-1.42-4.04-.83-7.73-1.86-10.81-3.14l-.22-15.35-.11-7.7s2.23-1.81,5.53-4.36c6.6-5.14,17.48-13.34,23.2-16.19,8.59-4.27,13.73-14.78,17.74-10.93Z"/>
      <path class="cls-10" d="m662.86,1001.95c-.53,2.9-17.4,96.31-4.32,118.3,5.74,9.65,54.05,26.68,124.39,26.24l-4.44-24.5s-68.46-23.63-70.57-32.31c-4.54-18.67,8.36-78.35,8.36-78.35l-53.42-9.37Z"/>
      <path class="cls-10" d="m1061.22,1000.99s7.46,28.81,11.64,28.28c4.18-.53,3.49-24.16,3.63-23.8.14.35,4.94,24.84,10.71,26.06,5.77,1.22,3.76-25.92,3.76-25.92,0,0,2.81,23.3,6.81,23.92,4,.62,3.75-21.97,5.3-22.04,1.56-.06.31,19.37,5.23,20.36,4.93.99,7.75-26.35,3.26-29.83-4.49-3.48-8.94.24-8.94.24,0,0-8.16-5.02-12.58-2.17,0,0-12.87-2.44-15.03,2.97,0,0-9.41-6.55-13.8,1.94Z"/>
      <polygon class="cls-17" points="817 1108.44 837.47 1107.51 837.47 1059.42 817 1059.42 817 1108.44"/>
    </g>
    <g>
      <path class="cls-7" d="m1099.26,646.08l-4.1,1.01-1.08-4.24,6.76-2.02h3.53v23.71h-5.11v-18.46Z"/>
      <path class="cls-7" d="m1116,652.78c0-6.83,4.24-12.17,10.49-12.17s10.42,5.28,10.42,12.17-4.2,12.17-10.49,12.17-10.42-5.28-10.42-12.17Zm15.6,0c0-4.27-2.09-7.5-5.18-7.5s-5.11,3.13-5.11,7.5,2.05,7.5,5.18,7.5,5.11-3.16,5.11-7.5Z"/>
      <path class="cls-7" d="m1563.94,646.08l-4.1,1.01-1.08-4.24,6.76-2.02h3.53v23.71h-5.11v-18.46Z"/>
      <path class="cls-7" d="m1580.69,652.78c0-6.83,4.24-12.17,10.49-12.17s10.42,5.28,10.42,12.17-4.2,12.17-10.49,12.17-10.42-5.28-10.42-12.17Zm15.6,0c0-4.27-2.09-7.5-5.18-7.5s-5.11,3.13-5.11,7.5,2.05,7.5,5.18,7.5,5.11-3.16,5.11-7.5Z"/>
      <path class="cls-7" d="m1611.96,652.78c0-6.83,4.24-12.17,10.49-12.17s10.42,5.28,10.42,12.17-4.2,12.17-10.49,12.17-10.42-5.28-10.42-12.17Zm15.6,0c0-4.27-2.08-7.5-5.18-7.5s-5.11,3.13-5.11,7.5,2.05,7.5,5.18,7.5,5.11-3.16,5.11-7.5Z"/>
      <path class="cls-7" d="m1643.23,652.78c0-6.83,4.24-12.17,10.49-12.17s10.42,5.28,10.42,12.17-4.2,12.17-10.49,12.17-10.42-5.28-10.42-12.17Zm15.6,0c0-4.27-2.08-7.5-5.18-7.5s-5.11,3.13-5.11,7.5,2.05,7.5,5.18,7.5,5.11-3.16,5.11-7.5Z"/>
      <path class="cls-7" d="m1958.72,652.78c0-6.83,4.24-12.17,10.49-12.17s10.42,5.28,10.42,12.17-4.2,12.17-10.49,12.17-10.42-5.28-10.42-12.17Zm15.6,0c0-4.27-2.08-7.5-5.18-7.5s-5.11,3.13-5.11,7.5,2.05,7.5,5.18,7.5,5.11-3.16,5.11-7.5Z"/>
      <path class="cls-7" d="m1988.65,652.78c0-6.83,4.24-12.17,10.49-12.17s10.42,5.28,10.42,12.17-4.2,12.17-10.49,12.17-10.42-5.28-10.42-12.17Zm15.6,0c0-4.27-2.08-7.5-5.18-7.5s-5.11,3.13-5.11,7.5,2.05,7.5,5.18,7.5,5.11-3.16,5.11-7.5Z"/>
      <path class="cls-7" d="m2021.2,652.78c0-6.83,4.24-12.17,10.49-12.17s10.42,5.28,10.42,12.17-4.2,12.17-10.49,12.17-10.42-5.28-10.42-12.17Zm15.6,0c0-4.27-2.09-7.5-5.18-7.5s-5.11,3.13-5.11,7.5,2.05,7.5,5.18,7.5,5.11-3.16,5.11-7.5Z"/>
      <path class="cls-7" d="m2074.36,652.78c0-6.83,4.24-12.17,10.49-12.17s10.42,5.28,10.42,12.17-4.2,12.17-10.49,12.17-10.42-5.28-10.42-12.17Zm15.6,0c0-4.27-2.08-7.5-5.18-7.5s-5.11,3.13-5.11,7.5,2.05,7.5,5.18,7.5,5.11-3.16,5.11-7.5Z"/>
      <path class="cls-7" d="m2109.63,646.08l-4.1,1.01-1.08-4.24,6.76-2.02h3.53v23.71h-5.11v-18.46Z"/>
      <path class="cls-7" d="m2126.38,652.78c0-6.83,4.24-12.17,10.49-12.17s10.42,5.28,10.42,12.17-4.2,12.17-10.49,12.17-10.42-5.28-10.42-12.17Zm15.6,0c0-4.27-2.08-7.5-5.18-7.5s-5.11,3.13-5.11,7.5,2.05,7.5,5.18,7.5,5.11-3.16,5.11-7.5Z"/>
      <path class="cls-7" d="m2209.67,652.78c0-6.83,4.24-12.17,10.49-12.17s10.42,5.28,10.42,12.17-4.2,12.17-10.49,12.17-10.42-5.28-10.42-12.17Zm15.6,0c0-4.27-2.09-7.5-5.18-7.5s-5.11,3.13-5.11,7.5,2.05,7.5,5.18,7.5,5.11-3.16,5.11-7.5Z"/>
    </g>
    <g>
      <path class="cls-7" d="m1239.92,704.02c0-6.83,4.24-12.17,10.49-12.17s10.42,5.28,10.42,12.17-4.2,12.17-10.49,12.17-10.42-5.28-10.42-12.17Zm15.6,0c0-4.27-2.08-7.5-5.18-7.5s-5.11,3.13-5.11,7.5,2.05,7.5,5.18,7.5,5.11-3.16,5.11-7.5Z"/>
      <path class="cls-7" d="m1275.19,697.32l-4.1,1.01-1.08-4.24,6.76-2.02h3.53v23.71h-5.11v-18.46Z"/>
      <path class="cls-7" d="m1291.94,704.02c0-6.83,4.24-12.17,10.49-12.17s10.42,5.28,10.42,12.17-4.2,12.17-10.49,12.17-10.42-5.28-10.42-12.17Zm15.6,0c0-4.27-2.09-7.5-5.18-7.5s-5.11,3.13-5.11,7.5,2.05,7.5,5.18,7.5,5.11-3.16,5.11-7.5Z"/>
      <path class="cls-7" d="m1323.21,704.02c0-6.83,4.24-12.17,10.49-12.17s10.42,5.28,10.42,12.17-4.2,12.17-10.49,12.17-10.42-5.28-10.42-12.17Zm15.6,0c0-4.27-2.08-7.5-5.18-7.5s-5.11,3.13-5.11,7.5,2.05,7.5,5.18,7.5,5.11-3.16,5.11-7.5Z"/>
      <path class="cls-7" d="m1354.48,704.02c0-6.83,4.24-12.17,10.49-12.17s10.42,5.28,10.42,12.17-4.2,12.17-10.49,12.17-10.42-5.28-10.42-12.17Zm15.6,0c0-4.27-2.09-7.5-5.18-7.5s-5.11,3.13-5.11,7.5,2.05,7.5,5.18,7.5,5.11-3.16,5.11-7.5Z"/>
      <path class="cls-7" d="m1385.76,704.02c0-6.83,4.24-12.17,10.49-12.17s10.42,5.28,10.42,12.17-4.2,12.17-10.49,12.17-10.42-5.28-10.42-12.17Zm15.6,0c0-4.27-2.09-7.5-5.18-7.5s-5.11,3.13-5.11,7.5,2.05,7.5,5.18,7.5,5.11-3.16,5.11-7.5Z"/>
      <path class="cls-7" d="m1417.03,704.02c0-6.83,4.24-12.17,10.49-12.17s10.42,5.28,10.42,12.17-4.2,12.17-10.49,12.17-10.42-5.28-10.42-12.17Zm15.6,0c0-4.27-2.09-7.5-5.18-7.5s-5.11,3.13-5.11,7.5,2.05,7.5,5.18,7.5,5.11-3.16,5.11-7.5Z"/>
      <path class="cls-7" d="m1448.3,704.02c0-6.83,4.24-12.17,10.49-12.17s10.42,5.28,10.42,12.17-4.2,12.17-10.49,12.17-10.42-5.28-10.42-12.17Zm15.6,0c0-4.27-2.09-7.5-5.18-7.5s-5.11,3.13-5.11,7.5,2.05,7.5,5.18,7.5,5.11-3.16,5.11-7.5Z"/>
      <path class="cls-7" d="m1483.58,697.32l-4.1,1.01-1.08-4.24,6.76-2.02h3.53v23.71h-5.11v-18.46Z"/>
      <path class="cls-7" d="m1504.49,697.32l-4.1,1.01-1.08-4.24,6.76-2.02h3.53v23.71h-5.11v-18.46Z"/>
      <path class="cls-7" d="m1521.24,704.02c0-6.83,4.24-12.17,10.49-12.17s10.42,5.28,10.42,12.17-4.2,12.17-10.49,12.17-10.42-5.28-10.42-12.17Zm15.6,0c0-4.27-2.09-7.5-5.18-7.5s-5.11,3.13-5.11,7.5,2.05,7.5,5.18,7.5,5.11-3.16,5.11-7.5Z"/>
      <path class="cls-7" d="m1552.51,704.02c0-6.83,4.24-12.17,10.49-12.17s10.42,5.28,10.42,12.17-4.2,12.17-10.49,12.17-10.42-5.28-10.42-12.17Zm15.6,0c0-4.27-2.08-7.5-5.18-7.5s-5.11,3.13-5.11,7.5,2.05,7.5,5.18,7.5,5.11-3.16,5.11-7.5Z"/>
      <path class="cls-7" d="m2005.59,697.32l-4.1,1.01-1.08-4.24,6.76-2.02h3.53v23.71h-5.11v-18.46Z"/>
      <path class="cls-17" d="m2022.34,704.02c0-6.83,4.24-12.17,10.49-12.17s10.42,5.28,10.42,12.17-4.2,12.17-10.49,12.17-10.42-5.28-10.42-12.17Zm15.6,0c0-4.27-2.09-7.5-5.18-7.5s-5.11,3.13-5.11,7.5,2.05,7.5,5.18,7.5,5.11-3.16,5.11-7.5Z"/>
      <path class="cls-17" d="m2057.61,697.32l-4.1,1.01-1.08-4.24,6.76-2.02h3.53v23.71h-5.11v-18.46Z"/>
      <path class="cls-7" d="m2074.36,704.02c0-6.83,4.24-12.17,10.49-12.17s10.42,5.28,10.42,12.17-4.2,12.17-10.49,12.17-10.42-5.28-10.42-12.17Zm15.6,0c0-4.27-2.08-7.5-5.18-7.5s-5.11,3.13-5.11,7.5,2.05,7.5,5.18,7.5,5.11-3.16,5.11-7.5Z"/>
      <path class="cls-7" d="m2109.63,697.32l-4.1,1.01-1.08-4.24,6.76-2.02h3.53v23.71h-5.11v-18.46Z"/>
      <path class="cls-7" d="m2126.38,704.02c0-6.83,4.24-12.17,10.49-12.17s10.42,5.28,10.42,12.17-4.2,12.17-10.49,12.17-10.42-5.28-10.42-12.17Zm15.6,0c0-4.27-2.08-7.5-5.18-7.5s-5.11,3.13-5.11,7.5,2.05,7.5,5.18,7.5,5.11-3.16,5.11-7.5Z"/>
      <path class="cls-7" d="m2272.22,704.02c0-6.83,4.24-12.17,10.49-12.17s10.42,5.28,10.42,12.17-4.2,12.17-10.49,12.17-10.42-5.28-10.42-12.17Zm15.6,0c0-4.27-2.09-7.5-5.18-7.5s-5.11,3.13-5.11,7.5,2.05,7.5,5.18,7.5,5.11-3.16,5.11-7.5Z"/>
      <path class="cls-7" d="m2307.49,697.32l-4.1,1.01-1.08-4.24,6.76-2.02h3.53v23.71h-5.11v-18.46Z"/>
    </g>
    <g>
      <path class="cls-7" d="m1230.69,980.5c0-6.83,4.24-12.17,10.49-12.17s10.42,5.28,10.42,12.17-4.2,12.17-10.49,12.17-10.42-5.28-10.42-12.17Zm15.6,0c0-4.27-2.09-7.5-5.18-7.5s-5.11,3.13-5.11,7.5,2.05,7.5,5.18,7.5,5.11-3.16,5.11-7.5Z"/>
      <path class="cls-7" d="m1261.96,980.5c0-6.83,4.24-12.17,10.49-12.17s10.42,5.28,10.42,12.17-4.2,12.17-10.49,12.17-10.42-5.28-10.42-12.17Zm15.6,0c0-4.27-2.08-7.5-5.18-7.5s-5.11,3.13-5.11,7.5,2.05,7.5,5.18,7.5,5.11-3.16,5.11-7.5Z"/>
      <path class="cls-7" d="m1297.23,973.81l-4.1,1.01-1.08-4.24,6.76-2.02h3.53v23.71h-5.11v-18.46Z"/>
      <path class="cls-7" d="m1345.25,980.5c0-6.83,4.24-12.17,10.49-12.17s10.42,5.28,10.42,12.17-4.2,12.17-10.49,12.17-10.42-5.28-10.42-12.17Zm15.6,0c0-4.27-2.08-7.5-5.18-7.5s-5.11,3.13-5.11,7.5,2.05,7.5,5.18,7.5,5.11-3.16,5.11-7.5Z"/>
      <path class="cls-7" d="m1376.52,980.5c0-6.83,4.24-12.17,10.49-12.17s10.42,5.28,10.42,12.17-4.2,12.17-10.49,12.17-10.42-5.28-10.42-12.17Zm15.6,0c0-4.27-2.09-7.5-5.18-7.5s-5.11,3.13-5.11,7.5,2.05,7.5,5.18,7.5,5.11-3.16,5.11-7.5Z"/>
      <path class="cls-7" d="m1407.8,980.5c0-6.83,4.24-12.17,10.49-12.17s10.42,5.28,10.42,12.17-4.2,12.17-10.49,12.17-10.42-5.28-10.42-12.17Zm15.6,0c0-4.27-2.09-7.5-5.18-7.5s-5.11,3.13-5.11,7.5,2.05,7.5,5.18,7.5,5.11-3.16,5.11-7.5Z"/>
      <path class="cls-7" d="m1720.27,980.5c0-6.83,4.24-12.17,10.49-12.17s10.42,5.28,10.42,12.17-4.2,12.17-10.49,12.17-10.42-5.28-10.42-12.17Zm15.6,0c0-4.27-2.08-7.5-5.18-7.5s-5.11,3.13-5.11,7.5,2.05,7.5,5.18,7.5,5.11-3.16,5.11-7.5Z"/>
      <path class="cls-7" d="m1755.55,973.81l-4.1,1.01-1.08-4.24,6.76-2.02h3.53v23.71h-5.11v-18.46Z"/>
      <path class="cls-7" d="m1772.29,980.5c0-6.83,4.24-12.17,10.49-12.17s10.42,5.28,10.42,12.17-4.2,12.17-10.49,12.17-10.42-5.28-10.42-12.17Zm15.6,0c0-4.27-2.09-7.5-5.18-7.5s-5.11,3.13-5.11,7.5,2.05,7.5,5.18,7.5,5.11-3.16,5.11-7.5Z"/>
      <path class="cls-7" d="m2157.65,980.5c0-6.83,4.24-12.17,10.49-12.17s10.42,5.28,10.42,12.17-4.2,12.17-10.49,12.17-10.42-5.28-10.42-12.17Zm15.6,0c0-4.27-2.08-7.5-5.18-7.5s-5.11,3.13-5.11,7.5,2.05,7.5,5.18,7.5,5.11-3.16,5.11-7.5Z"/>
      <path class="cls-7" d="m2192.93,973.81l-4.1,1.01-1.08-4.24,6.76-2.02h3.53v23.71h-5.11v-18.46Z"/>
      <path class="cls-7" d="m2209.67,980.5c0-6.83,4.24-12.17,10.49-12.17s10.42,5.28,10.42,12.17-4.2,12.17-10.49,12.17-10.42-5.28-10.42-12.17Zm15.6,0c0-4.27-2.09-7.5-5.18-7.5s-5.11,3.13-5.11,7.5,2.05,7.5,5.18,7.5,5.11-3.16,5.11-7.5Z"/>
    </g>
    <g>
      <path class="cls-7" d="m1099.26,756.85l-4.1,1.01-1.08-4.24,6.76-2.02h3.53v23.71h-5.11v-18.46Z"/>
      <path class="cls-7" d="m1116,763.54c0-6.83,4.24-12.17,10.49-12.17s10.42,5.28,10.42,12.17-4.2,12.17-10.49,12.17-10.42-5.28-10.42-12.17Zm15.6,0c0-4.27-2.09-7.5-5.18-7.5s-5.11,3.13-5.11,7.5,2.05,7.5,5.18,7.5,5.11-3.16,5.11-7.5Z"/>
      <path class="cls-7" d="m1147.28,763.54c0-6.83,4.24-12.17,10.49-12.17s10.42,5.28,10.42,12.17-4.2,12.17-10.49,12.17-10.42-5.28-10.42-12.17Zm15.6,0c0-4.27-2.08-7.5-5.18-7.5s-5.11,3.13-5.11,7.5,2.05,7.5,5.18,7.5,5.11-3.16,5.11-7.5Z"/>
      <path class="cls-7" d="m1182.55,756.85l-4.1,1.01-1.08-4.24,6.76-2.02h3.53v23.71h-5.11v-18.46Z"/>
      <path class="cls-7" d="m1199.3,763.54c0-6.83,4.24-12.17,10.49-12.17s10.42,5.28,10.42,12.17-4.2,12.17-10.49,12.17-10.42-5.28-10.42-12.17Zm15.6,0c0-4.27-2.09-7.5-5.18-7.5s-5.11,3.13-5.11,7.5,2.05,7.5,5.18,7.5,5.11-3.16,5.11-7.5Z"/>
      <path class="cls-7" d="m1230.57,763.54c0-6.83,4.24-12.17,10.49-12.17s10.42,5.28,10.42,12.17-4.2,12.17-10.49,12.17-10.42-5.28-10.42-12.17Zm15.6,0c0-4.27-2.09-7.5-5.18-7.5s-5.11,3.13-5.11,7.5,2.05,7.5,5.18,7.5,5.11-3.16,5.11-7.5Z"/>
      <path class="cls-7" d="m1261.84,763.54c0-6.83,4.24-12.17,10.49-12.17s10.42,5.28,10.42,12.17-4.2,12.17-10.49,12.17-10.42-5.28-10.42-12.17Zm15.6,0c0-4.27-2.09-7.5-5.18-7.5s-5.11,3.13-5.11,7.5,2.05,7.5,5.18,7.5,5.11-3.16,5.11-7.5Z"/>
      <path class="cls-7" d="m1293.11,763.54c0-6.83,4.24-12.17,10.49-12.17s10.42,5.28,10.42,12.17-4.2,12.17-10.49,12.17-10.42-5.28-10.42-12.17Zm15.6,0c0-4.27-2.09-7.5-5.18-7.5s-5.11,3.13-5.11,7.5,2.05,7.5,5.18,7.5,5.11-3.16,5.11-7.5Z"/>
      <path class="cls-7" d="m1324.39,763.54c0-6.83,4.24-12.17,10.49-12.17s10.42,5.28,10.42,12.17-4.2,12.17-10.49,12.17-10.42-5.28-10.42-12.17Zm15.6,0c0-4.27-2.08-7.5-5.18-7.5s-5.11,3.13-5.11,7.5,2.05,7.5,5.18,7.5,5.11-3.16,5.11-7.5Z"/>
      <path class="cls-7" d="m1355.66,763.54c0-6.83,4.24-12.17,10.49-12.17s10.42,5.28,10.42,12.17-4.2,12.17-10.49,12.17-10.42-5.28-10.42-12.17Zm15.6,0c0-4.27-2.09-7.5-5.18-7.5s-5.11,3.13-5.11,7.5,2.05,7.5,5.18,7.5,5.11-3.16,5.11-7.5Z"/>
      <path class="cls-7" d="m1390.93,756.85l-4.1,1.01-1.08-4.24,6.76-2.02h3.53v23.71h-5.11v-18.46Z"/>
      <path class="cls-7" d="m1411.85,756.85l-4.1,1.01-1.08-4.24,6.76-2.02h3.53v23.71h-5.11v-18.46Z"/>
      <path class="cls-7" d="m1428.6,763.54c0-6.83,4.24-12.17,10.49-12.17s10.42,5.28,10.42,12.17-4.2,12.17-10.49,12.17-10.42-5.28-10.42-12.17Zm15.6,0c0-4.27-2.09-7.5-5.18-7.5s-5.11,3.13-5.11,7.5,2.05,7.5,5.18,7.5,5.11-3.16,5.11-7.5Z"/>
      <path class="cls-7" d="m2074.36,763.54c0-6.83,4.24-12.17,10.49-12.17s10.42,5.28,10.42,12.17-4.2,12.17-10.49,12.17-10.42-5.28-10.42-12.17Zm15.6,0c0-4.27-2.08-7.5-5.18-7.5s-5.11,3.13-5.11,7.5,2.05,7.5,5.18,7.5,5.11-3.16,5.11-7.5Z"/>
      <path class="cls-7" d="m2109.63,756.85l-4.1,1.01-1.08-4.24,6.76-2.02h3.53v23.71h-5.11v-18.46Z"/>
      <path class="cls-7" d="m2126.38,763.54c0-6.83,4.24-12.17,10.49-12.17s10.42,5.28,10.42,12.17-4.2,12.17-10.49,12.17-10.42-5.28-10.42-12.17Zm15.6,0c0-4.27-2.08-7.5-5.18-7.5s-5.11,3.13-5.11,7.5,2.05,7.5,5.18,7.5,5.11-3.16,5.11-7.5Z"/>
      <path class="cls-7" d="m2157.65,763.54c0-6.83,4.24-12.17,10.49-12.17s10.42,5.28,10.42,12.17-4.2,12.17-10.49,12.17-10.42-5.28-10.42-12.17Zm15.6,0c0-4.27-2.08-7.5-5.18-7.5s-5.11,3.13-5.11,7.5,2.05,7.5,5.18,7.5,5.11-3.16,5.11-7.5Z"/>
      <path class="cls-7" d="m2192.93,756.85l-4.1,1.01-1.08-4.24,6.76-2.02h3.53v23.71h-5.11v-18.46Z"/>
      <path class="cls-7" d="m2209.67,763.54c0-6.83,4.24-12.17,10.49-12.17s10.42,5.28,10.42,12.17-4.2,12.17-10.49,12.17-10.42-5.28-10.42-12.17Zm15.6,0c0-4.27-2.09-7.5-5.18-7.5s-5.11,3.13-5.11,7.5,2.05,7.5,5.18,7.5,5.11-3.16,5.11-7.5Z"/>
      <path class="cls-7" d="m2240.95,763.54c0-6.83,4.24-12.17,10.49-12.17s10.42,5.28,10.42,12.17-4.2,12.17-10.49,12.17-10.42-5.28-10.42-12.17Zm15.6,0c0-4.27-2.08-7.5-5.18-7.5s-5.11,3.13-5.11,7.5,2.05,7.5,5.18,7.5,5.11-3.16,5.11-7.5Z"/>
      <path class="cls-7" d="m2272.22,763.54c0-6.83,4.24-12.17,10.49-12.17s10.42,5.28,10.42,12.17-4.2,12.17-10.49,12.17-10.42-5.28-10.42-12.17Zm15.6,0c0-4.27-2.09-7.5-5.18-7.5s-5.11,3.13-5.11,7.5,2.05,7.5,5.18,7.5,5.11-3.16,5.11-7.5Z"/>
      <path class="cls-7" d="m2307.49,756.85l-4.1,1.01-1.08-4.24,6.76-2.02h3.53v23.71h-5.11v-18.46Z"/>
    </g>
    <g>
      <path class="cls-7" d="m1099.26,816.37l-4.1,1.01-1.08-4.24,6.76-2.02h3.53v23.71h-5.11v-18.46Z"/>
      <path class="cls-7" d="m1116,823.06c0-6.83,4.24-12.17,10.49-12.17s10.42,5.28,10.42,12.17-4.2,12.17-10.49,12.17-10.42-5.28-10.42-12.17Zm15.6,0c0-4.27-2.09-7.5-5.18-7.5s-5.11,3.13-5.11,7.5,2.05,7.5,5.18,7.5,5.11-3.16,5.11-7.5Z"/>
      <path class="cls-17" d="m1147.28,823.06c0-6.83,4.24-12.17,10.49-12.17s10.42,5.28,10.42,12.17-4.2,12.17-10.49,12.17-10.42-5.28-10.42-12.17Zm15.6,0c0-4.27-2.08-7.5-5.18-7.5s-5.11,3.13-5.11,7.5,2.05,7.5,5.18,7.5,5.11-3.16,5.11-7.5Z"/>
      <path class="cls-17" d="m1182.55,816.37l-4.1,1.01-1.08-4.24,6.76-2.02h3.53v23.71h-5.11v-18.46Z"/>
      <path class="cls-7" d="m1199.3,823.06c0-6.83,4.24-12.17,10.49-12.17s10.42,5.28,10.42,12.17-4.2,12.17-10.49,12.17-10.42-5.28-10.42-12.17Zm15.6,0c0-4.27-2.09-7.5-5.18-7.5s-5.11,3.13-5.11,7.5,2.05,7.5,5.18,7.5,5.11-3.16,5.11-7.5Z"/>
      <path class="cls-7" d="m1230.57,823.06c0-6.83,4.24-12.17,10.49-12.17s10.42,5.28,10.42,12.17-4.2,12.17-10.49,12.17-10.42-5.28-10.42-12.17Zm15.6,0c0-4.27-2.09-7.5-5.18-7.5s-5.11,3.13-5.11,7.5,2.05,7.5,5.18,7.5,5.11-3.16,5.11-7.5Z"/>
      <path class="cls-7" d="m1261.84,823.06c0-6.83,4.24-12.17,10.49-12.17s10.42,5.28,10.42,12.17-4.2,12.17-10.49,12.17-10.42-5.28-10.42-12.17Zm15.6,0c0-4.27-2.09-7.5-5.18-7.5s-5.11,3.13-5.11,7.5,2.05,7.5,5.18,7.5,5.11-3.16,5.11-7.5Z"/>
      <path class="cls-7" d="m1293.11,823.06c0-6.83,4.24-12.17,10.49-12.17s10.42,5.28,10.42,12.17-4.2,12.17-10.49,12.17-10.42-5.28-10.42-12.17Zm15.6,0c0-4.27-2.09-7.5-5.18-7.5s-5.11,3.13-5.11,7.5,2.05,7.5,5.18,7.5,5.11-3.16,5.11-7.5Z"/>
      <path class="cls-7" d="m2074.36,823.06c0-6.83,4.24-12.17,10.49-12.17s10.42,5.28,10.42,12.17-4.2,12.17-10.49,12.17-10.42-5.28-10.42-12.17Zm15.6,0c0-4.27-2.08-7.5-5.18-7.5s-5.11,3.13-5.11,7.5,2.05,7.5,5.18,7.5,5.11-3.16,5.11-7.5Z"/>
      <path class="cls-7" d="m2109.63,816.37l-4.1,1.01-1.08-4.24,6.76-2.02h3.53v23.71h-5.11v-18.46Z"/>
      <path class="cls-7" d="m2126.38,823.06c0-6.83,4.24-12.17,10.49-12.17s10.42,5.28,10.42,12.17-4.2,12.17-10.49,12.17-10.42-5.28-10.42-12.17Zm15.6,0c0-4.27-2.08-7.5-5.18-7.5s-5.11,3.13-5.11,7.5,2.05,7.5,5.18,7.5,5.11-3.16,5.11-7.5Z"/>
      <path class="cls-7" d="m2157.65,823.06c0-6.83,4.24-12.17,10.49-12.17s10.42,5.28,10.42,12.17-4.2,12.17-10.49,12.17-10.42-5.28-10.42-12.17Zm15.6,0c0-4.27-2.08-7.5-5.18-7.5s-5.11,3.13-5.11,7.5,2.05,7.5,5.18,7.5,5.11-3.16,5.11-7.5Z"/>
      <path class="cls-7" d="m2192.93,816.37l-4.1,1.01-1.08-4.24,6.76-2.02h3.53v23.71h-5.11v-18.46Z"/>
      <path class="cls-7" d="m2209.67,823.06c0-6.83,4.24-12.17,10.49-12.17s10.42,5.28,10.42,12.17-4.2,12.17-10.49,12.17-10.42-5.28-10.42-12.17Zm15.6,0c0-4.27-2.09-7.5-5.18-7.5s-5.11,3.13-5.11,7.5,2.05,7.5,5.18,7.5,5.11-3.16,5.11-7.5Z"/>
      <path class="cls-7" d="m2240.95,823.06c0-6.83,4.24-12.17,10.49-12.17s10.42,5.28,10.42,12.17-4.2,12.17-10.49,12.17-10.42-5.28-10.42-12.17Zm15.6,0c0-4.27-2.08-7.5-5.18-7.5s-5.11,3.13-5.11,7.5,2.05,7.5,5.18,7.5,5.11-3.16,5.11-7.5Z"/>
      <path class="cls-7" d="m2272.22,823.06c0-6.83,4.24-12.17,10.49-12.17s10.42,5.28,10.42,12.17-4.2,12.17-10.49,12.17-10.42-5.28-10.42-12.17Zm15.6,0c0-4.27-2.09-7.5-5.18-7.5s-5.11,3.13-5.11,7.5,2.05,7.5,5.18,7.5,5.11-3.16,5.11-7.5Z"/>
      <path class="cls-7" d="m2307.49,816.37l-4.1,1.01-1.08-4.24,6.76-2.02h3.53v23.71h-5.11v-18.46Z"/>
    </g>
    <g>
      <g>
        <polygon class="cls-17" points="1367.39 880.31 1565.55 967.11 1565.55 889.88 1462.31 847.42 1565.55 804.96 1565.55 728.45 1367.39 815.25 1367.39 880.31"/>
        <polygon class="cls-17" points="1747.73 674.97 1576.51 1032.88 1648.88 1032.88 1820.1 674.97 1747.73 674.97"/>
      </g>
      <polygon class="cls-17" points="1833.36 728.45 1833.36 805.68 1936.6 848.14 1833.36 890.6 1833.36 967.11 2031.52 880.31 2031.52 815.25 1833.36 728.45"/>
    </g>
    <g>
      <path class="cls-17" d="m1291.94,416.85l-4.38-10.84c-4.69-11.62-15.97-19.23-28.5-19.23h-80.72v269.88h333.9v-218.66h-188.95c-13.79,0-26.2-8.37-31.36-21.16Z"/>
      <g>
        <path class="cls-11" d="m1228.72,550.9v-19.45l68.23-29.89v19.88l-47.65,19.6,47.65,19.6v20.16l-68.23-29.89Z"/>
        <path class="cls-11" d="m1367.86,478.3h18.19l-62.45,130.54h-18.19l62.45-130.54Z"/>
        <path class="cls-11" d="m1461.89,531.45v19.45l-68.23,29.89v-19.88l47.65-19.6-47.65-19.6v-20.16l68.23,29.89Z"/>
      </g>
    </g>
  </g>
</svg>