<?xml version="1.0" encoding="UTF-8"?>
<svg id="_Ñëîé_1" data-name="Ñëîé 1" xmlns="http://www.w3.org/2000/svg" viewBox="0 0 2800 2000">
  <defs>
    <style>
      .cls-1 {
        fill: #060633;
      }

      .cls-1, .cls-2, .cls-3, .cls-4, .cls-5, .cls-6, .cls-7, .cls-8, .cls-9, .cls-10, .cls-11, .cls-12, .cls-13, .cls-14, .cls-15 {
        stroke-width: 0px;
      }

      .cls-2 {
        fill: #ea6868;
      }

      .cls-3 {
        fill: #fa7267;
      }

      .cls-4 {
        fill: #0b0755;
      }

      .cls-5 {
        fill: #dde7fe;
      }

      .cls-6 {
        fill: #bdd1f9;
      }

      .cls-7 {
        fill: #fb9391;
      }

      .cls-8 {
        fill: #6180ce;
      }

      .cls-9 {
        fill: #fff;
      }

      .cls-10 {
        fill: #1abc9c;
      }

      .cls-11 {
        fill: #050521;
      }

      .cls-12 {
        fill: #474fea;
      }

      .cls-13 {
        fill: #7c9af2;
      }

      .cls-14 {
        fill: #c0d0fa;
      }

      .cls-15 {
        fill: #e27d7d;
      }
    </style>
  </defs>
  <rect class="cls-9" width="2800" height="2000"/>
  <g>
    <path class="cls-5" d="m2276.63,1742.39c215.23,4.16,386.84-149.9,386.84-369.61,0-260.68-216.19-286.89-186-440.56,110.64-563.17-334.4-676.78-505.01-616.81-308.43,108.42-486.29-147.81-763.67-147.83-443.11-.03-552.92,374.95-620.74,470.76-70.19,99.14-200.86,187.67-288.34,273.06-244.96,239.11-155.86,626.18,90.4,803.61,0,0,1885.79,27.37,1886.52,27.38Z"/>
    <g>
      <path class="cls-14" d="m660.61,1661.27c.15,0,.31,0,.47-.03,1.27-.21,2.14-1.41,1.93-2.68-54.44-332.64-112.5-570.05-163.46-668.48-1.13-2.19-1.95-3.76-2.24-4.55-.45-1.21-1.79-1.83-3-1.39-1.21.45-1.83,1.79-1.39,3,.39,1.06,1.17,2.57,2.47,5.08,50.75,98.01,108.64,334.92,163,667.09.18,1.12,1.13,1.92,2.21,1.96Z"/>
      <path class="cls-14" d="m457.93,967.9c6.11,11.1,41.09,34.57,44.26,32.83,3.17-1.74,2.04-43.86-4.07-54.96-6.11-11.1-20.06-15.14-31.16-9.03-11.1,6.11-15.14,20.06-9.03,31.16Z"/>
      <path class="cls-14" d="m526.15,1008.12c-5.3,11.83-2.94,54.86.44,56.38,3.38,1.51,37.09-25.34,42.39-37.17,5.3-11.83.02-25.71-11.81-31.02-11.83-5.3-25.71-.02-31.02,11.81Z"/>
      <path class="cls-14" d="m471.95,1075.77c12.72,2.5,54.12-9.49,54.83-13.12.71-3.63-33.04-30.43-45.76-32.93-12.72-2.5-25.06,5.77-27.56,18.49-2.5,12.72,5.77,25.06,18.49,27.56Z"/>
      <path class="cls-14" d="m608.36,1234.62c-10.99,18.78-14.83,91.02-9.47,94.16,5.36,3.14,66.48-35.58,77.47-54.36,10.99-18.78,4.68-42.91-14.1-53.9-18.78-10.99-42.91-4.68-53.9,14.1Z"/>
      <path class="cls-14" d="m505.68,1337.7c20.77,6.48,92.02-6.05,93.87-11.97,1.85-5.93-49.63-56.76-70.4-63.24-20.77-6.48-42.86,5.1-49.34,25.87-6.48,20.77,5.1,42.86,25.87,49.34Z"/>
      <path class="cls-14" d="m653.99,1321.98c-18.18,19.45-42.22,104.66-36.67,109.85,5.55,5.19,88.94-24.57,107.11-44.02,18.18-19.45,17.14-49.96-2.31-68.14-19.45-18.18-49.96-17.14-68.14,2.31Z"/>
      <path class="cls-14" d="m508.97,1455.51c26.1,5.27,111.25-18.95,112.76-26.39,1.51-7.45-67.56-62.84-93.66-68.11-26.1-5.27-51.53,11.61-56.8,37.7-5.27,26.1,11.61,51.53,37.7,56.8Z"/>
      <path class="cls-14" d="m675.08,1430.89c-18.18,19.45-42.22,104.66-36.67,109.85,5.55,5.19,88.94-24.57,107.11-44.02,18.18-19.45,17.15-49.96-2.31-68.14-19.45-18.18-49.96-17.14-68.14,2.31Z"/>
      <path class="cls-14" d="m530.05,1564.42c26.1,5.27,111.25-18.95,112.76-26.39,1.5-7.45-67.56-62.84-93.66-68.11-26.1-5.27-51.53,11.61-56.8,37.7-5.27,26.1,11.61,51.53,37.7,56.8Z"/>
      <path class="cls-14" d="m734.05,1571.98c-24.22,11.06-78.9,80.69-75.75,87.6,3.16,6.91,91.59,11.16,115.81.1,24.22-11.06,34.88-39.66,23.82-63.88-11.06-24.22-39.66-34.88-63.88-23.82Z"/>
      <path class="cls-14" d="m547.27,1671.66c25.23,8.5,112.75-4.89,115.17-12.09,2.42-7.2-59.18-70.79-84.41-79.29-25.23-8.5-52.57,5.07-61.07,30.31-8.5,25.23,5.07,52.57,30.31,61.07Z"/>
      <path class="cls-14" d="m551.42,1078.6c-5.39,12.02-2.99,55.74.44,57.28,3.43,1.54,37.68-25.75,43.07-37.76,5.39-12.02.02-26.13-12-31.52-12.02-5.39-26.13-.02-31.52,12Z"/>
      <path class="cls-14" d="m497.94,1148.35c12.92,2.54,54.98-9.64,55.71-13.33.73-3.69-33.57-30.92-46.49-33.46-12.92-2.55-25.46,5.87-28,18.79-2.55,12.92,5.87,25.46,18.79,28Z"/>
      <path class="cls-14" d="m582.11,1145c-9.03,16.39-10.73,78.58-6.05,81.16,4.68,2.58,56.35-32.06,65.39-48.45,9.03-16.39,3.07-36.99-13.32-46.02-16.39-9.03-36.99-3.07-46.02,13.32Z"/>
      <path class="cls-14" d="m497.72,1243.07c18.36,3.62,78.11-13.7,79.15-18.94,1.03-5.24-47.7-43.92-66.05-47.54-18.36-3.62-36.17,8.33-39.79,26.69-3.62,18.36,8.33,36.17,26.69,39.79Z"/>
    </g>
    <g>
      <path class="cls-14" d="m2188.93,1661.44c-.12,0-.25-.01-.38-.04-1.01-.22-1.66-1.22-1.44-2.23,56.81-265.32,112.8-453.92,157.64-531.07,1-1.71,1.71-2.95,1.98-3.57.41-.96,1.51-1.4,2.47-1,.96.41,1.4,1.51,1,2.47-.35.83-1.04,2.02-2.19,3.99-44.64,76.82-100.48,265.03-157.21,529.97-.19.89-.98,1.5-1.86,1.49Z"/>
      <path class="cls-14" d="m2379.07,1111.89c-5.35,8.68-34.4,26.19-36.88,24.66s.08-35.34,5.43-44.03c5.35-8.68,16.72-11.39,25.41-6.04,8.68,5.35,11.39,16.72,6.04,25.41Z"/>
      <path class="cls-14" d="m2322.65,1141.56c3.8,9.72.21,44.23-2.56,45.31-2.77,1.09-28.83-21.83-32.63-31.55-3.8-9.72.99-20.68,10.71-24.48,9.72-3.8,20.68.99,24.48,10.71Z"/>
      <path class="cls-14" d="m2363.57,1198.08c-10.32,1.52-43.14-9.75-43.57-12.7-.43-2.95,27.76-23.17,38.08-24.69,10.32-1.52,19.92,5.62,21.44,15.95,1.52,10.32-5.62,19.92-15.95,21.44Z"/>
      <path class="cls-14" d="m2247.67,1320.44c8.1,15.53,8.36,73.77,3.93,76.08-4.43,2.31-52.05-31.21-60.16-46.74-8.1-15.53-2.08-34.68,13.45-42.78,15.53-8.1,34.68-2.08,42.78,13.45Z"/>
      <path class="cls-14" d="m2326.19,1407.35c-16.95,4.4-73.75-8.47-75.01-13.31-1.26-4.84,42.13-43.69,59.08-48.08,16.95-4.4,34.26,5.78,38.66,22.73,4.4,16.95-5.78,34.26-22.73,38.66Z"/>
      <path class="cls-14" d="m2207.56,1388.9c13.85,16.35,29.84,85.8,25.18,89.76-4.67,3.95-70.54-23.24-84.4-39.59-13.85-16.35-11.83-40.84,4.53-54.69,16.35-13.85,40.84-11.83,54.69,4.53Z"/>
      <path class="cls-14" d="m2318.92,1501.94c-21.19,3.22-88.71-19.59-89.63-25.64-.92-6.05,56.79-47.87,77.98-51.09,21.19-3.22,40.97,11.35,44.19,32.54,3.22,21.19-11.35,40.97-32.54,44.19Z"/>
      <path class="cls-14" d="m2186.33,1475.63c13.85,16.35,29.84,85.8,25.18,89.76-4.67,3.95-70.54-23.24-84.4-39.59-13.85-16.35-11.83-40.84,4.53-54.69,16.35-13.85,40.84-11.83,54.69,4.53Z"/>
      <path class="cls-14" d="m2297.7,1588.68c-21.19,3.22-88.71-19.59-89.63-25.64-.92-6.05,56.79-47.87,77.98-51.09,21.19-3.22,40.97,11.35,44.19,32.54,3.22,21.19-11.35,40.97-32.54,44.19Z"/>
      <path class="cls-14" d="m2133.38,1586.76c19.04,9.84,60.28,67.97,57.47,73.4-2.81,5.43-74.08,5.38-93.12-4.46-19.04-9.84-26.49-33.26-16.65-52.29,9.84-19.04,33.26-26.49,52.29-16.65Z"/>
      <path class="cls-14" d="m2279.65,1674.23c-20.62,5.84-90.46-8.35-92.13-14.24-1.67-5.89,50.36-54.6,70.98-60.44,20.62-5.84,42.07,6.14,47.91,26.76,5.84,20.62-6.14,42.07-26.76,47.91Z"/>
      <path class="cls-14" d="m2299.57,1197.24c3.86,9.87.22,44.94-2.6,46.04-2.82,1.1-29.29-22.18-33.15-32.05-3.86-9.87,1.01-21.01,10.88-24.87,9.87-3.86,21.01,1.01,24.87,10.88Z"/>
      <path class="cls-14" d="m2339.83,1255.41c-10.49,1.54-43.83-9.91-44.27-12.9-.44-2.99,28.21-23.54,38.69-25.08,10.49-1.54,20.24,5.71,21.78,16.2,1.54,10.49-5.71,20.24-16.2,21.78Z"/>
      <path class="cls-14" d="m2272.29,1249.42c6.62,13.53,5.54,63.6,1.68,65.49-3.86,1.89-44.05-27.99-50.67-41.52-6.62-13.53-1.02-29.86,12.51-36.48s29.86-1.02,36.48,12.51Z"/>
      <path class="cls-14" d="m2336.29,1331.58c-14.9,2.19-62.27-14.08-62.89-18.33-.62-4.25,40.07-33.45,54.97-35.63,14.9-2.19,28.75,8.12,30.94,23.02,2.19,14.9-8.12,28.75-23.02,30.94Z"/>
    </g>
    <path class="cls-6" d="m2562.43,1709.95c0-37.3-449.16-66.57-1090.63-66.57s-1161.48,30.24-1161.48,67.54,520.01,67.54,1161.48,67.54,1090.63-31.21,1090.63-68.51Z"/>
    <path class="cls-9" d="m1855.12,494.5l-.67,155.8c-16.87-14.61-38.86-23.5-62.93-23.6-53.47-.23-97,42.93-97.23,96.4-.23,53.47,42.93,97,96.4,97.23,24.07.1,46.13-8.59,63.13-23.06l-.67,155.8,144.29.62c-7.48-13.81-11.69-29.63-11.62-46.44.23-53.47,43.76-96.63,97.23-96.4s96.63,43.76,96.4,97.23c-.07,16.81-4.42,32.6-12.02,46.34l144.29.62,1.96-458.57-458.57-1.96Z"/>
    <g>
      <g>
        <g>
          <path class="cls-7" d="m1940.25,1639.81s7.9,32.75,1.64,37.45c-11.35,8.5-33.11,18.1-30.41,23.7,2.7,5.6,57.02-1.59,57.79-7.14.78-5.55-7.54-21.07-5.44-53.77l-23.58-.24Z"/>
          <path class="cls-4" d="m1967.1,1681.96c1.39,5.87,2.45,9.88,2.17,11.85-.78,5.55-55.1,12.74-57.79,7.14-2-4.15,9.32-10.69,20.03-17.12,3.31,4.15,10,10.41,35.59-1.87Z"/>
        </g>
        <g>
          <path class="cls-7" d="m1844,1639.81s7.9,32.75,1.64,37.45c-11.35,8.5-33.11,18.1-30.41,23.7,2.7,5.6,57.02-1.59,57.79-7.14.78-5.55-7.54-21.07-5.44-53.77l-23.58-.24Z"/>
          <path class="cls-4" d="m1870.84,1681.96c1.39,5.87,2.45,9.88,2.17,11.85-.78,5.55-55.1,12.74-57.79,7.14-2-4.15,9.32-10.69,20.03-17.12,3.31,4.15,10,10.41,35.59-1.87Z"/>
        </g>
        <path class="cls-3" d="m1823.32,1150.28c1.07,10.05,13.84,17.51,11.25,27.28-.57,2.17-1.9,4.1-2.32,6.31-.93,4.85,3.01,9.67,7.75,11.04s9.89,0,14.28-2.25c4.39-2.25,8.31-5.34,12.63-7.73,9.69-5.35,20.94-6.92,31.6-9.89,10.82-3.01,21.45-7.58,32.68-7.66,12.95-.1,25.09,5.74,37.51,9.42,12.66,3.75,25.96,5.28,39.14,4.5,6.88-.4,13.94-1.51,19.79-5.16,11.66-7.28,15.14-23.42,9.29-35.48-3.34-6.88-9.31-12.26-16.21-15.43-6.16-2.83-13.77-3.35-18.65-8.52-6.83-7.24-3.9-19.08-7.11-28.5-2.7-7.93-10.02-14.05-17.8-16.68-7.26-2.46-16.03-2.2-21.79-7.98-6.26-6.28-5.07-15.73-6.73-23.72-2.37-11.43-10.83-21.05-21.18-26.43-3.09-1.61-6.41-2.9-9.85-3.87-22.79-6.41-51.24,1.44-57.05,27.38-1.78,7.95-.93,16.62-4.64,23.87-4.03,7.88-12.97,13.05-14.88,21.7-2.4,10.86,7.59,21.55,5.41,32.46-1.42,7.13-7.58,12.15-13.01,16.98-5.43,4.84-10.88,11.13-10.12,18.36Z"/>
        <path class="cls-4" d="m1953.21,1284.58s24.44,29.54,33.61,68.24c9.17,38.7-15.76,128.09-14.74,155.59,1.02,27.5-4.29,143.74-4.29,143.74l-30.2-.59s-18.33-99.13-23.76-140.88c-5.43-41.76-13.39-136.47-13.39-136.47,0,0-17.53,106.94-20.06,151.75-2.53,44.81-7.65,127.31-7.65,127.31l-34.6,1.02s-14.89-94.72-11.2-179.01c2.38-54.4,30.55-183.53,30.55-183.53l95.73-7.15Z"/>
        <path class="cls-9" d="m1897.54,1124.34s41.42-6.11,69.25,12.22c27.84,18.33,63.82,77.4,47.53,105.24-16.29,27.84-54.32,54.32-89.55,54.27l-66.61,3.44-48.89-73.33s18.33-71.97,46.17-88.27c27.84-16.29,42.1-13.58,42.1-13.58Z"/>
        <path class="cls-2" d="m1867.07,1068.21s-3.52-4.07-5.61-1.96c-5.34,5.38,1.86,10.68,5.99,11.49l-.38-9.53Z"/>
        <path class="cls-7" d="m1897.54,1009.44c18.32-1.14,34.88,11.85,38.16,29.91,1.08,5.94.66,11.76-.96,17.12-3.38,13.27-6.22,23.97-10.41,32.04-4.25,8.18-5.47,17.59-3.02,26.47l2.47,8.97c-19.75,13.25-30.11,5.63-30.11,5.63l-2.92-22.85h0c-23.17.2-25.52-42.31-27.11-54.76h.04c-.08-.46-.16-.93-.21-1.4-2.66-20.83,12.76-39.81,34.07-41.14Z"/>
        <path class="cls-3" d="m1904.86,1046.01c5.02,3.95,9.53,8.5,14.02,13.04,4.76,4.8,9.7,9.91,11.46,16.44,5.31-5.23,8.23-12.38,10.55-19.46,1.08-3.28,2.06-6.65,2.12-10.1.07-4.89-1.73-9.59-3.5-14.15-2.29-5.88-4.74-12.01-9.48-16.18-3.14-2.76-7.07-4.46-11.06-5.73-9.3-2.95-19.44-3.71-28.85-1.14-9.41,2.56-18.02,8.63-22.74,17.17-6.08,11-5.2,24.37-4.16,36.89.59-5.33,3.45-10.1,6.25-14.67,1.82-2.98,3.69-6.01,6.38-8.22,4.59-3.77,6.08-3.27,14.08-10.33,3.27,7.38,8.67,11.51,14.94,16.45Z"/>
        <path class="cls-7" d="m1924.99,1068.05c.44-1.25,1.34-2.27,2.5-2.92,2.38-1.33,6.65-3,10.08-.35,5.02,3.88-2.43,16.84-12.04,12.1,0,0-2.85-2.21-.54-8.83Z"/>
        <path class="cls-1" d="m1873.12,1067.79c-.39-1.72.68-3.43,2.4-3.82,1.72-.39,3.43.69,3.82,2.4.39,1.72-.69,3.43-2.4,3.82-1.72.39-3.43-.68-3.82-2.4Z"/>
        <path class="cls-1" d="m1903.42,1067.32c-.39-1.72.69-3.43,2.4-3.82,1.72-.39,3.43.68,3.82,2.4.39,1.72-.68,3.43-2.4,3.82-1.72.39-3.43-.68-3.82-2.4Z"/>
        <path class="cls-2" d="m1880.38,1087.36s4.05-3,5.71-2.66c1.66.33,2.69,2.23,2.69,2.23,0,0,.83-2.03,2.81-2.2,1.98-.17,8.85,3.08,8.85,3.08,0,0-5.61,8.88-11.68,8.22-6.18-.67-8.38-8.66-8.38-8.66h0Z"/>
        <path class="cls-4" d="m1913.4,1060.2c.38-.02.75-.2,1-.52.44-.59.33-1.42-.26-1.86-.17-.13-4.38-3.23-10.3-2.7-.73.07-1.27.71-1.2,1.44.07.73.77,1.28,1.44,1.2,4.93-.44,8.42,2.14,8.46,2.17.26.19.56.28.86.27Z"/>
        <path class="cls-4" d="m1879.9,1056.46c.31-.22.53-.57.56-.98.06-.73-.49-1.37-1.22-1.43-.22-.02-5.39-.4-10.13,3.27-.58.45-.69,1.28-.24,1.86.45.58,1.3.68,1.86.24,3.92-3.03,8.25-2.73,8.29-2.72.32.03.63-.07.87-.24Z"/>
        <path class="cls-2" d="m1890.72,1081.2c-3.81-.09-5.42-2.74-5.74-4.35-.06-.28,0-.57.15-.82,2.84-4.52,1.72-10.48,1.71-10.53-.12-.61.28-1.19.88-1.31.6-.12,1.19.27,1.31.88.05.27,1.24,6.5-1.74,11.71.33.85,1.48,2.69,5.01,2.05.62-.11,1.19.3,1.3.9.11.61-.3,1.19-.9,1.3-.72.13-1.37.18-1.97.16Z"/>
        <path class="cls-9" d="m1900.44,1087.8s-12.18.38-20.06-.44c0,0,4.03,5.9,8.68,5.59,4.64-.31,11.38-5.15,11.38-5.15Z"/>
        <path class="cls-1" d="m1924.77,1296.6c-.23,0-.44-.15-.51-.38l-5.34-17.6c-.05-.15-.02-.31.06-.44.27-.41,27.54-41.4,61.85-56.55.26-.12.58,0,.7.27.12.27,0,.58-.27.7-32.77,14.47-59.12,52.79-61.25,55.96l5.26,17.36c.09.28-.07.58-.35.66-.05.02-.1.02-.15.02Z"/>
        <path class="cls-1" d="m1971.93,1227.34c-.2,0-.4-.12-.49-.32-8.51-19.29-21.64-48.41-23.12-49.98-.21-.12-.31-.37-.24-.6.08-.28.37-.44.66-.36,1.33.38,13.61,27.68,23.68,50.52.12.27,0,.58-.27.7-.07.03-.14.05-.21.05Z"/>
        <path class="cls-1" d="m1857.14,1211.97c-.14,0-.28-.05-.38-.16-14.74-15.24,2.2-37.83,2.38-38.05.18-.23.51-.28.74-.1.23.18.28.51.1.74-.17.22-16.57,22.09-2.46,36.67.2.21.2.55-.01.75-.1.1-.24.15-.37.15Z"/>
      </g>
      <path class="cls-13" d="m1762.24,1154.75c7.53-13.78,11.82-29.58,11.82-46.39,0-53.47-43.34-96.81-96.81-96.81s-96.81,43.34-96.81,96.81c0,16.81,4.29,32.61,11.82,46.39h-144.29v153.3c10.52-3.92,21.9-6.06,33.78-6.06,53.47,0,96.81,43.34,96.81,96.81s-43.34,96.81-96.81,96.81c-11.88,0-23.26-2.15-33.78-6.06v123.77h458.57v-458.57h-144.29Z"/>
      <path class="cls-7" d="m1920.06,1282.36s-14.26-4.81-19.88-5.62c-5.62-.81-10.46-5.77-12-2.86-1.54,2.91,7.77,8.62,7.77,8.62,0,0-10.93,3.73-14.46,4.37-3.53.64-9.56,3.38-9.3,6,.26,2.62,17.02-1.62,17.02-1.62,0,0-13.76,4.96-14.03,7.43-.27,2.47,18.16-1.27,18.16-1.27,0,0-14.93,4.57-15.79,5.95-.86,1.38.88,2.53,6.56,2.2,5.68-.34,11.4-2.14,11.4-2.14,0,0-10.25,4-11.32,4.91s-1.86,2.94,6.5,1.55c8.36-1.39,25.95-7.34,33.53-13.88l-4.17-13.64Z"/>
    </g>
    <g>
      <path class="cls-13" d="m2359.53,1675.95c-.09,0-.18-.02-.27-.05-.71-.2-1.12-.93-.92-1.64,51.68-185.2,99.45-316.17,134.5-368.8.78-1.17,1.34-2.01,1.55-2.44.33-.66,1.13-.92,1.79-.6.66.33.93,1.13.6,1.79-.29.57-.83,1.38-1.72,2.73-34.9,52.4-82.55,183.1-134.16,368.04-.17.62-.76,1.02-1.38.97Z"/>
      <path class="cls-13" d="m2517.82,1295.5c-4.16,5.91-25.46,17.03-27.15,15.85-1.69-1.19,1.59-25,5.75-30.91,4.16-5.91,12.32-7.33,18.23-3.17,5.91,4.16,7.33,12.32,3.17,18.23Z"/>
      <path class="cls-13" d="m2476.63,1314.04c2.27,7.04-1.77,31.29-3.77,31.94-2.01.65-19.44-16.69-21.71-23.73-2.27-7.04,1.6-14.58,8.64-16.85,7.04-2.27,14.58,1.6,16.85,8.64Z"/>
      <path class="cls-13" d="m2503.12,1355.78c-7.37.62-30.09-8.77-30.27-10.87-.18-2.1,20.64-15.19,28.01-15.81,7.37-.62,13.85,4.84,14.47,12.21.62,7.37-4.84,13.85-12.21,14.47Z"/>
      <path class="cls-13" d="m2415.84,1437.31c5.06,11.33,2.72,52.54-.52,53.98-3.23,1.44-35.46-24.33-40.52-35.66-5.06-11.33.03-24.62,11.36-29.68,11.33-5.06,24.62.03,29.68,11.36Z"/>
      <path class="cls-13" d="m2467.61,1502.18c-12.18,2.38-51.8-9.19-52.48-12.66-.68-3.48,31.69-29.07,43.87-31.45,12.18-2.38,23.98,5.57,26.36,17.75,2.38,12.18-5.57,23.98-17.76,26.36Z"/>
      <path class="cls-13" d="m2384.5,1483.99c9.09,12.17,17.39,61.98,13.92,64.58-3.47,2.59-48.89-19.49-57.98-31.66-9.09-12.17-6.59-29.4,5.57-38.49,12.17-9.09,29.4-6.59,38.49,5.57Z"/>
      <path class="cls-13" d="m2458.38,1568.77c-15.13,1.36-61.89-17.7-62.28-22.02s42.24-31.4,57.37-32.76c15.13-1.36,28.49,9.8,29.85,24.93,1.36,15.13-9.8,28.49-24.93,29.85Z"/>
      <path class="cls-13" d="m2365.74,1544.42c9.09,12.17,17.39,61.98,13.92,64.58-3.47,2.59-48.89-19.49-57.98-31.66-9.09-12.17-6.6-29.4,5.57-38.49,12.17-9.09,29.4-6.59,38.49,5.57Z"/>
      <path class="cls-13" d="m2439.61,1629.21c-15.13,1.36-61.89-17.7-62.28-22.02-.39-4.32,42.24-31.4,57.37-32.76,15.13-1.36,28.49,9.8,29.85,24.93,1.36,15.13-9.8,28.49-24.93,29.85Z"/>
      <path class="cls-13" d="m2323.47,1620.73c13.04,7.79,39.69,50.69,37.47,54.41s-52.63.6-65.67-7.19c-13.04-7.79-17.3-24.67-9.51-37.71,7.79-13.04,24.67-17.3,37.71-9.51Z"/>
      <path class="cls-13" d="m2423.13,1688.93c-14.84,3.24-63.62-9.83-64.55-14.06-.92-4.24,37.98-36.43,52.82-39.67,14.84-3.24,29.49,6.17,32.73,21,3.24,14.84-6.17,29.49-21,32.73Z"/>
      <path class="cls-13" d="m2457.89,1352.42c2.3,7.15-1.79,31.79-3.83,32.45-2.04.66-19.75-16.96-22.06-24.11-2.3-7.15,1.62-14.81,8.77-17.12,7.15-2.3,14.81,1.62,17.12,8.77Z"/>
      <path class="cls-13" d="m2483.85,1395.31c-7.49.63-30.57-8.91-30.75-11.04s20.97-15.43,28.46-16.06c7.49-.63,14.07,4.92,14.7,12.4.63,7.49-4.92,14.07-12.4,14.7Z"/>
      <path class="cls-13" d="m2436.34,1388.14c4.09,9.86,1.17,45.22-1.65,46.39-2.81,1.17-29.95-21.71-34.04-31.56-4.1-9.86.57-21.17,10.43-25.26,9.86-4.1,21.17.57,25.26,10.43Z"/>
      <path class="cls-13" d="m2478.04,1449.02c-10.63.9-43.43-12.65-43.69-15.69-.26-3.04,29.79-21.92,40.43-22.82,10.63-.9,19.99,6.99,20.89,17.62.9,10.63-6.99,19.99-17.62,20.89Z"/>
    </g>
    <g>
      <path class="cls-13" d="m440.28,1684.93c.09,0,.18-.02.27-.05.72-.21,1.14-.96.93-1.68-53.79-188.43-103.26-321.63-139.3-375.05-.8-1.19-1.38-2.04-1.6-2.48-.34-.67-1.16-.94-1.82-.6-.67.34-.94,1.16-.6,1.83.3.58.85,1.41,1.77,2.77,35.89,53.19,85.23,186.11,138.94,374.28.18.63.78,1.03,1.41.98Z"/>
      <path class="cls-13" d="m276.66,1298.14c4.27,6,26.05,17.21,27.77,15.98,1.71-1.22-1.77-25.46-6.04-31.46-4.27-6-12.6-7.4-18.6-3.12-6,4.27-7.4,12.6-3.12,18.6Z"/>
      <path class="cls-13" d="m318.76,1316.79c-2.27,7.19,1.99,31.88,4.04,32.53,2.05.65,19.71-17.13,21.98-24.31,2.27-7.19-1.72-14.85-8.9-17.12-7.19-2.27-14.85,1.72-17.12,8.9Z"/>
      <path class="cls-13" d="m292,1359.5c7.51.59,30.61-9.12,30.78-11.26.17-2.14-21.13-15.35-28.64-15.94-7.51-.59-14.08,5.02-14.67,12.53-.59,7.51,5.02,14.08,12.53,14.67Z"/>
      <path class="cls-13" d="m381.45,1442.06c-5.09,11.58-2.45,53.56.86,55.01,3.31,1.45,36-25.01,41.08-36.59,5.09-11.58-.18-25.09-11.76-30.18-11.58-5.09-25.09.18-30.18,11.76Z"/>
      <path class="cls-13" d="m329.08,1508.49c12.43,2.35,52.74-9.67,53.4-13.22.67-3.55-32.48-29.44-44.9-31.79-12.43-2.35-24.41,5.83-26.75,18.25-2.35,12.43,5.83,24.41,18.25,26.75Z"/>
      <path class="cls-13" d="m413.67,1489.45c-9.19,12.46-17.35,63.27-13.8,65.9,3.56,2.62,49.71-20.16,58.9-32.62,9.19-12.46,6.54-30-5.91-39.19-12.45-9.19-30-6.55-39.19,5.91Z"/>
      <path class="cls-13" d="m338.89,1576.3c15.42,1.29,62.97-18.41,63.34-22.82.37-4.4-43.24-31.75-58.66-33.04-15.42-1.29-28.98,10.16-30.27,25.59-1.29,15.42,10.16,28.98,25.59,30.27Z"/>
      <path class="cls-13" d="m433.16,1550.92c-9.19,12.46-17.35,63.27-13.8,65.9,3.56,2.62,49.71-20.16,58.9-32.62,9.19-12.45,6.54-30-5.91-39.19-12.46-9.19-30-6.54-39.19,5.91Z"/>
      <path class="cls-13" d="m358.38,1637.77c15.42,1.29,62.97-18.41,63.34-22.82.37-4.4-43.24-31.75-58.66-33.04-15.42-1.29-28.98,10.16-30.27,25.59-1.29,15.42,10.16,28.98,25.59,30.27Z"/>
      <path class="cls-13" d="m476.7,1628.43c-13.24,8.01-40.14,51.9-37.86,55.67,2.29,3.78,53.64.29,66.88-7.72,13.24-8.02,17.48-25.25,9.46-38.49-8.01-13.24-25.25-17.48-38.49-9.46Z"/>
      <path class="cls-13" d="m375.53,1698.54c15.14,3.21,64.78-10.4,65.7-14.72.92-4.32-38.93-36.9-54.07-40.11-15.14-3.21-30.02,6.46-33.23,21.6-3.21,15.14,6.46,30.02,21.6,33.23Z"/>
      <path class="cls-13" d="m338.09,1355.79c-2.3,7.3,2.02,32.39,4.1,33.05,2.08.66,20.03-17.4,22.34-24.7,2.31-7.3-1.75-15.09-9.05-17.39-7.3-2.31-15.09,1.74-17.39,9.05Z"/>
      <path class="cls-13" d="m311.89,1399.66c7.63.6,31.1-9.26,31.28-11.44.17-2.18-21.46-15.6-29.1-16.2-7.63-.6-14.31,5.1-14.91,12.73-.6,7.63,5.1,14.31,12.73,14.91Z"/>
      <path class="cls-13" d="m360.27,1392.07c-4.11,10.07-.91,46.1,1.96,47.27s30.39-22.3,34.5-32.37c4.11-10.07-.71-21.57-10.78-25.68-10.07-4.11-21.57.71-25.68,10.78Z"/>
      <path class="cls-13" d="m318.13,1454.37c10.84.85,44.19-13.16,44.43-16.25.24-3.09-30.49-22.16-41.34-23.01-10.84-.86-20.33,7.24-21.18,18.09-.85,10.84,7.24,20.33,18.09,21.18Z"/>
    </g>
    <g>
      <path class="cls-13" d="m1003.23,1660.72c2.49,0,4.67-1.74,5.07-4.19l128.93-784.36c.45-2.7-1.47-5.25-4.28-5.67-2.8-.45-5.44,1.41-5.88,4.12l-128.92,784.36c-.45,2.7,1.47,5.25,4.28,5.67.27.04.54.06.81.06Z"/>
      <path class="cls-13" d="m812.82,1660.72c2.49,0,4.67-1.74,5.07-4.19l128.93-784.36c.45-2.7-1.47-5.25-4.28-5.67-2.8-.45-5.44,1.41-5.88,4.12l-128.93,784.36c-.45,2.7,1.47,5.25,4.28,5.67.27.04.54.06.81.06Z"/>
      <path class="cls-13" d="m928.46,957.16h190.4c2.84,0,5.14-2.22,5.14-4.96s-2.3-4.96-5.14-4.96h-190.4c-2.84,0-5.14,2.22-5.14,4.96s2.3,4.96,5.14,4.96Z"/>
      <path class="cls-13" d="m900.61,1115.18h190.4c2.84,0,5.14-2.22,5.14-4.96s-2.3-4.96-5.14-4.96h-190.4c-2.84,0-5.14,2.22-5.14,4.96s2.3,4.96,5.14,4.96Z"/>
      <path class="cls-13" d="m872.22,1302.51h190.4c2.84,0,5.14-2.22,5.14-4.96s-2.3-4.96-5.14-4.96h-190.4c-2.84,0-5.14,2.22-5.14,4.96s2.3,4.96,5.14,4.96Z"/>
      <path class="cls-13" d="m843.72,1472.74h185.56c2.84,0,5.14-2.22,5.14-4.96s-2.3-4.96-5.14-4.96h-185.56c-2.84,0-5.14,2.22-5.14,4.96s2.3,4.96,5.14,4.96Z"/>
    </g>
    <g>
      <path class="cls-7" d="m1108.77,631.71s8.57-16.37,13.41-19.94c2.63-1.93,9.54-2.85,12.06-4.97,2.52-2.11,8.01-4.74,9.69-3.01,1.69,1.73-11.16,11.02-11.16,11.02,0,0,11.59-6.77,13.48-5.5,1.9,1.26-11.57,12.02-11.57,12.02,0,0,12-7.81,13.48-7.6,1.48.21,1.26,2.11-2.31,5.91-3.58,3.8-8.22,6.76-8.22,6.76,0,0,8.85-4.87,10.11-5.07,1.27-.21,3.16.42-2.73,5.48-5.89,5.07-20.43,13.94-29.49,15.43l-6.76-10.53h0Z"/>
      <g>
        <path class="cls-1" d="m1023.95,1080.09s8.27,3.33,21.15.61c0,0,37.52,13.72,36.92,24.87,0,0,1.84,3.21-15.06,3.4-16.89.19-43.12.83-43.84.48-.72-.35-7.37-4.36.83-29.35h0Z"/>
        <g>
          <path class="cls-7" d="m822.17,692.02s-1.9,13.93-3.7,18.82c-1.8,4.88.08,10.95-2.93,10.92-3.02-.03-3.55-10.03-3.55-10.03,0,0-7.79,7.18-9.85,9.75-2.05,2.57-6.91,6.23-8.9,4.87-2-1.36,8.75-13.02,8.75-13.02,0,0-10.02,8.93-12.12,8.06-2.12-.86,8.96-14.08,8.96-14.08,0,0-10.22,10.03-11.71,10.13-1.49.08-1.66-1.81,1.09-6.25,2.76-4.44,6.71-8.25,6.71-8.25,0,0-7.71,6.52-8.9,6.98-1.21.46-3.18.22,1.59-5.91,4.77-6.14,17.26-17.71,25.85-20.96l8.71,8.98h0Z"/>
          <path class="cls-9" d="m1045.1,1080.69l5.77-36.56-27.26-2.61.4,41.45s15.92,3.04,21.1-2.28h0Z"/>
          <path class="cls-9" d="m934.06,1075.09l14.15-34.2-25.9-8.91-9.29,40.39s14.77,6.68,21.04,2.72h0Z"/>
          <path class="cls-1" d="m913.63,1069.55s7.27,5.17,20.43,5.54c0,0,33.27,22.1,30.09,32.8,0,0,1.02,3.55-15.44-.22-16.46-3.76-42.12-9.27-42.74-9.77-.62-.51-6.15-5.96,7.66-28.35h0Z"/>
          <path class="cls-1" d="m1010.04,795.3s39.14,91.33,43.46,133.74c4.32,42.41.95,135.54.95,135.54l-38.42,1.34s-1.29-109.05-8.98-139.52c-7.69-30.48-42.57-81.27-44.45-81.21s20.7,141.15-11.55,219.84c0,0-40.6-7.09-38.81-9.99,1.8-2.9,15.58-68.65,7.14-120.38-8.42-51.72-31.53-144.56-29.88-151.24,1.66-6.67,120.54,11.87,120.54,11.87h0Z"/>
          <path class="cls-12" d="m993.72,597.9s-43.13-15.25-74.04-6.59c-30.91,8.64-88.05,55.16-113.27,91.73l17.79,18.06s59.7-50.85,78.32-45.82c0,0-22.58,98.22-24.97,138.03,0,0,76.41,20.98,137.35,5.6,0,0,1.45-110.07,2.96-104.58,3.77,13.68,59.09,96.06,103.5-52.39l-14.48-12.76s-33.72,71.88-51.18,40.76c-19.01-33.9-25.32-64.53-61.98-72.04h0Z"/>
          <path class="cls-2" d="m1029.33,564.75s3.82-2.44,5-.24c3.03,5.63-3.62,8.19-7.15,7.86l2.15-7.62h0Z"/>
          <path class="cls-7" d="m1035.99,552.46h-.03c.18-.36.35-.72.52-1.08,7.16-16.19-.75-35.22-17.65-41.4-14.07-5.15-30.07.79-37.38,13.88-2.71,4.85-3.95,10.06-3.93,15.17-.31,7.74-.5,14.39-.15,20.15.6,9.53-5.04,24.01-10.31,31.97h0c13.69,22.47,26.66,6.76,26.66,6.76l2.92-6.02c.76-1.6,2.62-2.34,4.28-1.73,0,0,.03,0,.03.02,22.08,8.09,30.76-28.03,35.04-37.7h0Z"/>
          <path class="cls-11" d="m1000.44,554.41c.63-1.45-.02-3.14-1.47-3.78-1.45-.63-3.13.02-3.78,1.47-.64,1.45.01,3.14,1.46,3.78,1.45.64,3.14-.01,3.78-1.46h0Z"/>
          <path class="cls-11" d="m1025.79,560.05c.64-1.45-.01-3.14-1.46-3.78-1.45-.64-3.14.01-3.78,1.46-.64,1.45.01,3.14,1.46,3.78,1.45.64,3.14-.01,3.78-1.46h0Z"/>
          <path class="cls-11" d="m992.85,546.17c-.27-.12-.51-.31-.69-.57-.54-.76-.35-1.81.4-2.34,2.29-1.61,7.82-3.2,12.39,2.33.59.71.48,1.77-.23,2.37-.71.59-1.77.48-2.37-.23-3.75-4.54-7.69-1.84-7.86-1.72-.5.35-1.12.39-1.65.17h0Z"/>
          <path class="cls-11" d="m1019.24,552.95c-.27-.12-.51-.31-.7-.57-.53-.76-.35-1.81.41-2.34,2.29-1.61,7.82-3.2,12.38,2.33.59.71.49,1.77-.22,2.37-.71.59-1.77.48-2.37-.23-3.75-4.54-7.69-1.84-7.86-1.72-.5.35-1.12.39-1.64.16h0Z"/>
          <polygon class="cls-4" points="976.76 527.29 975.97 549.72 981.55 550.96 995.49 527.74 976.76 527.29 976.76 527.29"/>
          <path class="cls-7" d="m982.61,550.71c-.05-1.11-.54-2.16-1.31-2.96-1.6-1.64-4.65-4.02-8.05-2.7-4.99,1.93-2.09,14.18,6.81,12.66,0,0,2.83-1.1,2.55-7h0Z"/>
          <path class="cls-2" d="m1009.71,569.87c-3.06.12-4.7-2.23-4.72-2.26-.16-.23-.1-.53.13-.69.23-.16.53-.1.69.12.08.11,1.92,2.7,5.42,1.53.57-.18.91-.39,1.03-.61.15-.31-.05-.87-.32-1.66-.62-1.81-1.66-4.85-.14-9.98.08-.27.36-.42.62-.34.27.08.42.36.34.62-1.43,4.83-.49,7.56.13,9.37.34.98.61,1.74.27,2.42-.24.49-.74.83-1.6,1.12-.66.22-1.28.33-1.84.35h0Z"/>
          <path class="cls-9" d="m997.01,569.96s10.12,6.05,18.29,5.89c0,0-5.32,7.48-11.82,5.39-6.51-2.09-6.46-11.27-6.46-11.27h0Z"/>
          <path class="cls-4" d="m1036.3,539.52s2.79,4.63-3.78,22.16c0,0,9.81-18.45,8.61-21.48-1.19-3.04-4.83-.68-4.83-.68h0Z"/>
          <path class="cls-4" d="m977.62,520.26c1.83-4.17,5.06-7.56,8.45-10.6-2.13-.4-4.48-.94-5.73-2.71-1.24-1.78-.18-5.01,1.99-4.79,1.25.13,2.12,1.3,3.26,1.83,2.6,1.24,5.49-1.03,7.18-3.36,1.7-2.33,3.43-5.15,6.28-5.54.89-.12,1.82.04,2.64.41-.37,3.37-1.91,6.59-4.28,9,4.52-2.95,9.64-4.98,14.95-5.93,4.14-.73,8.74-.71,12.14,1.77-.18,3.35-5.78,3.18-7.43,6.09,7.35.47,14.63,2.06,21.5,4.72,1.77.69,3.56,1.47,4.92,2.78,1.37,1.31,2.27,3.26,1.86,5.12-.54,2.44-3.54,3.97-5.83,2.98,2.95,2.72,5.93,5.48,8.08,8.86,2.16,3.38,3.41,7.52,2.57,11.44-2.56-.79-4.91-2.25-6.75-4.19,1.07,1.92,1.71,4.5.3,6.2-1.04,1.26-2.91,1.55-4.49,1.16-1.58-.4-2.95-1.37-4.28-2.32-6.71-4.79-13.42-9.57-20.13-14.36,1.92,4.09,2.79,8.66,2.51,13.18-6.53-2.96-12.16-7.88-15.96-13.97-1.64,3-3.72,5.76-6.13,8.19-.38.38-.8.77-1.33.87-1.77.34-2.27-2.29-3.3-3.78-1.25-1.82-3.88-2.03-6.05-1.61-3.74.73-6.76,2.56-8-1.99-.84-3.06-.2-6.62,1.05-9.47h0Z"/>
        </g>
      </g>
      <path class="cls-10" d="m1514.39,556.65c23.98-2.11,46.68,4.72,64.83,17.73l-13.63-155.21-456.81,40.13,40.13,456.81,146.06-12.83c-7.66,15.42-11.31,33.07-9.69,51.47,4.68,53.26,51.65,92.65,104.91,87.97,53.26-4.68,92.65-51.65,87.97-104.91-1.62-18.4-8.28-35.15-18.51-48.99l146.07-12.83-13.63-155.21c-15.6,15.97-36.76,26.65-60.75,28.76-53.26,4.68-100.23-34.71-104.91-87.97-4.68-53.26,34.71-100.23,87.97-104.91Z"/>
      <path class="cls-7" d="m1109.08,631.13s4.85-15.19,8.97-18.04c4.12-2.85,9.75-9.52,12.37-7.61,2.62,1.9-9.31,11.82-9.51,18.67-.09,3.14-4.65,7.92-4.65,7.92l-7.18-.94Z"/>
    </g>
    <g>
      <path class="cls-7" d="m824.71,1191.77s31.94,11.6,36.15,12.19c4.2.59,94.45,3.26,94.45,3.26l5.66,16.22s-72.58,18.65-116.32,9.68c-43.74-8.96-37.69-26.68-37.69-26.68l17.76-14.66Z"/>
      <g>
        <path class="cls-7" d="m703.63,1659.7s-8.03,43.46-7.76,43.96c.27.5-2.54,4.85-2.54,4.85l-10.97,1.97-10.01-4.61s8.13-41.07,7.08-46.17c-1.05-5.1,24.2,0,24.2,0Z"/>
        <path class="cls-1" d="m672.35,1705.86s12.65,4.42,23.46-2.9c0,0,42.11,15.78,40.82,27.79,0,0,1.79,3.58-16.45,2.8-18.25-.77-46.6-1.58-47.36-2-.76-.42-4.33,1.51-.47-25.69Z"/>
      </g>
      <g>
        <path class="cls-7" d="m498.64,1589.9s-38.79,21.17-39.01,21.7c-.22.52-5.37,1.09-5.37,1.09l-8.44-7.28-2.74-10.68s37-19.58,40.3-23.61c3.3-4.03,15.26,18.78,15.26,18.78Z"/>
        <path class="cls-1" d="m443.09,1594.73s4.54,12.6,17.04,16.38c0,0,14.3,42.64,4.18,49.2,0,0-1.64,3.65-12.55-11-10.91-14.65-28.16-37.17-28.31-38.02-.15-.86-3.9-2.41,19.64-16.56Z"/>
      </g>
      <path class="cls-1" d="m748.92,1373.26s23.87,117.42,6.9,182.3c-16.97,64.88-53.04,127.47-53.04,127.47h-37.13s41.37-115.63,35.01-160.19c-6.37-44.56-7.43-102.91-23.34-105.03-15.91-2.12-43.5,75.32-95.48,125.18-51.98,49.86-106.09,67.9-106.09,67.9l-14.85-35.01s88.89-77.83,103.79-107.17c39.13-77.01,68.07-128.35,68.07-128.35l116.17,32.89Z"/>
      <path class="cls-9" d="m735.06,1153.66s22.87,6.37,31.89,2.65c9.02-3.71,33.56.08,52.9,14.35,19.98,14.75,30,22.59,30,22.59,0,0-13.73,29.22-23.28,45.13,0,0-16.13-14.71-17.72-14.18-1.59.53-44.03,83.81-46.15,92.3-2.12,8.49-9.02,61.53-9.02,61.53,0,0-46.15,24.93-67.37,19.1-21.22-5.83-36.07-37.13-71.61-33.42,0,0,36.47-187.24,120.34-210.05Z"/>
      <g>
        <g>
          <path class="cls-2" d="m790.16,1103.8s2.99-4.09,5.12-2.27c5.43,4.64-.46,10.01-4.28,11.09l-.85-8.82Z"/>
          <path class="cls-7" d="m792.13,1088.29h-.03c.04-.44.07-.88.1-1.33.92-19.78-15.03-36.44-35.16-36.05-16.77.32-31.06,12.99-33.38,29.6-.86,6.17-.05,12.1,2.03,17.41,2.82,8.2,5.3,15.22,8.01,21.08,4.48,9.7,5.53,20.63,3.26,31.07l-1.78,8.21c20.63,12.24,30.76,2.22,30.76,2.22l1.09-15.17c.14-1.98,1.78-3.5,3.77-3.54.01,0,.02,0,.04,0,26.31-.49,20.75-41.69,21.3-53.5Z"/>
          <path class="cls-11" d="m755.83,1104.71c.08-1.77-1.29-3.27-3.06-3.35-1.77-.08-3.27,1.29-3.35,3.05-.08,1.77,1.29,3.27,3.05,3.35,1.77.08,3.27-1.29,3.35-3.06Z"/>
          <path class="cls-11" d="m784.57,1100.33c.08-1.77-1.29-3.27-3.06-3.35-1.77-.08-3.27,1.29-3.35,3.06-.08,1.77,1.29,3.27,3.06,3.35,1.77.08,3.27-1.29,3.35-3.06Z"/>
          <path class="cls-11" d="m744.58,1099.18c-.33-.02-.66-.12-.95-.31-.86-.58-1.1-1.74-.52-2.61,1.73-2.6,6.86-6.5,13.86-2.58.91.51,1.23,1.65.72,2.56-.51.91-1.65,1.23-2.56.72-5.75-3.22-8.77,1.19-8.9,1.38-.38.57-1.02.87-1.65.84Z"/>
          <path class="cls-11" d="m774.85,1095.57c-.33-.02-.66-.12-.95-.31-.86-.57-1.1-1.74-.52-2.61,1.73-2.61,6.86-6.5,13.86-2.58.91.51,1.23,1.65.72,2.56-.51.91-1.65,1.23-2.56.72-5.75-3.22-8.77,1.19-8.9,1.38-.38.57-1.02.87-1.65.84Z"/>
          <polygon class="cls-11" points="720.15 1086 728.41 1109.72 734.73 1108.76 739.88 1078.89 720.15 1086"/>
          <path class="cls-7" d="m735.73,1108.06c-.5-1.14-1.44-2.03-2.57-2.55-2.33-1.07-6.48-2.31-9.49.44-4.42,4.03,3.56,15.64,12.23,10.45,0,0,2.51-2.29-.17-8.34Z"/>
          <path class="cls-2" d="m771.76,1117.08c-3.15,1.36-5.81-.42-5.84-.45-.25-.17-.32-.52-.14-.77.17-.25.52-.32.77-.15.12.08,3.09,2.03,6.27-.6.52-.43.79-.79.82-1.06.03-.38-.4-.9-1-1.61-1.38-1.64-3.7-4.38-4.19-10.36-.02-.31.21-.58.51-.6.31-.02.58.2.6.51.46,5.62,2.55,8.09,3.93,9.73.75.88,1.34,1.58,1.26,2.43-.05.6-.43,1.16-1.22,1.82-.6.5-1.2.86-1.78,1.11Z"/>
          <path class="cls-9" d="m758.56,1122.32s13,2.21,21.46-1.26c0,0-2.52,9.96-10.15,10.41-7.63.45-11.3-9.14-11.3-9.14Z"/>
          <path class="cls-11" d="m787.22,1074.66s4.78,3.7,5.03,24.65c0,0,2.76-23.21.29-25.9-2.47-2.68-5.32,1.24-5.32,1.24Z"/>
        </g>
        <path class="cls-11" d="m737.42,1046.62c1.11-.86,3.03-1.42,3.69-.18.27.5.19,1.11.07,1.67-.35,1.61-.96,3.17-1.8,4.59,6.66-5.93,16.52-6.7,25.33-5.34,8.82,1.35,17.33,4.49,26.21,5.28,3.52.31,7.75.64,9.42,3.76,1.16,2.18.43,5.03-1.28,6.8-1.71,1.78-4.2,2.62-6.66,2.88,1.93-.52,4.14.32,5.25,1.98,1.11,1.66,1.02,4.03-.2,5.6-1.87,2.42-5.42,2.52-8.46,2.35-9.7-.54-19.38-1.6-28.97-3.17,1.24,1.32,2.49,2.65,3.73,3.97.42.45.86.93,1.01,1.53.2.83-.2,1.69-.75,2.34-1.43,1.67-3.82,2.25-6.01,2.09-2.2-.16-4.29-.95-6.39-1.6-3.07-.95-6.23-1.61-9.42-1.97-.66-.08-1.34-.14-1.98.06-.86.27-1.5.96-2.16,1.56-3.95,3.61-9.56,4.6-14.84,5.44-1.64.26-3.77.28-4.45-1.23-.26-.59-.22-1.26-.15-1.9.8-7.66,3.72-15.09,8.35-21.25-1.19,1.58-3.59,1.68-4.37-.46-.99-2.72,2.48-4.38,4.42-5.17,1.77-.73,3.36-.71,4.8-2.14,2.26-2.24,2.89-5.39,5.59-7.49Z"/>
      </g>
      <path class="cls-12" d="m1334.73,1295.06c-11.88,0-23.26,2.15-33.78,6.06v-153.3h-146.63c8.98,14.69,14.16,31.95,14.16,50.42,0,53.47-43.34,96.81-96.81,96.81s-96.81-43.34-96.81-96.81c0-18.47,5.18-35.74,14.15-50.42h-146.63v458.57h458.57v-123.77c10.52,3.92,21.9,6.06,33.78,6.06,53.47,0,96.81-43.34,96.81-96.81s-43.34-96.81-96.81-96.81Z"/>
      <path class="cls-7" d="m784.2,1236.21s21.85,43.52,29.74,47.29c7.9,3.77,64.28,36.56,64.28,36.56l-4.39,13.09s-68.75-5.6-96.85-31.55c-28.1-25.95-41.86-64.83-41.86-64.83,0,0,38.35-6.47,49.07-.56Z"/>
      <path class="cls-7" d="m892.88,1342.53s9.02,4.83,9.97,5.72c.95.89,1.49,2.6-6.24.98-7.73-1.61-22.1-10.9-28.91-17.28l3.56-15.75s11.77.47,17.04-.07c5.26-.54,12.79-4.17,14.11-1.4,1.32,2.77-11.44,7.52-11.44,7.52,0,0,6.06,2.22,9.32,2.95,3.26.73,16.9,4.2,16.2,7.6-.5,2.4-17.29-1.35-17.29-1.35,0,0,20.27,5.6,18.74,8.5-1.56,2.95-22.83-2.92-22.83-2.92,0,0,18.01,6.01,17.81,7.51-.3,2.18-4.89,1.41-9.52.44l-10.53-2.43Z"/>
      <path class="cls-9" d="m752.81,1178.93s30,36.23,38.05,57.04c0,0-31.7,7-59.28,32.46l-34.96-58.99,56.19-30.51Z"/>
      <path class="cls-8" d="m731.11,1268.54c-.14-.03-.26-.12-.34-.25l-28.56-46.95c-.16-.26-.07-.59.18-.75.26-.16.59-.07.75.18l28.23,46.41c32.87-26.79,55-30.69,59.49-31.22-3.22-5.99-25.81-47.41-38.66-56.14-.25-.17-.32-.51-.15-.76.17-.25.5-.31.76-.15,14.02,9.52,38.37,55.3,39.4,57.25.09.17.08.37,0,.53-.09.16-.26.26-.45.27-.23.01-23.44,1.37-60.17,31.46-.12.1-.28.14-.43.12-.01,0-.02,0-.04,0Z"/>
      <path class="cls-7" d="m978.38,1213.8s-15.15-4.66-14.77-6.87c.38-2.21,12.94-1.28,12.75-1.37-.19-.09-13.1-3.22-13.61-6.32-.51-3.1,13.88-1.38,13.88-1.38,0,0-12.33-2.05-12.56-4.19-.23-2.14,11.78-1.47,11.85-2.3.07-.83-10.3-.62-10.71-3.27-.41-2.65,14.2-3.5,15.95-1.02,1.75,2.47-.34,4.75-.34,4.75,0,0,2.48,4.46.86,6.74,0,0,.99,6.91-1.94,7.93,0,0,3.26,5.17-1.36,7.3Z"/>
    </g>
    <g>
      <path class="cls-11" d="m2156.91,1690.29c-2.49,0-4.67-1.8-5.07-4.34l-128.92-813.56c-.45-2.8,1.47-5.44,4.28-5.88,2.8-.46,5.44,1.47,5.88,4.28l128.93,813.56c.45,2.8-1.47,5.44-4.28,5.88-.27.05-.54.07-.81.07Z"/>
      <path class="cls-11" d="m2347.31,1690.29c-2.49,0-4.67-1.8-5.07-4.34l-128.93-813.56c-.45-2.8,1.47-5.44,4.28-5.88,2.8-.46,5.44,1.47,5.88,4.28l128.93,813.56c.45,2.8-1.47,5.44-4.28,5.88-.27.05-.54.07-.81.07Z"/>
      <path class="cls-11" d="m2231.67,960.54h-190.4c-2.84,0-5.14-2.3-5.14-5.14s2.3-5.14,5.14-5.14h190.4c2.84,0,5.14,2.3,5.14,5.14s-2.3,5.14-5.14,5.14Z"/>
      <path class="cls-11" d="m2256.11,1124.44h-187.08c-2.79,0-5.05-2.3-5.05-5.14s2.26-5.14,5.05-5.14h187.08c2.79,0,5.05,2.3,5.05,5.14s-2.26,5.14-5.05,5.14Z"/>
      <path class="cls-11" d="m2287.92,1318.75h-190.4c-2.84,0-5.15-2.3-5.15-5.14s2.3-5.14,5.15-5.14h190.4c2.84,0,5.14,2.3,5.14,5.14s-2.3,5.14-5.14,5.14Z"/>
      <path class="cls-11" d="m2316.42,1495.31h-185.56c-2.84,0-5.15-2.3-5.15-5.14s2.3-5.14,5.15-5.14h185.56c2.84,0,5.14,2.3,5.14,5.14s-2.3,5.14-5.14,5.14Z"/>
    </g>
    <g>
      <path class="cls-7" d="m1851.21,613.67s-8.29,1.53,0,4.35c6.39,2.17,14.4,2.88,22.36,2.38l6.22-12.32s-8.02-6.1-11.19-9.32c-3.18-3.22-6.17-9.71-8.54-8.61-2.38,1.11,3.44,11.18,3.44,11.18,0,0-4.07-1.3-6.62-2.59-2.55-1.3-5.15-2.93-6.53-.31-.98,1.86,2.72,4.49,2.72,4.49,0,0-4.51-1.79-5.08.95-.58,2.79,4.73,4.95,4.73,4.95,0,0-5.11-1.38-5.69.85-.47,1.82,4.17,4,4.17,4Z"/>
      <path class="cls-7" d="m2316.52,607.95s3.02-.04,4.14.02c1.11.07,3.35.6-2.63,3.74-5.98,3.14-15.79,4.27-23.75,3.76l-6.22-12.32s8.02-6.1,11.19-9.32c3.18-3.22,6.16-9.71,8.54-8.61,2.38,1.11-3.45,11.18-3.45,11.18,0,0,4.83-2.71,7.38-4,2.55-1.3,5.51-2.87,5.79.08.11,1.19-3.45,5.31-3.45,5.31,0,0,4.81-2.64,6.11-.16,1.07,2.05-4.7,4.92-4.7,4.92,0,0,4.46-1.35,5.33-.4,1.2,1.32.94,2.24-2.22,4.48-.58.41-2.06,1.31-2.06,1.31Z"/>
      <g>
        <path class="cls-7" d="m2090.93,1048.2s7.16,38.75,6.92,39.19c-.24.44,2.26,4.33,2.26,4.33l9.78,1.75,8.93-4.11s-7.25-36.62-6.32-41.16c.93-4.55-21.57,0-21.57,0Z"/>
        <path class="cls-1" d="m2118.82,1089.36s-11.27,3.95-20.91-2.58c0,0-37.55,14.07-36.4,24.77,0,0-1.6,3.19,14.67,2.5,16.27-.69,41.55-1.41,42.23-1.79.68-.38,3.86,1.34.42-22.9Z"/>
      </g>
      <g>
        <path class="cls-7" d="m2194.85,1048.2s7.16,38.75,6.92,39.19c-.24.44,2.26,4.33,2.26,4.33l9.78,1.75,8.93-4.11s-7.25-36.62-6.32-41.16c.93-4.55-21.57,0-21.57,0Z"/>
        <path class="cls-1" d="m2222.74,1089.36s-11.27,3.95-20.91-2.58c0,0-37.55,14.07-36.4,24.77,0,0-1.6,3.19,14.67,2.5,16.27-.69,41.55-1.41,42.23-1.79.68-.38,3.86,1.34.42-22.9Z"/>
      </g>
      <path class="cls-1" d="m2053.74,769.87s-11.91,68.83,0,165.46c11.91,96.63,30.45,140.31,30.45,140.31h43.68s-31.77-108.55,0-226.36c0,0,11.91,136.34,63.54,226.36h39.71s-41.16-174.28-45.01-231.65c-2.73-40.69-.89-93.71-.89-93.71l-131.48,19.58Z"/>
      <g>
        <path class="cls-1" d="m2032.29,510.35c.31-.1.59-.27.82-.51.66-.71.56-1.78-.22-2.38-2.37-1.81-8.31-3.88-13.87,1.26-.72.67-.71,1.74.02,2.39.73.65,1.91.65,2.63-.02,4.57-4.23,8.66-1.18,8.83-1.05.52.4,1.21.49,1.8.31Z"/>
        <path class="cls-7" d="m2019.16,504.09h.03c-.06-.39-.12-.79-.16-1.19-1.91-17.73,13-33.44,32.88-34.02,16.57-.48,31.32,10.24,34.46,25.06,1.16,5.5.66,10.87-1.12,15.74-2.36,7.5-4.46,13.92-6.84,19.31-3.93,8.92-4.42,18.79-1.65,28.07l2.18,7.3c-19.75,11.95-30.26,3.41-30.26,3.41l-1.85-13.58c-.24-1.77-1.94-3.07-3.9-3.01-.01,0-.03,0-.04,0-29.77.85-17.78-25.04-23.73-47.1Z"/>
        <path class="cls-1" d="m2067.07,483.31l19.85,14.55c.3,4.12-.31,8.11-1.67,11.82-2.36,7.5-4.46,13.92-6.84,19.31-1.64,3.72-2.64,7.61-3.1,11.56,0,0-.02.01-.03.02-4.55,2.14-30.88-1.19-32.7-5.46-1.82-4.27,1.52-20.71-7.21-19.36-8.21,1.26-13.64-24.03-13.64-24.03l20.42-8.41h24.92Z"/>
        <path class="cls-15" d="m2039.21,518.23c-.44-1.05-1.31-1.89-2.41-2.41-2.25-1.07-6.27-2.37-9.39-.04-4.57,3.42,2.72,14.21,11.54,9.96,0,0,2.6-1.94.26-7.5Z"/>
        <path class="cls-1" d="m2087.87,480.02c-1.6-3.28-3.61-6.38-5.61-9.46-1-1.54-2.01-3.09-2.96-4.65-.67-1.1-1.43-3.5-2.91-3.93-1.89-.54-2.29,3.66-2.12,4.59.4,2.2,1.95,4.1,2.6,6.24-1.74-5.75-9.86-8.69-15.53-10.12-6.23-1.57-12.87-2.2-19.3-2.67-1.48-.11-3-.2-4.42.2-5.08,1.43-1.93,4.61.08,6.71.06.07-4.11.57-4.58.6-5.89.47-11.54,2.79-15.81,6.52-1.5,1.31-2.59,3.47-.43,4.8,1.29.79,3.23.9,4.69.48-3.46.99-6.94,2.44-9.62,4.71-1.68,1.42-3.98,3.92-3.59,6.2.38,2.25,3.35,3.23,5.52,3.49,5.71.68,11.55-1.03,17.27-1.19,6.36-.18,12.74.45,18.89,1.93,5.08,1.22,9.99,3,15.06,4.24,4.28,1.04,8.65,1.68,13.04,2.16,2.92.32,8.21,1.99,9.76-.76,3.38-5.96,2.86-14.11-.04-20.08Z"/>
      </g>
      <path class="cls-10" d="m2076.35,555.59s-23.55,9.24-33.7,13.41c-15.72,6.45-66.02,45.34-83.89,47.32-17.87,1.99-82.4-11.91-82.4-11.91l-4.96,20.85s41.7,42.69,80.42,37.73c38.72-4.96,68.5-14.89,68.5-14.89,0,0,18.86,44.68,21.84,64.53,2.98,19.86,3.97,63.54,3.97,63.54,0,0,59.57,19.86,143.95-8.94,0,0,0-29.87-29.69-146.74,0,0-28.44-71.85-84.04-64.9Z"/>
      <path class="cls-10" d="m2076.35,555.59s24.5-5.89,72.61,17.53c41.54,20.23,96.21,32.13,118.12,27.21l21.91-4.91,7.62,27.76s-26.67,18.5-80.97,17.97c-58.79-.57-75.86-3.81-75.86-3.81l-63.43-81.75Z"/>
    </g>
  </g>
</svg>